<?xml version="1.0" encoding="utf-8"?>
<!-- Generator: Adobe Illustrator 28.1.0, SVG Export Plug-In . SVG Version: 6.00 Build 0)  -->
<svg version="1.1" id="Layer_1" xmlns="http://www.w3.org/2000/svg" xmlns:xlink="http://www.w3.org/1999/xlink" x="0px" y="0px"
	 viewBox="0 0 81 48.6" style="enable-background:new 0 0 81 48.6;" xml:space="preserve">
<style type="text/css">
	.st0{fill:#FFFFFF;}
</style>
<g>
	<path class="st0" d="M51.9,7.8c1.2,0,2.1-0.4,2.8-1.1v0c0.7-0.8,1.1-1.7,1.1-2.9c0-1.2-0.4-2.1-1.1-2.8C54,0.4,53.1,0,51.9,0
		c-1.2,0-2.1,0.4-2.8,1.1c-0.7,0.7-1.1,1.7-1.1,2.8c0,1.2,0.4,2.1,1.1,2.9C49.8,7.5,50.8,7.8,51.9,7.8z"/>
	<path class="st0" d="M25.3,15.9c-2.8-2.8-6.3-4.2-10.6-4.2s-7.8,1.4-10.6,4.2C1.4,18.7,0,22.2,0,26.4c0,4.2,1.4,7.7,4.1,10.5
		c2.8,2.7,6.3,4.1,10.6,4.1s7.8-1.4,10.6-4.1c2.8-2.8,4.1-6.3,4.1-10.5C29.4,22.2,28,18.7,25.3,15.9z M20.1,32.1
		c-1.4,1.5-3.2,2.3-5.4,2.3c-2.2,0-4-0.8-5.4-2.3c-1.3-1.5-2-3.4-2-5.7c0-2.3,0.7-4.2,2-5.7c1.3-1.5,3.1-2.3,5.4-2.3
		c2.2,0,4,0.8,5.4,2.3c1.4,1.5,2,3.4,2,5.7C22.1,28.7,21.4,30.6,20.1,32.1z"/>
	<path class="st0" d="M76.9,15.9c-2.8-2.8-6.3-4.2-10.6-4.2c-4.3,0-7.8,1.4-10.6,4.2c-2.8,2.8-4.1,6.3-4.1,10.5
		c0,4.2,1.4,7.7,4.1,10.5C58.5,39.6,62,41,66.3,41s7.8-1.4,10.6-4.1c2.8-2.8,4.1-6.3,4.1-10.5C81,22.2,79.6,18.7,76.9,15.9z
		 M71.7,32.1c-1.4,1.5-3.2,2.3-5.4,2.3c-2.2,0-4-0.8-5.4-2.3h0c-1.3-1.5-2-3.4-2-5.7c0-2.3,0.7-4.2,2-5.7c1.3-1.5,3.1-2.3,5.4-2.3
		c2.2,0,4,0.8,5.4,2.3c1.4,1.5,2,3.4,2,5.7C73.7,28.7,73,30.6,71.7,32.1z"/>
	<path class="st0" d="M38.5,4.5c-0.3,1.6-0.7,3.1-1.2,4.7l-9.9,34.3c-0.5,1.7-1,3.4-1.6,5.1h7.2c0.4-1.7,0.9-3.4,1.3-5.1l11.2-39
		H38.5z"/>
	<path class="st0" d="M46,11.5c-0.3,1.6-0.7,3.1-1.2,4.7l-6.5,22.2c-0.5,1.7-1,3.4-1.6,5.1h7.2c0.4-1.7,0.8-3.4,1.3-5.1L53,11.5H46z
		"/>
</g>
</svg>
