<svg width="1986" height="712" viewBox="0 0 1986 712" fill="none" xmlns="http://www.w3.org/2000/svg">
<g filter="url(#filter0_d_49_8165)">
<path d="M32 21C121.586 21 74.4354 121.396 164.021 122.605C253.607 123.815 199.06 54.8684 296.042 54.8684C378.556 54.8684 339.656 166.15 428.064 166.15C516.471 166.15 484.644 291.947 560.085 291.947C643.493 291.947 591.976 122.605 692.106 122.605C792.236 122.605 733.046 328.235 824.127 328.235C919.607 328.235 867.741 219.372 956.148 219.372C1052.81 219.372 988.041 336.702 1086.99 336.702C1197.45 336.702 1129.43 475.804 1220.19 475.804C1310.96 475.804 1267.03 397.181 1352.21 397.181C1441.8 397.181 1396.47 588.296 1484.23 588.296C1553.08 588.296 1521.95 456.451 1616.25 456.451C1705.84 456.451 1677.55 640.308 1748.28 640.308C1836.68 640.308 1793.07 572.571 1880.3 572.571C1966.35 574.99 1926.27 669.338 2012.32 669.338" stroke="url(#paint0_linear_49_8165)" stroke-width="4.71504" stroke-linecap="round" stroke-linejoin="round"/>
</g>
<defs>
<filter id="filter0_d_49_8165" x="0.552647" y="0.130861" width="2043.21" height="711.232" filterUnits="userSpaceOnUse" color-interpolation-filters="sRGB">
<feFlood flood-opacity="0" result="BackgroundImageFix"/>
<feColorMatrix in="SourceAlpha" type="matrix" values="0 0 0 0 0 0 0 0 0 0 0 0 0 0 0 0 0 0 127 0" result="hardAlpha"/>
<feOffset dy="10.5781"/>
<feGaussianBlur stdDeviation="14.5449"/>
<feComposite in2="hardAlpha" operator="out"/>
<feColorMatrix type="matrix" values="0 0 0 0 0 0 0 0 0 0 0 0 0 0 0 0 0 0 0.5 0"/>
<feBlend mode="normal" in2="BackgroundImageFix" result="effect1_dropShadow_49_8165"/>
<feBlend mode="normal" in="SourceGraphic" in2="effect1_dropShadow_49_8165" result="shape"/>
</filter>
<linearGradient id="paint0_linear_49_8165" x1="1022.16" y1="21" x2="1022.16" y2="669.338" gradientUnits="userSpaceOnUse">
<stop offset="0.286458" stop-color="#E5484D"/>
<stop offset="0.333333" stop-color="#C9B500"/>
<stop offset="0.666667" stop-color="#2F989C"/>
<stop offset="0.796875" stop-color="#2F989C"/>
<stop offset="0.895833" stop-color="#809C2F"/>
<stop offset="0.947917" stop-color="#E23600"/>
</linearGradient>
</defs>
</svg>
