<svg width="140" height="140" viewBox="0 0 140 140" fill="none" xmlns="http://www.w3.org/2000/svg">
<g clip-path="url(#clip0_49_7963)">
<path opacity="0.1" d="M70 140C108.66 140 140 108.66 140 70C140 31.3401 108.66 0 70 0C31.3401 0 0 31.3401 0 70C0 108.66 31.3401 140 70 140Z" fill="url(#paint0_linear_49_7963)"/>
<path opacity="0.2" d="M70.3333 128.667C102.55 128.667 128.667 102.55 128.667 70.3333C128.667 38.1167 102.55 12 70.3333 12C38.1167 12 12 38.1167 12 70.3333C12 102.55 38.1167 128.667 70.3333 128.667Z" fill="url(#paint1_linear_49_7963)"/>
<path opacity="0.3" d="M69.6667 116.333C95.44 116.333 116.333 95.44 116.333 69.6667C116.333 43.8934 95.44 23 69.6667 23C43.8934 23 23 43.8934 23 69.6667C23 95.44 43.8934 116.333 69.6667 116.333Z" fill="url(#paint2_linear_49_7963)"/>
<path opacity="0.4" d="M70 105C89.33 105 105 89.33 105 70C105 50.67 89.33 35 70 35C50.67 35 35 50.67 35 70C35 89.33 50.67 105 70 105Z" fill="url(#paint3_linear_49_7963)"/>
<path opacity="0.5" d="M70.3333 93.6667C83.22 93.6667 93.6667 83.22 93.6667 70.3333C93.6667 57.4467 83.22 47 70.3333 47C57.4467 47 47 57.4467 47 70.3333C47 83.22 57.4467 93.6667 70.3333 93.6667Z" fill="url(#paint4_linear_49_7963)"/>
<g filter="url(#filter0_d_49_7963)">
<rect x="55.8547" y="55.8547" width="28.2902" height="28.2902" rx="14.1451" fill="#F5D90A"/>
<rect x="60.5698" y="60.5698" width="18.8602" height="18.8602" rx="9.43008" fill="#FDED75"/>
</g>
</g>
<defs>
<filter id="filter0_d_49_7963" x="23.1398" y="31.5699" width="94.3008" height="95.7804" filterUnits="userSpaceOnUse" color-interpolation-filters="sRGB">
<feFlood flood-opacity="0" result="BackgroundImageFix"/>
<feColorMatrix in="SourceAlpha" type="matrix" values="0 0 0 0 0 0 0 0 0 0 0 0 0 0 0 0 0 0 127 0" result="hardAlpha"/>
<feOffset dy="9.43008"/>
<feGaussianBlur stdDeviation="9.43008"/>
<feColorMatrix type="matrix" values="0 0 0 0 0.486275 0 0 0 0 0.301961 0 0 0 0 1 0 0 0 0.16 0"/>
<feBlend mode="multiply" in2="BackgroundImageFix" result="effect1_dropShadow_49_7963"/>
<feBlend mode="normal" in="SourceGraphic" in2="effect1_dropShadow_49_7963" result="shape"/>
</filter>
<linearGradient id="paint0_linear_49_7963" x1="9.49489" y1="34.7738" x2="130.504" y2="105.225" gradientUnits="userSpaceOnUse">
<stop stop-color="#FFE739"/>
<stop offset="0.123" stop-color="#FFEC5C"/>
<stop offset="0.328" stop-color="#F5D90A"/>
<stop offset="0.577" stop-color="#C7B52E"/>
<stop offset="1" stop-color="#F5D90A"/>
</linearGradient>
<linearGradient id="paint1_linear_49_7963" x1="19.9124" y1="40.9782" x2="120.753" y2="99.6877" gradientUnits="userSpaceOnUse">
<stop stop-color="#FFE739"/>
<stop offset="0.123" stop-color="#FFEC5C"/>
<stop offset="0.328" stop-color="#F5D90A"/>
<stop offset="0.577" stop-color="#C7B52E"/>
<stop offset="1" stop-color="#F5D90A"/>
</linearGradient>
<linearGradient id="paint2_linear_49_7963" x1="29.3299" y1="46.1826" x2="110.003" y2="93.1502" gradientUnits="userSpaceOnUse">
<stop stop-color="#FFE739"/>
<stop offset="0.123" stop-color="#FFEC5C"/>
<stop offset="0.328" stop-color="#F5D90A"/>
<stop offset="0.577" stop-color="#C7B52E"/>
<stop offset="1" stop-color="#F5D90A"/>
</linearGradient>
<linearGradient id="paint3_linear_49_7963" x1="39.7474" y1="52.3869" x2="100.252" y2="87.6126" gradientUnits="userSpaceOnUse">
<stop stop-color="#FFE739"/>
<stop offset="0.123" stop-color="#FFEC5C"/>
<stop offset="0.328" stop-color="#F5D90A"/>
<stop offset="0.577" stop-color="#C7B52E"/>
<stop offset="1" stop-color="#F5D90A"/>
</linearGradient>
<linearGradient id="paint4_linear_49_7963" x1="50.165" y1="58.5913" x2="90.5014" y2="82.0751" gradientUnits="userSpaceOnUse">
<stop stop-color="#FFE739"/>
<stop offset="0.123" stop-color="#FFEC5C"/>
<stop offset="0.328" stop-color="#F5D90A"/>
<stop offset="0.577" stop-color="#C7B52E"/>
<stop offset="1" stop-color="#F5D90A"/>
</linearGradient>
<clipPath id="clip0_49_7963">
<rect width="140" height="140" fill="white"/>
</clipPath>
</defs>
</svg>
