<svg width="48" height="48" viewBox="0 0 48 48" fill="none" xmlns="http://www.w3.org/2000/svg">
<g clip-path="url(#clip0_4486_6597)">
<mask id="mask0_4486_6597" style="mask-type:luminance" maskUnits="userSpaceOnUse" x="0" y="0" width="48" height="48">
<path d="M48 24C48 10.7452 37.2548 0 24 0C10.7452 0 0 10.7452 0 24C0 37.2548 10.7452 48 24 48C37.2548 48 48 37.2548 48 24Z" fill="white"/>
</mask>
<g mask="url(#mask0_4486_6597)">
<path d="M48 24C48 10.7452 37.2548 0 24 0C10.7452 0 0 10.7452 0 24C0 37.2548 10.7452 48 24 48C37.2548 48 48 37.2548 48 24Z" fill="white"/>
<path d="M24.0001 -1.44556C19.4765 0.998737 16.4033 5.78385 16.4033 11.2865C16.4033 16.789 19.4765 21.5738 24.0001 24.0183C28.5237 21.5738 31.5968 16.789 31.5968 11.2865C31.5968 5.78385 28.5237 0.998737 24.0001 -1.44556Z" fill="#FFFB00"/>
<path d="M19.5783 -1.05884C15.5482 2.13395 13.3527 7.37989 14.308 12.7988C15.2635 18.218 19.121 22.3963 24.0002 24.0183C28.0306 20.8255 30.2261 15.5796 29.2706 10.1607C28.315 4.7415 24.4579 0.563142 19.5783 -1.05884Z" fill="#FFED00"/>
<path d="M15.2907 0.0898438C11.8761 3.93413 10.625 9.48149 12.507 14.6521C14.389 19.8232 18.9132 23.2683 24 24.0182C27.4146 20.1741 28.666 14.6266 26.784 9.45593C24.9021 4.28494 20.3775 0.839813 15.2907 0.0898438Z" fill="#FFDF00"/>
<path d="M11.268 1.96568C8.57282 6.34464 8.30395 12.025 11.0554 16.7903C13.8064 21.5558 18.8603 24.163 24.0001 24.0183C26.6953 19.6394 26.9644 13.9591 24.2131 9.19392C21.4617 4.42825 16.4078 1.82098 11.268 1.96568Z" fill="#FFD000"/>
<path d="M7.63152 4.51179C5.7377 9.2922 6.45916 14.9328 9.99636 19.1479C13.5333 23.3633 18.963 25.0533 23.9996 24.0183C25.8937 19.2379 25.1719 13.5973 21.635 9.3822C18.0978 5.16675 12.6681 3.4768 7.63152 4.51179Z" fill="#FFC000"/>
<path d="M4.49359 7.65067C3.45831 12.6872 5.14855 18.1167 9.3637 21.6539C13.5791 25.1908 19.2197 25.9125 24.0001 24.0185C25.0351 18.9819 23.3451 13.5522 19.1297 10.0153C14.9146 6.47834 9.2737 5.75661 4.49359 7.65067Z" fill="#FFB200"/>
<path d="M1.94712 11.2865C1.80242 16.4261 4.4097 21.48 9.17506 24.2313C13.9405 26.9827 19.6211 26.7135 23.9997 24.0183C24.1444 18.8786 21.5372 13.8247 16.7718 11.0736C12.0064 8.32226 6.32609 8.59113 1.94712 11.2865Z" fill="#FFA000"/>
<path d="M0.0712891 15.309C0.821254 20.3958 4.26645 24.9203 9.4374 26.8024C14.6081 28.6843 20.1554 27.4328 23.9997 24.0183C23.2497 18.9315 19.8046 14.4073 14.6337 12.5252C9.46296 10.6434 3.91557 11.8945 0.0712891 15.309Z" fill="#FF9300"/>
<path d="M-1.07715 19.5966C0.544547 24.4761 4.72319 28.3333 10.1424 29.2889C15.5613 30.2444 20.8072 28.0489 24 24.0185C22.378 19.1393 18.1996 15.2819 12.7805 14.3263C7.36131 13.371 2.11571 15.5662 -1.07715 19.5966Z" fill="#FF8700"/>
<path d="M-1.46387 24.0183C0.980716 28.5421 5.76555 31.6151 11.2683 31.6151C16.7709 31.6151 21.5557 28.5421 24.0003 24.0183C21.5557 19.4948 16.7709 16.4216 11.2683 16.4216C5.76555 16.4216 0.980716 19.4948 -1.46387 24.0183Z" fill="#FF7900"/>
<path d="M-1.07715 28.4403C2.11571 32.4707 7.36167 34.6662 12.7805 33.7107C18.1996 32.7551 22.378 28.8976 24 24.0184C20.8072 19.988 15.5613 17.7925 10.1424 18.748C4.72319 19.7036 0.544547 23.5608 -1.07715 28.4403Z" fill="#FF5700"/>
<path d="M0.0712891 32.7277C3.91557 36.1423 9.46296 37.3937 14.6337 35.5114C19.8046 33.6294 23.2497 29.1052 23.9997 24.0183C20.1554 20.6038 14.6081 19.3524 9.4374 21.2347C4.26645 23.1166 0.821254 27.6409 0.0712891 32.7277Z" fill="#FF3B00"/>
<path d="M1.94712 36.7503C6.32609 39.4455 12.0064 39.7146 16.7718 36.9632C21.5372 34.2118 24.1444 29.1579 23.9997 24.0181C19.6211 21.323 13.9405 21.0538 9.17506 23.8052C4.4097 26.5566 1.80242 31.6105 1.94712 36.7503Z" fill="#FF2600"/>
<path d="M4.49359 40.3865C9.2737 42.2802 14.9146 41.5587 19.1297 38.0219C23.3451 34.4846 25.0351 29.0549 24.0001 24.0183C19.2197 22.1243 13.5791 22.8461 9.3637 26.383C5.14855 29.9201 3.45831 35.3499 4.49359 40.3865Z" fill="#F22540"/>
<path d="M7.63152 43.5246C12.6681 44.5599 18.0978 42.8696 21.635 38.6545C25.1719 34.4391 25.8937 28.7985 23.9996 24.0181C18.963 22.9832 13.5333 24.6731 9.99636 28.8885C6.45916 33.1036 5.7377 38.7445 7.63152 43.5246Z" fill="#E5276F"/>
<path d="M11.268 46.0708C16.4078 46.2155 21.4617 43.6082 24.2131 38.8428C26.9644 34.0775 26.6953 28.3968 24.0001 24.0182C18.8603 23.8735 13.8064 26.4808 11.0554 31.2461C8.30395 36.0115 8.57282 41.6922 11.268 46.0708Z" fill="#D2278D"/>
<path d="M15.2907 47.9465C20.3775 47.1965 24.9021 43.7514 26.784 38.5808C28.666 33.4098 27.4146 27.8624 24 24.0181C18.9132 24.7681 14.389 28.2135 12.507 33.3842C10.625 38.5549 11.8761 44.1023 15.2907 47.9465Z" fill="#C82DB3"/>
<path d="M19.5783 49.0952C24.4579 47.4735 28.315 43.2949 29.2706 37.8757C30.2261 32.4568 28.0306 27.2108 24.0002 24.0181C19.121 25.64 15.2635 29.8184 14.308 35.2376C13.3527 40.6568 15.5482 45.9025 19.5783 49.0952Z" fill="#A92BBC"/>
<path d="M24.0001 49.4823C28.5237 47.0377 31.5968 42.2529 31.5968 36.7502C31.5968 31.2475 28.5237 26.4627 24.0001 24.0181C19.4765 26.4627 16.4033 31.2475 16.4033 36.7502C16.4033 42.2529 19.4765 47.0377 24.0001 49.4823Z" fill="#7524AF"/>
<path d="M28.4222 49.0952C32.4526 45.9025 34.6481 40.6568 33.6923 35.2376C32.737 29.8184 28.8798 25.64 24.0003 24.0181C19.9698 27.2108 17.7744 32.4568 18.73 37.8757C19.6855 43.2949 23.543 47.4735 28.4222 49.0952Z" fill="#4D22B3"/>
<path d="M32.7092 47.9465C36.1237 44.1023 37.3751 38.5549 35.4928 33.3842C33.6106 28.2135 29.0867 24.7681 23.9998 24.0181C20.5852 27.8624 19.3338 33.4098 21.2161 38.5808C23.098 43.7514 27.6223 47.1965 32.7092 47.9465Z" fill="#1B1CA1"/>
<path d="M36.7325 46.0708C39.4277 41.6922 39.6968 36.0115 36.9454 31.2461C34.1941 26.4808 29.1402 23.8735 24.0004 24.0182C21.3053 28.3968 21.0365 34.0775 23.7875 38.8428C26.5388 43.6082 31.5927 46.2155 36.7325 46.0708Z" fill="#0229BA"/>
<path d="M40.3678 43.5246C42.2618 38.7445 41.54 33.1036 38.0032 28.8885C34.466 24.6731 29.0362 22.9832 23.9996 24.0181C22.1059 28.7985 22.8274 34.4391 26.3643 38.6545C29.9014 42.8696 35.3312 44.5599 40.3678 43.5246Z" fill="#0040BA"/>
<path d="M43.5072 40.3865C44.542 35.3499 42.8521 29.9201 38.6368 26.383C34.4211 22.8461 28.7807 22.1243 24.0003 24.0183C22.9653 29.0549 24.6553 34.4846 28.8707 38.0219C33.0858 41.5587 38.7268 42.2802 43.5072 40.3865Z" fill="#005DBC"/>
<path d="M46.0525 36.7503C46.1971 31.6105 43.5899 26.5566 38.8245 23.8052C34.0592 21.0538 28.3788 21.323 23.9999 24.0181C23.8552 29.1579 26.4624 34.2118 31.2277 36.9632C35.9935 39.7146 41.6738 39.4455 46.0525 36.7503Z" fill="#0074BF"/>
<path d="M47.9286 32.7278C47.1784 27.641 43.7333 23.1168 38.5626 21.2345C33.3913 19.3525 27.8443 20.6039 24 24.0185C24.7499 29.1053 28.1951 33.6295 33.3661 35.5115C38.537 37.3938 44.0842 36.1424 47.9286 32.7278Z" fill="#0087C3"/>
<path d="M49.0775 28.4403C47.4555 23.5608 43.2768 19.7036 37.8579 18.748C32.4388 17.7925 27.1928 19.988 24 24.0184C25.622 28.8976 29.8006 32.7551 35.2195 33.7107C40.6387 34.6662 45.8844 32.4707 49.0775 28.4403Z" fill="#009BCC"/>
<path d="M49.4643 24.0183C47.0196 19.4948 42.2348 16.4216 36.7321 16.4216C31.2294 16.4216 26.4446 19.4948 24 24.0183C26.4446 28.5421 31.2294 31.6151 36.7321 31.6151C42.2348 31.6151 47.0196 28.5421 49.4643 24.0183Z" fill="#00AFCF"/>
<path d="M49.0775 19.5966C45.8844 15.5662 40.6387 13.371 35.2195 14.3263C29.8006 15.2819 25.622 19.1393 24 24.0185C27.1928 28.0489 32.4388 30.2444 37.8579 29.2889C43.2768 28.3333 47.4555 24.4761 49.0775 19.5966Z" fill="#00C6A0"/>
<path d="M47.9286 15.309C44.0842 11.8945 38.537 10.6434 33.3661 12.5252C28.1951 14.4073 24.7499 18.9315 24 24.0183C27.8443 27.4328 33.3913 28.6843 38.5626 26.8024C43.7333 24.9203 47.1784 20.3958 47.9286 15.309Z" fill="#00BD4F"/>
<path d="M46.0525 11.2865C41.6738 8.59113 35.9935 8.32226 31.2277 11.0736C26.4624 13.8247 23.8552 18.8786 23.9999 24.0183C28.3788 26.7135 34.0592 26.9824 38.8245 24.2313C43.5899 21.48 46.1971 16.4261 46.0525 11.2865Z" fill="#00B600"/>
<path d="M43.5072 7.65067C38.7268 5.75661 33.0858 6.47834 28.8707 10.0153C24.6553 13.5522 22.9653 18.9819 24.0003 24.0185C28.7807 25.9125 34.4211 25.1908 38.6368 21.6539C42.8521 18.1167 44.542 12.6872 43.5072 7.65067Z" fill="#3BBE00"/>
<path d="M40.3678 4.51179C35.3312 3.4768 29.9014 5.16675 26.3643 9.3822C22.8274 13.5973 22.1059 19.2379 23.9996 24.0183C29.0362 25.0533 34.466 23.3633 38.0032 19.1479C41.54 14.9328 42.2618 9.2922 40.3678 4.51179Z" fill="#70C700"/>
<path d="M36.7325 1.96568C31.5927 1.82098 26.5388 4.42825 23.7875 9.19392C21.0365 13.9591 21.3053 19.6394 24.0004 24.0183C29.1402 24.163 34.1941 21.5558 36.9454 16.7903C39.6968 12.025 39.4277 6.34464 36.7325 1.96568Z" fill="#9CCE00"/>
<path d="M32.7092 0.0898438C27.6223 0.839813 23.098 4.28494 21.2161 9.45593C19.3338 14.6266 20.5852 20.1741 23.9998 24.0182C29.0867 23.2683 33.6106 19.8232 35.4928 14.6521C37.3751 9.48149 36.1237 3.93413 32.7092 0.0898438Z" fill="#BADF00"/>
<path d="M28.4222 -1.05884C23.543 0.563142 19.6855 4.7415 18.73 10.1607C17.7744 15.5796 19.9698 20.8255 24.0003 24.0183C28.8798 22.3963 32.737 18.218 33.6923 12.7988C34.6481 7.37989 32.4526 2.13395 28.4222 -1.05884Z" fill="#DCED00"/>
<mask id="mask1_4486_6597" style="mask-type:luminance" maskUnits="userSpaceOnUse" x="-5" y="-3" width="47" height="36">
<path d="M38.1184 -2.26677C38.1184 -2.26677 13.8357 -2.88827 11.4614 -1.44565C9.08706 -0.00337974 -5.20703 20.0382 -4.91855 20.3581C-4.62999 20.6784 0.0715485 32.7276 0.0715485 32.7276C0.821514 27.6408 4.26671 23.1165 9.43767 21.2342C14.6083 19.3523 20.1557 20.6037 24 24.0182L41.2075 22.5127L38.1184 -2.26677Z" fill="white"/>
</mask>
<g mask="url(#mask1_4486_6597)">
<path d="M23.999 -1.4458C19.4755 0.998493 16.4023 5.78361 16.4023 11.2863C16.4023 16.7887 19.4755 21.5735 23.999 24.0181C28.5227 21.5735 31.5958 16.7887 31.5958 11.2863C31.5958 5.78361 28.5227 0.998493 23.999 -1.4458Z" fill="#FFFB00"/>
<path d="M19.5774 -1.05908C15.5473 2.1337 13.3517 7.37965 14.307 12.7986C15.2625 18.2178 19.12 22.3961 23.9992 24.0181C28.0296 20.8253 30.2251 15.5793 29.2696 10.1605C28.3141 4.74126 24.4569 0.562897 19.5774 -1.05908Z" fill="#FFED00"/>
<path d="M15.2897 0.0895996C11.8752 3.93388 10.6241 9.48124 12.506 14.6519C14.388 19.8229 18.9122 23.268 23.999 24.018C27.4136 20.1738 28.6651 14.6263 26.783 9.45569C24.9011 4.28469 20.3765 0.839569 15.2897 0.0895996Z" fill="#FFDF00"/>
<path d="M11.267 1.96543C8.57184 6.3444 8.30297 12.0247 11.0544 16.7901C13.8055 21.5555 18.8594 24.1627 23.9991 24.018C26.6943 19.6391 26.9634 13.9588 24.2121 9.19363C21.4607 4.42801 16.4068 1.82074 11.267 1.96543Z" fill="#FFD000"/>
<path d="M7.63152 4.51155C5.7377 9.29193 6.45916 14.9326 9.99637 19.1477C13.5333 23.3631 18.9631 25.0531 23.9996 24.018C25.8937 19.2377 25.1719 13.597 21.635 9.38193C18.0978 5.16651 12.6681 3.47655 7.63152 4.51155Z" fill="#FFC000"/>
<path d="M4.49261 7.65021C3.45734 12.6868 5.14757 18.1163 9.36273 21.6534C13.5781 25.1903 19.2187 25.912 23.9991 24.018C25.0341 18.9815 23.3441 13.5517 19.1288 10.0148C14.9136 6.47785 9.27273 5.75611 4.49261 7.65021Z" fill="#FFB200"/>
<path d="M1.94712 11.2863C1.80242 16.4258 4.40971 21.4797 9.17506 24.231C13.9405 26.9824 19.6211 26.7133 23.9997 24.0181C24.1444 18.8783 21.5372 13.8244 16.7718 11.0733C12.0064 8.32201 6.32609 8.59088 1.94712 11.2863Z" fill="#FFA000"/>
<path d="M0.0712891 15.3088C0.821259 20.3956 4.26645 24.9201 9.43741 26.8021C14.6081 28.684 20.1555 27.4326 23.9997 24.0181C23.2497 18.9312 19.8046 14.4071 14.6337 12.525C9.46296 10.6431 3.91557 11.8942 0.0712891 15.3088Z" fill="#FF9300"/>
<path d="M-1.07812 19.5961C0.543573 24.4756 4.72222 28.3329 10.1414 29.2884C15.5603 30.2439 20.8063 28.0485 23.9991 24.018C22.3771 19.1388 18.1987 15.2813 12.7795 14.3258C7.36034 13.3705 2.11473 15.5657 -1.07812 19.5961Z" fill="#FF8700"/>
<path d="M-1.46484 24.0181C0.97974 28.5417 5.76457 31.6149 11.2673 31.6149C16.7699 31.6149 21.5547 28.5417 23.9994 24.0181C21.5547 19.4945 16.7699 16.4214 11.2673 16.4214C5.76457 16.4214 0.97974 19.4945 -1.46484 24.0181Z" fill="#FF7900"/>
<path d="M-1.07812 28.44C2.11473 32.4705 7.3607 34.666 12.7795 33.7104C18.1987 32.7549 22.3771 28.8974 23.9991 24.0182C20.8063 19.9878 15.5603 17.7923 10.1414 18.7478C4.72222 19.7034 0.543573 23.5605 -1.07812 28.44Z" fill="#FF5700"/>
</g>
</g>
</g>
<defs>
<clipPath id="clip0_4486_6597">
<rect width="48" height="48" fill="white"/>
</clipPath>
</defs>
</svg>
