<svg width="900" height="255" viewBox="0 0 900 255" fill="none" xmlns="http://www.w3.org/2000/svg">
<g filter="url(#filter0_di_2004_16161)">
<path fill-rule="evenodd" clip-rule="evenodd" d="M110.218 6.4685C112.362 5.10582 115.205 5.74137 116.564 7.8872L164.22 83.1222C165.062 84.452 166.527 85.2579 168.101 85.2579H239.329C241.867 85.2579 243.923 87.3147 243.923 89.852V93.3836C243.923 95.9208 241.867 97.9777 239.329 97.9777H232.474C229.93 97.9777 227.886 100.049 227.714 102.588C226.762 116.589 221.222 130.914 211.151 145.554C206.658 152.467 201.536 158.737 195.909 164.342C195.289 165.009 194.659 165.675 194.022 166.341C169.825 191.615 132.412 218.119 81.8365 245.854L78.2292 247.831C74.6833 249.775 70.5369 246.521 71.583 242.615L83.5447 197.95C84.1974 195.513 82.7591 193.014 80.356 192.246C72.6847 189.792 65.1637 186.489 57.9171 182.303C31.5298 167.061 13.4134 142.824 5.35768 115.618C-2.69379 88.4136 -0.702366 58.2278 13.1214 31.0869L13.9564 29.4478C15.1512 27.1023 18.0686 26.2384 20.3479 27.5551L21.9422 28.4761L65.2749 53.5054C67.7727 54.9482 70.9614 53.7553 72.0661 51.0907C74.8837 44.294 78.4823 37.856 82.7801 31.9032C89.745 22.253 98.5158 13.908 108.736 7.41082L110.218 6.4685ZM116.092 9.99549C114.733 7.84935 111.89 7.21359 109.747 8.57637L109.555 8.69848C99.5003 15.0902 90.8708 23.3004 84.0174 32.7962C78.5467 40.3734 74.2277 48.7493 71.2342 57.654V57.654C71.0806 58.111 70.5469 58.3127 70.1295 58.0715L21.179 29.7973L20.9774 29.6809C18.6981 28.3642 15.7807 29.2281 14.5859 31.5736L14.481 31.7794C0.841301 58.5589 -1.12415 88.3406 6.82073 115.185C14.7696 142.03 32.6439 165.943 58.6803 180.981C67.4108 186.025 76.5434 189.768 85.8554 192.274V192.274C86.262 192.384 86.503 192.802 86.3941 193.208L73.9807 239.56C72.9346 243.466 77.081 246.721 80.6269 244.777L81.1029 244.516C131.619 216.814 168.877 190.398 192.92 165.286C193.556 164.621 194.183 163.957 194.803 163.292L194.822 163.271C200.38 157.735 205.44 151.543 209.878 144.714L209.889 144.697C221.129 128.359 226.579 112.542 226.327 97.2294V97.2294C226.324 97.0244 226.403 96.8267 226.547 96.6808V96.6808V96.6808C226.692 96.5343 226.889 96.4519 227.095 96.4519H237.804C240.341 96.4519 242.398 94.395 242.398 91.8578V91.3778C242.398 88.8406 240.341 86.7837 237.804 86.7837H167.261C165.687 86.7837 164.223 85.9778 163.38 84.648L116.215 10.1888L116.092 9.99549ZM110.061 20.0445C110.417 19.7829 110.92 19.8778 111.157 20.2512L148.835 79.7334C150.772 82.7922 148.574 86.7858 144.954 86.7858H121.071C120.264 86.7858 119.472 86.5734 118.773 86.1699L80.0238 63.789C79.7163 63.6114 79.572 63.2452 79.6757 62.9056V62.9056C82.3704 54.0781 86.4884 45.8115 91.8242 38.4197C96.8567 31.4498 102.992 25.2346 110.061 20.0445V20.0445ZM112.967 25.9605C111.533 23.6968 108.466 23.1275 106.423 24.8617C101.37 29.1515 96.8903 34.0098 93.0613 39.3129C88.6508 45.4228 85.0877 52.142 82.4925 59.2865C81.7583 61.308 82.6381 63.5369 84.5005 64.6126L119.182 84.6441C119.881 85.0476 120.673 85.26 121.48 85.26H142.181C145.802 85.26 147.999 81.2664 146.062 78.2076L112.967 25.9605ZM20.5473 41.5186C20.7303 41.1028 21.2338 40.9381 21.6272 41.1653L109.932 92.1699C111.732 93.2096 112.61 95.3286 112.072 97.3366L89.2784 182.441C89.1693 182.848 88.7505 183.09 88.3433 182.98V182.98C79.8184 180.687 71.4579 177.259 63.4695 172.645C39.678 158.903 23.3405 137.032 16.0693 112.475C9.32479 89.6973 10.3905 64.5984 20.5473 41.5186V41.5186ZM26.0795 45.499C23.6975 44.1232 20.64 45.1335 19.6818 47.7119C11.8175 68.8738 11.4266 91.4215 17.5323 112.041C24.6969 136.239 40.7926 157.785 64.2327 171.324C70.4816 174.933 76.9605 177.805 83.5673 179.966C85.9935 180.76 88.5413 179.295 89.2017 176.829L110.295 98.0724C110.833 96.0644 109.956 93.9455 108.155 92.9057L26.0795 45.499ZM151.42 105.028C147.351 102.678 149.018 96.456 153.718 96.456H215.907C216.323 96.456 216.662 96.7885 216.67 97.2039V97.2039C216.908 109.316 212.909 121.914 204.751 134.98V134.98C204.612 135.203 204.367 135.339 204.103 135.339V135.339C203.969 135.339 203.837 135.303 203.72 135.236L151.42 105.028ZM159.41 97.9818C154.711 97.9818 153.043 104.203 157.113 106.554L199.974 131.311C202.129 132.555 204.895 131.863 206.102 129.687C211.29 120.333 214.238 111.287 214.972 102.548C215.183 100.028 213.11 97.9818 210.582 97.9818H159.41ZM120.088 104.715C120.87 101.796 124.208 100.414 126.824 101.925L198.12 143.105C198.518 143.335 198.624 143.862 198.346 144.227V144.227C195.227 148.332 191.71 152.483 187.797 156.681L187.776 156.703C174.161 170.17 157.307 179.318 139.303 183.642C126.464 186.725 113.038 187.362 99.7802 185.37C99.553 185.335 99.3911 185.131 99.4087 184.902L99.4123 184.856C99.4264 184.672 99.3075 184.504 99.1293 184.456V184.456C98.9248 184.401 98.8035 184.191 98.8582 183.987L120.088 104.715ZM101.79 178.937C101.079 181.593 102.845 184.284 105.582 184.541C116.815 185.597 128.094 184.765 138.946 182.159C156.681 177.899 173.281 168.89 186.692 155.629C189.052 153.097 191.264 150.584 193.33 148.09C195.102 145.95 194.468 142.758 192.062 141.368L127.783 104.241C125.167 102.73 121.829 104.113 121.048 107.031L101.79 178.937ZM141.524 193.004C142.103 192.865 142.681 192.72 143.259 192.571C143.68 192.463 144.12 192.667 144.305 193.06V193.06C144.491 193.454 144.371 193.922 144.018 194.176C127.97 205.718 109.29 217.539 87.9731 229.639V229.639C87.3844 229.973 86.6844 229.432 86.8596 228.778L95.7626 195.538C95.8143 195.345 96.0127 195.23 96.2057 195.282V195.282C96.4123 195.337 96.6215 195.202 96.6564 194.991V194.991C96.6891 194.793 96.8759 194.66 97.0735 194.692C111.971 197.106 127.087 196.471 141.524 193.004ZM101.251 196.826C98.9157 196.541 96.6892 197.976 96.0805 200.249L91.654 216.776C90.5981 220.718 94.8152 223.96 98.3319 221.889C106.433 217.118 114.115 212.393 121.377 207.714C125.602 204.991 122.666 197.523 117.641 197.636C112.189 197.759 106.712 197.492 101.251 196.826Z" fill="#4E3535"/>
<path fill-rule="evenodd" clip-rule="evenodd" d="M109.555 8.69848L109.747 8.57637C111.89 7.21359 114.733 7.84935 116.092 9.99549L116.215 10.1888L163.38 84.648C164.223 85.9778 165.687 86.7837 167.261 86.7837H237.804C240.341 86.7837 242.398 88.8406 242.398 91.3778V91.8578C242.398 94.395 240.341 96.4519 237.804 96.4519H227.095C226.889 96.4519 226.692 96.5343 226.547 96.6808V96.6808V96.6808C226.403 96.8267 226.324 97.0244 226.327 97.2294V97.2294C226.579 112.542 221.129 128.359 209.889 144.697L209.878 144.714C205.44 151.543 200.38 157.735 194.822 163.271L194.803 163.292C194.183 163.957 193.556 164.621 192.92 165.286C168.877 190.398 131.619 216.814 81.1029 244.516L80.6269 244.777C77.081 246.721 72.9346 243.466 73.9807 239.56L86.3941 193.208C86.503 192.802 86.262 192.384 85.8554 192.274V192.274C76.5434 189.768 67.4108 186.025 58.6803 180.981C32.6439 165.943 14.7696 142.03 6.82073 115.185C-1.12415 88.3406 0.841301 58.5589 14.481 31.7794L14.5859 31.5736C15.7807 29.2281 18.6981 28.3642 20.9774 29.6809L21.179 29.7973L70.1295 58.0715C70.5469 58.3127 71.0806 58.111 71.2342 57.654V57.654C74.2277 48.7493 78.5467 40.3734 84.0174 32.7962C90.8708 23.3004 99.5003 15.0902 109.555 8.69848ZM80.0238 63.789C79.7163 63.6114 79.572 63.2452 79.6757 62.9056V62.9056C82.3704 54.0781 86.4884 45.8115 91.8242 38.4197C96.8567 31.4498 102.992 25.2346 110.061 20.0445V20.0445C110.417 19.7829 110.92 19.8778 111.157 20.2512L148.835 79.7334C150.772 82.7922 148.574 86.7858 144.954 86.7858H121.071C120.264 86.7858 119.472 86.5734 118.773 86.1699L80.0238 63.789ZM89.2784 182.441C89.1693 182.848 88.7505 183.09 88.3433 182.98V182.98C79.8184 180.687 71.4579 177.259 63.4695 172.645C39.678 158.903 23.3405 137.032 16.0693 112.475C9.32479 89.6973 10.3905 64.5984 20.5473 41.5186V41.5186C20.7303 41.1028 21.2338 40.9381 21.6272 41.1653L109.932 92.1699C111.732 93.2096 112.61 95.3286 112.072 97.3366L89.2784 182.441ZM215.907 96.456C216.323 96.456 216.662 96.7885 216.67 97.2039V97.2039C216.908 109.316 212.909 121.914 204.751 134.98V134.98C204.612 135.203 204.367 135.339 204.103 135.339V135.339C203.969 135.339 203.837 135.303 203.72 135.236L151.42 105.028C147.351 102.678 149.018 96.456 153.718 96.456H215.907ZM198.12 143.105C198.518 143.335 198.624 143.862 198.346 144.227V144.227C195.227 148.332 191.71 152.483 187.797 156.681L187.776 156.703C174.161 170.17 157.307 179.318 139.303 183.642C126.464 186.725 113.038 187.362 99.7802 185.37C99.553 185.335 99.3911 185.131 99.4087 184.902L99.4123 184.856C99.4264 184.672 99.3075 184.504 99.1293 184.456V184.456C98.9248 184.401 98.8035 184.191 98.8582 183.987L120.088 104.715C120.87 101.796 124.208 100.414 126.824 101.925L198.12 143.105ZM141.524 193.004C142.103 192.865 142.681 192.72 143.259 192.571C143.68 192.463 144.12 192.667 144.305 193.06V193.06C144.491 193.454 144.371 193.922 144.018 194.176C127.97 205.718 109.29 217.539 87.9731 229.639V229.639C87.3844 229.973 86.6844 229.432 86.8596 228.778L95.7626 195.538C95.8143 195.345 96.0127 195.23 96.2057 195.282V195.282C96.4123 195.337 96.6215 195.202 96.6564 194.991V194.991C96.6891 194.793 96.8759 194.66 97.0735 194.692C111.971 197.106 127.087 196.471 141.524 193.004Z" fill="#4E3535"/>
</g>
<g filter="url(#filter1_di_2004_16161)">
<path d="M365.688 186.241C366.924 187.987 366.576 190.411 364.798 191.601C360.904 194.207 356.634 196.33 351.988 197.969C346.076 199.882 339.555 200.838 332.426 200.838C321.123 200.838 311.038 198.23 302.17 193.014C293.301 187.623 286.346 180.32 281.303 171.104C276.434 161.714 274 151.194 274 139.544C274 127.893 276.521 117.46 281.564 108.244C286.607 98.8543 293.562 91.5511 302.43 86.3345C311.472 80.944 321.471 78.2488 332.426 78.2488C343.033 78.2488 352.423 80.8571 360.595 86.0737C368.942 91.1163 375.376 98.3326 379.897 107.722C384.592 116.938 386.939 127.545 386.939 139.544C386.939 140.338 386.93 141.077 386.911 141.76C386.857 143.777 385.164 145.282 383.147 145.282H288.172C285.963 145.282 284.172 143.491 284.172 141.282V135.197C284.172 132.988 285.963 131.197 288.172 131.197H374.904C377.679 131.197 379.05 134.567 377.065 136.505L372.371 141.084C372.162 141.288 371.811 141.14 371.811 140.848V140.848C371.811 126.067 368.246 114.417 361.117 105.897C354.161 97.2024 344.598 92.8552 332.426 92.8552C323.905 92.8552 316.341 94.8549 309.734 98.8543C303.3 102.68 298.257 108.157 294.606 115.287C291.128 122.416 289.389 130.588 289.389 139.804C289.389 148.673 291.215 156.671 294.866 163.801C298.518 170.756 303.561 176.234 309.994 180.233C316.602 184.232 324.079 186.232 332.426 186.232C337.816 186.232 342.772 185.363 347.293 183.624C350.357 182.489 353.087 181.132 355.484 179.553C357.475 178.242 360.235 178.543 361.613 180.488L365.688 186.241Z" fill="#4E3535"/>
<path d="M458.92 198.23C457.216 198.23 455.701 197.149 455.13 195.544C452.488 188.13 449.847 181.548 447.205 175.799L407.939 86.4667C406.777 83.8232 408.713 80.8571 411.6 80.8571H418.713C420.458 80.8571 421.997 81.9884 422.56 83.6402C424.71 89.9488 427.969 98.1501 432.338 108.244L469.271 192.626C470.427 195.269 468.491 198.23 465.606 198.23H458.92ZM430.45 135.614C432.513 133.467 436.115 134.247 437.106 137.055L438.826 141.928C439.326 143.346 438.989 144.925 437.953 146.015L409.646 175.799C402.685 183.408 396.477 190.413 391.023 196.816C390.26 197.712 389.144 198.23 387.968 198.23H379.654C376.128 198.23 374.327 194 376.77 191.458L430.45 135.614ZM436.824 135.387C436.314 133.941 436.675 132.331 437.754 131.241L462.334 106.418C469.128 99.292 476.555 91.2179 484.614 82.1962C485.374 81.3452 486.461 80.8571 487.602 80.8571H495.328C498.872 80.8571 500.665 85.1256 498.184 87.6569L445.177 141.741C443.105 143.856 439.534 143.064 438.549 140.273L436.824 135.387Z" fill="#4E3535"/>
<path d="M630.621 139.544C630.621 151.02 628.013 161.453 622.796 170.843C617.753 180.233 610.711 187.623 601.669 193.014C592.801 198.23 582.889 200.838 571.934 200.838C558.024 200.838 546.025 197.187 535.94 189.884C526.413 182.697 520.019 173.02 516.758 160.853C516.555 160.099 517.13 159.367 517.911 159.367V159.367C518.711 159.367 519.289 160.133 519.069 160.902L500.206 226.921C498.989 231.616 497.859 235.877 496.816 239.702C495.772 243.701 494.729 247.614 493.686 251.439V251.439C493.535 252.342 492.754 253.004 491.838 253.004H481.848C479.093 253.004 477.162 250.284 478.073 247.683L479.862 242.571C480.731 239.963 481.601 237.268 482.47 234.485C483.339 231.877 484.122 229.182 484.818 226.4L521.334 97.811V97.811C520.558 102.242 514.03 101.675 514.03 97.1768V84.8571C514.03 82.6479 515.821 80.8571 518.03 80.8571H525.158C527.368 80.8571 529.158 82.6479 529.158 84.8571V101.205C529.158 102.067 528.459 102.767 527.596 102.767V102.767C526.415 102.767 525.67 101.51 526.303 100.513C530.184 94.4004 536.005 89.3263 543.765 85.2912C552.633 80.5962 561.849 78.2488 571.413 78.2488C582.541 78.2488 592.54 80.944 601.408 86.3345C610.45 91.5511 617.58 98.8543 622.796 108.244C628.013 117.634 630.621 128.067 630.621 139.544ZM526.55 139.544C526.55 148.412 528.376 156.411 532.028 163.54C535.679 170.495 540.809 176.06 547.417 180.233C554.198 184.232 562.023 186.232 570.891 186.232C579.412 186.232 586.976 184.232 593.583 180.233C600.365 176.06 605.581 170.408 609.233 163.279C613.059 156.15 614.971 148.238 614.971 139.544C614.971 130.502 613.145 122.503 609.494 115.547C605.842 108.418 600.626 102.854 593.844 98.8543C587.236 94.8549 579.585 92.8552 570.891 92.8552C562.023 92.8552 554.198 94.8549 547.417 98.8543C540.809 102.854 535.679 108.418 532.028 115.547C528.376 122.503 526.55 130.502 526.55 139.544Z" fill="#4E3535"/>
<path d="M637.517 198.23C634.739 198.23 632.806 195.466 633.719 192.842C636.194 185.721 638.336 178.823 640.144 172.147L682.659 23.7355C684.969 15.5073 686.739 8.65728 687.97 3.18537C688.387 1.33343 690.02 0 691.918 0H699.784C702.443 0 704.361 2.54541 703.629 5.10119L655.794 172.147C653.391 180.855 651.378 188.526 649.754 195.16C649.313 196.959 647.705 198.23 645.853 198.23H637.517Z" fill="#4E3535"/>
<path d="M744.087 200.838C732.784 200.838 722.525 198.23 713.309 193.014C704.267 187.623 697.137 180.32 691.921 171.104C686.704 161.714 684.096 151.194 684.096 139.544C684.096 127.893 686.704 117.46 691.921 108.244C697.137 98.8543 704.267 91.5511 713.309 86.3345C722.525 80.944 732.784 78.2488 744.087 78.2488C755.563 78.2488 765.822 80.944 774.865 86.3345C784.08 91.5511 791.297 98.8543 796.513 108.244C801.73 117.46 804.338 127.893 804.338 139.544C804.338 151.194 801.73 161.714 796.513 171.104C791.297 180.32 784.08 187.623 774.865 193.014C765.822 198.23 755.563 200.838 744.087 200.838ZM744.348 186.232C752.868 186.232 760.432 184.232 767.04 180.233C773.821 176.06 779.125 170.408 782.95 163.279C786.776 156.15 788.688 148.238 788.688 139.544C788.688 130.675 786.776 122.677 782.95 115.547C779.125 108.418 773.821 102.854 767.04 98.8543C760.432 94.8549 752.868 92.8552 744.348 92.8552C735.827 92.8552 728.176 94.8549 721.395 98.8543C714.613 102.854 709.31 108.418 705.484 115.547C701.659 122.677 699.746 130.675 699.746 139.544C699.746 148.412 701.659 156.411 705.484 163.54C709.31 170.495 714.613 176.06 721.395 180.233C728.176 184.232 735.827 186.232 744.348 186.232Z" fill="#4E3535"/>
<path d="M811.22 198.23C808.45 198.23 806.505 195.48 807.388 192.854C808.86 188.48 810.762 182.621 813.093 175.277L813.875 172.147L833.177 104.593C835.239 97.2259 836.865 90.421 838.054 84.1779C838.419 82.2629 840.08 80.8571 842.029 80.8571H848.319C850.946 80.8571 852.86 83.346 852.185 85.8847L848.241 100.72C848.125 101.158 847.729 101.463 847.276 101.463V101.463C846.542 101.463 846.061 100.699 846.401 100.05C849.538 94.0701 854.172 89.0637 860.303 85.0303C867.084 80.5093 874.388 78.2488 882.213 78.2488C887.583 78.2488 892.176 78.8708 895.992 80.1149C897.864 80.7253 898.75 82.7683 898.184 84.6543L895.781 92.6638C895.087 94.977 892.518 96.1351 890.211 95.4195C886.382 94.2316 882.325 93.6377 878.039 93.6377C870.388 93.6377 863.346 96.246 856.912 101.463C850.652 106.679 846.044 114.504 843.088 124.937L829.525 172.147C828.482 175.973 827.438 179.885 826.395 183.885C825.386 187.586 824.376 191.368 823.367 195.231C823.299 195.491 823.272 195.682 823.253 195.949V195.949C823.158 197.3 821.83 198.23 820.476 198.23H811.22Z" fill="#4E3535"/>
</g>
<defs>
<filter id="filter0_di_2004_16161" x="0.625977" y="5.75085" width="243.297" height="247.254" filterUnits="userSpaceOnUse" color-interpolation-filters="sRGB">
<feFlood flood-opacity="0" result="BackgroundImageFix"/>
<feColorMatrix in="SourceAlpha" type="matrix" values="0 0 0 0 0 0 0 0 0 0 0 0 0 0 0 0 0 0 127 0" result="hardAlpha"/>
<feOffset dy="0.996"/>
<feComposite in2="hardAlpha" operator="out"/>
<feColorMatrix type="matrix" values="0 0 0 0 1 0 0 0 0 1 0 0 0 0 1 0 0 0 0.43 0"/>
<feBlend mode="normal" in2="BackgroundImageFix" result="effect1_dropShadow_2004_16161"/>
<feBlend mode="normal" in="SourceGraphic" in2="effect1_dropShadow_2004_16161" result="shape"/>
<feColorMatrix in="SourceAlpha" type="matrix" values="0 0 0 0 0 0 0 0 0 0 0 0 0 0 0 0 0 0 127 0" result="hardAlpha"/>
<feOffset dy="4.59406"/>
<feGaussianBlur stdDeviation="2.29703"/>
<feComposite in2="hardAlpha" operator="arithmetic" k2="-1" k3="1"/>
<feColorMatrix type="matrix" values="0 0 0 0 0 0 0 0 0 0 0 0 0 0 0 0 0 0 0.59 0"/>
<feBlend mode="normal" in2="shape" result="effect2_innerShadow_2004_16161"/>
</filter>
<filter id="filter1_di_2004_16161" x="274" y="0" width="624.353" height="257.004" filterUnits="userSpaceOnUse" color-interpolation-filters="sRGB">
<feFlood flood-opacity="0" result="BackgroundImageFix"/>
<feColorMatrix in="SourceAlpha" type="matrix" values="0 0 0 0 0 0 0 0 0 0 0 0 0 0 0 0 0 0 127 0" result="hardAlpha"/>
<feOffset dy="2"/>
<feComposite in2="hardAlpha" operator="out"/>
<feColorMatrix type="matrix" values="0 0 0 0 1 0 0 0 0 1 0 0 0 0 1 0 0 0 0.27 0"/>
<feBlend mode="normal" in2="BackgroundImageFix" result="effect1_dropShadow_2004_16161"/>
<feBlend mode="normal" in="SourceGraphic" in2="effect1_dropShadow_2004_16161" result="shape"/>
<feColorMatrix in="SourceAlpha" type="matrix" values="0 0 0 0 0 0 0 0 0 0 0 0 0 0 0 0 0 0 127 0" result="hardAlpha"/>
<feOffset dy="4"/>
<feGaussianBlur stdDeviation="2"/>
<feComposite in2="hardAlpha" operator="arithmetic" k2="-1" k3="1"/>
<feColorMatrix type="matrix" values="0 0 0 0 0 0 0 0 0 0 0 0 0 0 0 0 0 0 0.63 0"/>
<feBlend mode="normal" in2="shape" result="effect2_innerShadow_2004_16161"/>
</filter>
</defs>
</svg>
