<svg width="899" height="256" viewBox="0 0 899 256" fill="none" xmlns="http://www.w3.org/2000/svg">
<g filter="url(#filter0_ddiii_2004_16162)">
<path fill-rule="evenodd" clip-rule="evenodd" d="M109.592 7.4685C111.736 6.10582 114.579 6.74137 115.938 8.8872L163.594 84.1222C164.436 85.452 165.901 86.2579 167.475 86.2579H238.703C241.241 86.2579 243.297 88.3147 243.297 90.852V94.3836C243.297 96.9208 241.241 98.9777 238.703 98.9777H231.848C229.304 98.9777 227.26 101.049 227.088 103.588C226.136 117.589 220.596 131.914 210.525 146.554C206.032 153.467 200.91 159.737 195.283 165.342C194.663 166.009 194.034 166.675 193.396 167.341C169.199 192.615 131.787 219.119 81.2106 246.854L77.6032 248.831C74.0574 250.775 69.9109 247.521 70.957 243.615L82.9187 198.95C83.5714 196.513 82.1331 194.014 79.73 193.246C72.0588 190.792 64.5377 187.489 57.2911 183.303C30.9038 168.061 12.7874 143.824 4.7317 116.618C-3.31977 89.4136 -1.32834 59.2278 12.4954 32.0869L13.3304 30.4478C14.5253 28.1023 17.4426 27.2384 19.7219 28.5551L21.3162 29.4761L64.6489 54.5054C67.1467 55.9482 70.3355 54.7553 71.4401 52.0907C74.2578 45.294 77.8563 38.856 82.1542 32.9032C89.119 23.253 97.8899 14.908 108.11 8.41082L109.592 7.4685ZM115.466 10.9955C114.107 8.84935 111.264 8.21359 109.121 9.57637L108.929 9.69848C98.8743 16.0902 90.2448 24.3004 83.3914 33.7962C77.9207 41.3734 73.6018 49.7493 70.6082 58.654V58.654C70.4546 59.111 69.921 59.3127 69.5035 59.0715L20.553 30.7973L20.3514 30.6809C18.0721 29.3642 15.1547 30.2281 13.9599 32.5736L13.855 32.7794C0.215324 59.5589 -1.75013 89.3406 6.19476 116.185C14.1436 143.03 32.018 166.943 58.0543 181.981C66.7848 187.025 75.9174 190.768 85.2295 193.274V193.274C85.636 193.384 85.877 193.802 85.7681 194.208L73.3547 240.56C72.3086 244.466 76.4551 247.721 80.0009 245.777L80.4769 245.516C130.993 217.814 168.251 191.398 192.294 166.286C192.93 165.621 193.557 164.957 194.177 164.292L194.196 164.271C199.754 158.735 204.814 152.543 209.252 145.714L209.263 145.697C220.503 129.359 225.953 113.542 225.701 98.2294V98.2294C225.698 98.0244 225.777 97.8267 225.921 97.6808V97.6808V97.6808C226.066 97.5343 226.263 97.4519 226.469 97.4519H237.178C239.715 97.4519 241.772 95.395 241.772 92.8578V92.3778C241.772 89.8406 239.715 87.7837 237.178 87.7837H166.635C165.061 87.7837 163.597 86.9778 162.754 85.648L115.589 11.1888L115.466 10.9955ZM109.435 21.0445C109.791 20.7829 110.294 20.8778 110.531 21.2512L148.209 80.7334C150.146 83.7922 147.948 87.7858 144.328 87.7858H120.445C119.638 87.7858 118.846 87.5734 118.147 87.1699L79.3978 64.789C79.0904 64.6114 78.946 64.2452 79.0497 63.9056V63.9056C81.7444 55.0781 85.8624 46.8115 91.1982 39.4197C96.2307 32.4498 102.366 26.2346 109.435 21.0445V21.0445ZM112.341 26.9605C110.907 24.6968 107.84 24.1275 105.797 25.8617C100.744 30.1515 96.2643 35.0098 92.4353 40.3129C88.0248 46.4228 84.4617 53.142 81.8666 60.2865C81.1323 62.308 82.0121 64.5369 83.8745 65.6126L118.556 85.6441C119.255 86.0476 120.047 86.26 120.854 86.26H141.555C145.176 86.26 147.373 82.2664 145.436 79.2076L112.341 26.9605ZM19.9213 42.5186C20.1043 42.1028 20.6078 41.9381 21.0012 42.1653L109.306 93.1699C111.106 94.2096 111.984 96.3286 111.446 98.3366L88.6524 183.441C88.5433 183.848 88.1245 184.09 87.7173 183.98V183.98C79.1924 181.687 70.8319 178.259 62.8435 173.645C39.0521 159.903 22.7145 138.032 15.4433 113.475C8.69881 90.6973 9.76455 65.5984 19.9213 42.5186V42.5186ZM25.4535 46.499C23.0716 45.1232 20.014 46.1335 19.0558 48.7119C11.1915 69.8738 10.8007 92.4215 16.9063 113.041C24.0709 137.239 40.1667 158.785 63.6067 172.324C69.8556 175.933 76.3345 178.805 82.9413 180.966C85.3675 181.76 87.9153 180.295 88.5757 177.829L109.669 99.0724C110.207 97.0644 109.33 94.9455 107.53 93.9057L25.4535 46.499ZM150.794 106.028C146.725 103.678 148.392 97.456 153.092 97.456H215.281C215.697 97.456 216.036 97.7885 216.044 98.2039V98.2039C216.282 110.316 212.283 122.914 204.126 135.98V135.98C203.986 136.203 203.741 136.339 203.477 136.339V136.339C203.343 136.339 203.211 136.303 203.094 136.236L150.794 106.028ZM158.784 98.9818C154.085 98.9818 152.417 105.203 156.487 107.554L199.348 132.311C201.503 133.555 204.269 132.863 205.476 130.687C210.664 121.333 213.612 112.287 214.346 103.548C214.557 101.028 212.484 98.9818 209.956 98.9818H158.784ZM119.462 105.715C120.244 102.796 123.582 101.414 126.198 102.925L197.494 144.105C197.892 144.335 197.998 144.862 197.72 145.227V145.227C194.601 149.332 191.084 153.483 187.171 157.681L187.15 157.703C173.535 171.17 156.681 180.318 138.677 184.642C125.838 187.725 112.412 188.362 99.1543 186.37C98.9271 186.335 98.7651 186.131 98.7827 185.902L98.7863 185.856C98.8004 185.672 98.6815 185.504 98.5033 185.456V185.456C98.2988 185.401 98.1775 185.191 98.2322 184.987L119.462 105.715ZM101.164 179.937C100.453 182.593 102.219 185.284 104.956 185.541C116.189 186.597 127.468 185.765 138.32 183.159C156.055 178.899 172.656 169.89 186.066 156.629C188.426 154.097 190.639 151.584 192.704 149.09C194.476 146.95 193.842 143.758 191.436 142.368L127.157 105.241C124.541 103.73 121.203 105.113 120.422 108.031L101.164 179.937ZM140.898 194.004C141.477 193.865 142.055 193.72 142.633 193.571C143.054 193.463 143.494 193.667 143.679 194.06V194.06C143.865 194.454 143.745 194.922 143.392 195.176C127.344 206.718 108.664 218.539 87.3471 230.639V230.639C86.7584 230.973 86.0585 230.432 86.2336 229.778L95.1367 196.538C95.1884 196.345 95.3867 196.23 95.5798 196.282V196.282C95.7863 196.337 95.9955 196.202 96.0304 195.991V195.991C96.0631 195.793 96.2499 195.66 96.4476 195.692C111.345 198.106 126.461 197.471 140.898 194.004ZM100.625 197.826C98.2897 197.541 96.0632 198.976 95.4545 201.249L91.028 217.776C89.9721 221.718 94.1892 224.96 97.706 222.889C105.807 218.118 113.489 213.393 120.751 208.714C124.976 205.991 122.04 198.523 117.015 198.636C111.563 198.759 106.086 198.492 100.625 197.826Z" fill="#97EABC"/>
<path fill-rule="evenodd" clip-rule="evenodd" d="M108.929 9.69848L109.121 9.57637C111.264 8.21359 114.107 8.84935 115.466 10.9955L115.589 11.1888L162.754 85.648C163.597 86.9778 165.061 87.7837 166.635 87.7837H237.178C239.715 87.7837 241.772 89.8406 241.772 92.3778V92.8578C241.772 95.395 239.715 97.4519 237.178 97.4519H226.469C226.263 97.4519 226.066 97.5343 225.921 97.6808V97.6808V97.6808C225.777 97.8267 225.698 98.0244 225.701 98.2294V98.2294C225.953 113.542 220.503 129.359 209.263 145.697L209.252 145.714C204.814 152.543 199.754 158.735 194.196 164.271L194.177 164.292C193.557 164.957 192.93 165.621 192.294 166.286C168.251 191.398 130.993 217.814 80.4769 245.516L80.0009 245.777C76.4551 247.721 72.3086 244.466 73.3547 240.56L85.7681 194.208C85.877 193.802 85.636 193.384 85.2295 193.274V193.274C75.9174 190.768 66.7848 187.025 58.0543 181.981C32.018 166.943 14.1436 143.03 6.19476 116.185C-1.75013 89.3406 0.215324 59.5589 13.855 32.7794L13.9599 32.5736C15.1547 30.2281 18.0721 29.3642 20.3514 30.6809L20.553 30.7973L69.5035 59.0715C69.921 59.3127 70.4546 59.111 70.6082 58.654V58.654C73.6018 49.7493 77.9207 41.3734 83.3914 33.7962C90.2448 24.3004 98.8743 16.0902 108.929 9.69848ZM79.3978 64.789C79.0904 64.6114 78.946 64.2452 79.0497 63.9056V63.9056C81.7444 55.0781 85.8624 46.8115 91.1982 39.4197C96.2307 32.4498 102.366 26.2346 109.435 21.0445V21.0445C109.791 20.7829 110.294 20.8778 110.531 21.2512L148.209 80.7334C150.146 83.7922 147.948 87.7858 144.328 87.7858H120.445C119.638 87.7858 118.846 87.5734 118.147 87.1699L79.3978 64.789ZM88.6524 183.441C88.5433 183.848 88.1245 184.09 87.7173 183.98V183.98C79.1924 181.687 70.8319 178.259 62.8435 173.645C39.0521 159.903 22.7145 138.032 15.4433 113.475C8.69881 90.6973 9.76455 65.5984 19.9213 42.5186V42.5186C20.1043 42.1028 20.6078 41.9381 21.0012 42.1653L109.306 93.1699C111.106 94.2096 111.984 96.3286 111.446 98.3366L88.6524 183.441ZM215.281 97.456C215.697 97.456 216.036 97.7885 216.044 98.2039V98.2039C216.282 110.316 212.283 122.914 204.126 135.98V135.98C203.986 136.203 203.741 136.339 203.477 136.339V136.339C203.343 136.339 203.211 136.303 203.094 136.236L150.794 106.028C146.725 103.678 148.392 97.456 153.092 97.456H215.281ZM197.494 144.105C197.892 144.335 197.998 144.862 197.72 145.227V145.227C194.601 149.332 191.084 153.483 187.171 157.681L187.15 157.703C173.535 171.17 156.681 180.318 138.677 184.642C125.838 187.725 112.412 188.362 99.1543 186.37C98.9271 186.335 98.7651 186.131 98.7827 185.902L98.7863 185.856C98.8004 185.672 98.6815 185.504 98.5033 185.456V185.456C98.2988 185.401 98.1775 185.191 98.2322 184.987L119.462 105.715C120.244 102.796 123.582 101.414 126.198 102.925L197.494 144.105ZM140.898 194.004C141.477 193.865 142.055 193.72 142.633 193.571C143.054 193.463 143.494 193.667 143.679 194.06V194.06C143.865 194.454 143.745 194.922 143.392 195.176C127.344 206.718 108.664 218.539 87.3471 230.639V230.639C86.7584 230.973 86.0585 230.432 86.2336 229.778L95.1367 196.538C95.1884 196.345 95.3867 196.23 95.5798 196.282V196.282C95.7863 196.337 95.9955 196.202 96.0304 195.991V195.991C96.0631 195.793 96.2499 195.66 96.4476 195.692C111.345 198.106 126.461 197.471 140.898 194.004Z" fill="#97EABC"/>
</g>
<g filter="url(#filter1_ddiii_2004_16162)">
<path d="M364.25 187.241C365.487 188.987 365.139 191.411 363.361 192.601C359.466 195.207 355.196 197.33 350.55 198.969C344.638 200.882 338.118 201.838 330.988 201.838C319.686 201.838 309.6 199.23 300.732 194.014C291.864 188.623 284.908 181.32 279.866 172.104C274.997 162.714 272.562 152.194 272.562 140.544C272.562 128.893 275.084 118.46 280.127 109.244C285.169 99.8543 292.125 92.5511 300.993 87.3345C310.035 81.944 320.033 79.2488 330.988 79.2488C341.595 79.2488 350.985 81.8571 359.158 87.0737C367.504 92.1163 373.938 99.3326 378.459 108.722C383.154 117.938 385.502 128.545 385.502 140.544C385.502 141.338 385.492 142.077 385.474 142.76C385.419 144.777 383.727 146.282 381.71 146.282H286.735C284.526 146.282 282.735 144.491 282.735 142.282V136.197C282.735 133.988 284.526 132.197 286.735 132.197H373.467C376.241 132.197 377.613 135.567 375.627 137.505L370.934 142.084C370.725 142.288 370.373 142.14 370.373 141.848V141.848C370.373 127.067 366.809 115.417 359.679 106.897C352.724 98.2024 343.16 93.8552 330.988 93.8552C322.468 93.8552 314.904 95.8549 308.296 99.8543C301.862 103.68 296.82 109.157 293.168 116.287C289.69 123.416 287.951 131.588 287.951 140.804C287.951 149.673 289.777 157.671 293.429 164.801C297.08 171.756 302.123 177.234 308.557 181.233C315.165 185.232 322.642 187.232 330.988 187.232C336.379 187.232 341.334 186.363 345.855 184.624C348.919 183.489 351.65 182.132 354.047 180.553C356.037 179.242 358.797 179.543 360.175 181.488L364.25 187.241Z" fill="#97EABC"/>
<path d="M457.482 199.23C455.778 199.23 454.264 198.149 453.692 196.544C451.051 189.13 448.409 182.548 445.768 176.799L406.501 87.4667C405.339 84.8232 407.275 81.8571 410.163 81.8571H417.275C419.02 81.8571 420.559 82.9884 421.122 84.6402C423.272 90.9488 426.532 99.1501 430.901 109.244L467.833 193.626C468.99 196.269 467.054 199.23 464.169 199.23H457.482ZM429.013 136.614C431.076 134.467 434.677 135.247 435.668 138.055L437.388 142.928C437.889 144.346 437.552 145.925 436.516 147.015L408.209 176.799C401.247 184.408 395.04 191.413 389.586 197.816C388.823 198.712 387.707 199.23 386.53 199.23H378.217C374.691 199.23 372.89 195 375.333 192.458L429.013 136.614ZM435.387 136.387C434.876 134.941 435.238 133.331 436.316 132.241L460.896 107.418C467.691 100.292 475.118 92.2179 483.176 83.1962C483.936 82.3452 485.023 81.8571 486.164 81.8571H493.89C497.434 81.8571 499.228 86.1256 496.747 88.6569L443.74 142.741C441.668 144.856 438.096 144.064 437.111 141.273L435.387 136.387Z" fill="#97EABC"/>
<path d="M629.184 140.544C629.184 152.02 626.575 162.453 621.359 171.843C616.316 181.233 609.274 188.623 600.231 194.014C591.363 199.23 581.452 201.838 570.497 201.838C556.586 201.838 544.588 198.187 534.503 190.884C524.976 183.697 518.582 174.02 515.32 161.853C515.118 161.099 515.693 160.367 516.473 160.367V160.367C517.274 160.367 517.851 161.133 517.632 161.902L498.769 227.921C497.552 232.616 496.421 236.877 495.378 240.702C494.335 244.701 493.292 248.614 492.248 252.439V252.439C492.098 253.342 491.316 254.004 490.401 254.004H480.411C477.655 254.004 475.725 251.284 476.635 248.683L478.424 243.571C479.294 240.963 480.163 238.268 481.033 235.485C481.902 232.877 482.684 230.182 483.38 227.4L519.896 98.811V98.811C519.121 103.242 512.593 102.675 512.593 98.1768V85.8571C512.593 83.6479 514.384 81.8571 516.593 81.8571H523.721C525.93 81.8571 527.721 83.6479 527.721 85.8571V102.205C527.721 103.067 527.022 103.767 526.159 103.767V103.767C524.978 103.767 524.232 102.51 524.865 101.513C528.747 95.4004 534.567 90.3263 542.327 86.2912C551.196 81.5962 560.412 79.2488 569.975 79.2488C581.104 79.2488 591.102 81.944 599.971 87.3345C609.013 92.5511 616.142 99.8543 621.359 109.244C626.575 118.634 629.184 129.067 629.184 140.544ZM525.113 140.544C525.113 149.412 526.938 157.411 530.59 164.54C534.242 171.495 539.371 177.06 545.979 181.233C552.761 185.232 560.585 187.232 569.454 187.232C577.974 187.232 585.538 185.232 592.146 181.233C598.927 177.06 604.144 171.408 607.796 164.279C611.621 157.15 613.534 149.238 613.534 140.544C613.534 131.502 611.708 123.503 608.056 116.547C604.405 109.418 599.188 103.854 592.407 99.8543C585.799 95.8549 578.148 93.8552 569.454 93.8552C560.585 93.8552 552.761 95.8549 545.979 99.8543C539.371 103.854 534.242 109.418 530.59 116.547C526.938 123.503 525.113 131.502 525.113 140.544Z" fill="#97EABC"/>
<path d="M636.08 199.23C633.301 199.23 631.369 196.466 632.281 193.842C634.757 186.721 636.898 179.823 638.706 173.147L681.221 24.7355C683.531 16.5073 685.302 9.65728 686.533 4.18537C686.949 2.33343 688.583 1 690.481 1H698.347C701.005 1 702.924 3.54541 702.192 6.10119L654.356 173.147C651.954 181.855 649.941 189.526 648.316 196.16C647.876 197.959 646.267 199.23 644.415 199.23H636.08Z" fill="#97EABC"/>
<path d="M742.649 201.838C731.347 201.838 721.087 199.23 711.871 194.014C702.829 188.623 695.7 181.32 690.483 172.104C685.267 162.714 682.658 152.194 682.658 140.544C682.658 128.893 685.267 118.46 690.483 109.244C695.7 99.8543 702.829 92.5511 711.871 87.3345C721.087 81.944 731.347 79.2488 742.649 79.2488C754.126 79.2488 764.385 81.944 773.427 87.3345C782.643 92.5511 789.859 99.8543 795.076 109.244C800.292 118.46 802.901 128.893 802.901 140.544C802.901 152.194 800.292 162.714 795.076 172.104C789.859 181.32 782.643 188.623 773.427 194.014C764.385 199.23 754.126 201.838 742.649 201.838ZM742.91 187.232C751.43 187.232 758.994 185.232 765.602 181.233C772.384 177.06 777.687 171.408 781.513 164.279C785.338 157.15 787.251 149.238 787.251 140.544C787.251 131.675 785.338 123.677 781.513 116.547C777.687 109.418 772.384 103.854 765.602 99.8543C758.994 95.8549 751.43 93.8552 742.91 93.8552C734.39 93.8552 726.739 95.8549 719.957 99.8543C713.176 103.854 707.872 109.418 704.047 116.547C700.221 123.677 698.308 131.675 698.308 140.544C698.308 149.412 700.221 157.411 704.047 164.54C707.872 171.495 713.176 177.06 719.957 181.233C726.739 185.232 734.39 187.232 742.91 187.232Z" fill="#97EABC"/>
<path d="M809.783 199.23C807.012 199.23 805.067 196.48 805.951 193.854C807.423 189.48 809.324 183.621 811.655 176.277L812.438 173.147L831.739 105.593C833.802 98.2259 835.428 91.421 836.616 85.1779C836.981 83.2629 838.642 81.8571 840.592 81.8571H846.882C849.508 81.8571 851.422 84.346 850.747 86.8847L846.804 101.72C846.687 102.158 846.291 102.463 845.838 102.463V102.463C845.105 102.463 844.623 101.699 844.964 101.05C848.101 95.0701 852.735 90.0637 858.865 86.0303C865.647 81.5093 872.95 79.2488 880.775 79.2488C886.146 79.2488 890.739 79.8708 894.554 81.1149C896.427 81.7253 897.312 83.7683 896.746 85.6543L894.343 93.6638C893.65 95.977 891.08 97.1351 888.774 96.4195C884.945 95.2316 880.888 94.6377 876.602 94.6377C868.951 94.6377 861.908 97.246 855.475 102.463C849.215 107.679 844.607 115.504 841.651 125.937L828.088 173.147C827.044 176.973 826.001 180.885 824.958 184.885C823.948 188.586 822.939 192.368 821.93 196.231C821.862 196.491 821.835 196.682 821.816 196.949V196.949C821.721 198.3 820.393 199.23 819.039 199.23H809.783Z" fill="#97EABC"/>
</g>
<defs>
<filter id="filter0_ddiii_2004_16162" x="-3.44555" y="5.60234" width="249.04" height="246.105" filterUnits="userSpaceOnUse" color-interpolation-filters="sRGB">
<feFlood flood-opacity="0" result="BackgroundImageFix"/>
<feColorMatrix in="SourceAlpha" type="matrix" values="0 0 0 0 0 0 0 0 0 0 0 0 0 0 0 0 0 0 127 0" result="hardAlpha"/>
<feOffset dx="2.29703" dy="2.29703"/>
<feComposite in2="hardAlpha" operator="out"/>
<feColorMatrix type="matrix" values="0 0 0 0 0 0 0 0 0 0 0 0 0 0 0 0 0 0 1 0"/>
<feBlend mode="normal" in2="BackgroundImageFix" result="effect1_dropShadow_2004_16162"/>
<feColorMatrix in="SourceAlpha" type="matrix" values="0 0 0 0 0 0 0 0 0 0 0 0 0 0 0 0 0 0 127 0" result="hardAlpha"/>
<feOffset dy="-1.14852"/>
<feComposite in2="hardAlpha" operator="out"/>
<feColorMatrix type="matrix" values="0 0 0 0 0 0 0 0 0 0 0 0 0 0 0 0 0 0 1 0"/>
<feBlend mode="normal" in2="effect1_dropShadow_2004_16162" result="effect2_dropShadow_2004_16162"/>
<feBlend mode="normal" in="SourceGraphic" in2="effect2_dropShadow_2004_16162" result="shape"/>
<feColorMatrix in="SourceAlpha" type="matrix" values="0 0 0 0 0 0 0 0 0 0 0 0 0 0 0 0 0 0 127 0" result="hardAlpha"/>
<feOffset dx="-3.44555" dy="2.29703"/>
<feGaussianBlur stdDeviation="2.29703"/>
<feComposite in2="hardAlpha" operator="arithmetic" k2="-1" k3="1"/>
<feColorMatrix type="matrix" values="0 0 0 0 0 0 0 0 0 0 0 0 0 0 0 0 0 0 0.7 0"/>
<feBlend mode="normal" in2="shape" result="effect3_innerShadow_2004_16162"/>
<feColorMatrix in="SourceAlpha" type="matrix" values="0 0 0 0 0 0 0 0 0 0 0 0 0 0 0 0 0 0 127 0" result="hardAlpha"/>
<feOffset dy="1.14852"/>
<feGaussianBlur stdDeviation="0.516832"/>
<feComposite in2="hardAlpha" operator="arithmetic" k2="-1" k3="1"/>
<feColorMatrix type="matrix" values="0 0 0 0 1 0 0 0 0 1 0 0 0 0 1 0 0 0 0.13 0"/>
<feBlend mode="normal" in2="effect3_innerShadow_2004_16162" result="effect4_innerShadow_2004_16162"/>
<feColorMatrix in="SourceAlpha" type="matrix" values="0 0 0 0 0 0 0 0 0 0 0 0 0 0 0 0 0 0 127 0" result="hardAlpha"/>
<feOffset dy="1.14852"/>
<feComposite in2="hardAlpha" operator="arithmetic" k2="-1" k3="1"/>
<feColorMatrix type="matrix" values="0 0 0 0 0.829167 0 0 0 0 0.794618 0 0 0 0 0.794618 0 0 0 1 0"/>
<feBlend mode="normal" in2="effect4_innerShadow_2004_16162" result="effect5_innerShadow_2004_16162"/>
</filter>
<filter id="filter1_ddiii_2004_16162" x="269.562" y="0" width="629.353" height="256.004" filterUnits="userSpaceOnUse" color-interpolation-filters="sRGB">
<feFlood flood-opacity="0" result="BackgroundImageFix"/>
<feColorMatrix in="SourceAlpha" type="matrix" values="0 0 0 0 0 0 0 0 0 0 0 0 0 0 0 0 0 0 127 0" result="hardAlpha"/>
<feOffset dx="2" dy="2"/>
<feComposite in2="hardAlpha" operator="out"/>
<feColorMatrix type="matrix" values="0 0 0 0 0 0 0 0 0 0 0 0 0 0 0 0 0 0 1 0"/>
<feBlend mode="normal" in2="BackgroundImageFix" result="effect1_dropShadow_2004_16162"/>
<feColorMatrix in="SourceAlpha" type="matrix" values="0 0 0 0 0 0 0 0 0 0 0 0 0 0 0 0 0 0 127 0" result="hardAlpha"/>
<feOffset dy="-1"/>
<feComposite in2="hardAlpha" operator="out"/>
<feColorMatrix type="matrix" values="0 0 0 0 0 0 0 0 0 0 0 0 0 0 0 0 0 0 1 0"/>
<feBlend mode="normal" in2="effect1_dropShadow_2004_16162" result="effect2_dropShadow_2004_16162"/>
<feBlend mode="normal" in="SourceGraphic" in2="effect2_dropShadow_2004_16162" result="shape"/>
<feColorMatrix in="SourceAlpha" type="matrix" values="0 0 0 0 0 0 0 0 0 0 0 0 0 0 0 0 0 0 127 0" result="hardAlpha"/>
<feOffset dx="-3" dy="2"/>
<feGaussianBlur stdDeviation="2"/>
<feComposite in2="hardAlpha" operator="arithmetic" k2="-1" k3="1"/>
<feColorMatrix type="matrix" values="0 0 0 0 0 0 0 0 0 0 0 0 0 0 0 0 0 0 0.7 0"/>
<feBlend mode="normal" in2="shape" result="effect3_innerShadow_2004_16162"/>
<feColorMatrix in="SourceAlpha" type="matrix" values="0 0 0 0 0 0 0 0 0 0 0 0 0 0 0 0 0 0 127 0" result="hardAlpha"/>
<feOffset dy="1"/>
<feGaussianBlur stdDeviation="0.45"/>
<feComposite in2="hardAlpha" operator="arithmetic" k2="-1" k3="1"/>
<feColorMatrix type="matrix" values="0 0 0 0 1 0 0 0 0 1 0 0 0 0 1 0 0 0 0.13 0"/>
<feBlend mode="normal" in2="effect3_innerShadow_2004_16162" result="effect4_innerShadow_2004_16162"/>
<feColorMatrix in="SourceAlpha" type="matrix" values="0 0 0 0 0 0 0 0 0 0 0 0 0 0 0 0 0 0 127 0" result="hardAlpha"/>
<feOffset dy="1"/>
<feComposite in2="hardAlpha" operator="arithmetic" k2="-1" k3="1"/>
<feColorMatrix type="matrix" values="0 0 0 0 0.829167 0 0 0 0 0.794618 0 0 0 0 0.794618 0 0 0 1 0"/>
<feBlend mode="normal" in2="effect4_innerShadow_2004_16162" result="effect5_innerShadow_2004_16162"/>
</filter>
</defs>
</svg>
