<svg width="49" height="48" viewBox="0 0 49 48" fill="none" xmlns="http://www.w3.org/2000/svg">
<rect x="0.0117188" width="48" height="48" rx="24" fill="#191919"/>
<g clip-path="url(#clip0_4486_6575)">
<mask id="mask0_4486_6575" style="mask-type:luminance" maskUnits="userSpaceOnUse" x="15" y="10" width="19" height="28">
<path d="M33.6676 10H15.001V38H33.6676V10Z" fill="white"/>
</mask>
<g mask="url(#mask0_4486_6575)">
<path d="M24.335 23.9999C24.335 22.7623 24.8266 21.5752 25.7018 20.7001C26.577 19.8249 27.764 19.3333 29.0016 19.3333C30.2393 19.3333 31.4263 19.8249 32.3015 20.7001C33.1766 21.5752 33.6683 22.7623 33.6683 23.9999C33.6683 25.2376 33.1766 26.4246 32.3015 27.2998C31.4263 28.1749 30.2393 28.6666 29.0016 28.6666C27.764 28.6666 26.577 28.1749 25.7018 27.2998C24.8266 26.4246 24.335 25.2376 24.335 23.9999Z" fill="#1ABCFE"/>
<path d="M15.001 33.3334C15.001 32.0958 15.4926 30.9087 16.3678 30.0336C17.243 29.1584 18.43 28.6667 19.6676 28.6667H24.3343V33.3334C24.3343 34.5711 23.8426 35.7581 22.9675 36.6332C22.0923 37.5084 20.9053 38.0001 19.6676 38.0001C18.43 38.0001 17.243 37.5084 16.3678 36.6332C15.4926 35.7581 15.001 34.5711 15.001 33.3334Z" fill="#0ACF83"/>
<path d="M24.335 10V19.3333H29.0016C30.2393 19.3333 31.4263 18.8417 32.3015 17.9665C33.1766 17.0913 33.6683 15.9043 33.6683 14.6667C33.6683 13.429 33.1766 12.242 32.3015 11.3668C31.4263 10.4917 30.2393 10 29.0016 10H24.335Z" fill="#FF7262"/>
<path d="M15.001 14.6667C15.001 15.9043 15.4926 17.0913 16.3678 17.9665C17.243 18.8417 18.43 19.3333 19.6676 19.3333H24.3343V10H19.6676C18.43 10 17.243 10.4917 16.3678 11.3668C15.4926 12.242 15.001 13.429 15.001 14.6667Z" fill="#F24E1E"/>
<path d="M15.001 23.9999C15.001 25.2376 15.4926 26.4246 16.3678 27.2998C17.243 28.1749 18.43 28.6666 19.6676 28.6666H24.3343V19.3333H19.6676C18.43 19.3333 17.243 19.8249 16.3678 20.7001C15.4926 21.5752 15.001 22.7623 15.001 23.9999Z" fill="#A259FF"/>
</g>
</g>
<defs>
<clipPath id="clip0_4486_6575">
<rect width="18.6667" height="28" fill="white" transform="translate(15 10)"/>
</clipPath>
</defs>
</svg>
