<svg width="48" height="49" viewBox="0 0 48 49" fill="none" xmlns="http://www.w3.org/2000/svg">
<g clip-path="url(#clip0_4487_6680)">
<rect y="0.0358887" width="48" height="48" rx="24" fill="url(#paint0_linear_4487_6680)"/>
<path d="M49.9274 23.7365C49.9275 25.7609 49.6839 27.778 49.2019 29.7449L37.5383 19.5685C37.2575 19.3258 36.9085 19.1749 36.5386 19.1362C36.1687 19.0975 35.7958 19.1728 35.4704 19.3519L28.7225 23.0869L20.1607 13.6502C19.8544 13.3149 19.4325 13.1065 18.9788 13.0664C18.5251 13.0263 18.0729 13.1574 17.7119 13.4337L-0.790253 27.6158C-1.23311 24.2022 -0.973015 20.7347 -0.0257922 17.4242C0.921431 14.1138 2.53597 11.0298 4.71955 8.35975C6.90314 5.68974 9.61009 3.48964 12.6757 1.89335C15.7412 0.297062 19.1013 -0.662027 22.5514 -0.925539C26.0014 -1.18905 29.4693 -0.751476 32.744 0.360553C36.0186 1.47258 39.0315 3.23581 41.5993 5.54291C44.1671 7.85002 46.236 10.6527 47.6803 13.7805C49.1245 16.9083 49.9137 20.2956 50 23.7365H49.9274ZM36.1052 23.123L31.2076 25.8295L34.7085 29.6908C34.9981 30.0495 35.139 30.5047 35.1024 30.9633C35.0658 31.4219 34.8545 31.8493 34.5116 32.1581C34.1688 32.4669 33.7203 32.6337 33.2579 32.6245C32.7955 32.6153 32.354 32.4307 32.0239 32.1086L18.6007 17.313L0.134856 31.459C7.37247 53.8327 38.935 55.1318 48.0047 33.4618L36.1052 23.123Z" fill="#2A2A2A"/>
</g>
<defs>
<linearGradient id="paint0_linear_4487_6680" x1="24" y1="0.0358887" x2="24" y2="48.0359" gradientUnits="userSpaceOnUse">
<stop stop-color="#6F6D78"/>
<stop offset="1" stop-color="#49474E"/>
</linearGradient>
<clipPath id="clip0_4487_6680">
<rect y="0.0358887" width="48" height="48" rx="24" fill="white"/>
</clipPath>
</defs>
</svg>
