<svg width="49" height="48" viewBox="0 0 49 48" fill="none" xmlns="http://www.w3.org/2000/svg">
<rect x="0.0117188" width="48" height="48" rx="24" fill="#222222"/>
<path fill-rule="evenodd" clip-rule="evenodd" d="M26.6978 10.605C26.5934 11.1298 26.3357 11.6119 25.9574 11.9903V17.5276L29.8729 13.6121C29.8729 13.077 30.0315 12.5539 30.3288 12.109C30.6261 11.6641 31.0487 11.3173 31.5431 11.1125C32.0374 10.9077 32.5814 10.8542 33.1063 10.9586C33.6311 11.063 34.1132 11.3206 34.4915 11.699C34.8699 12.0774 35.1276 12.5595 35.232 13.0843C35.3364 13.6091 35.2828 14.1531 35.078 14.6475C34.8733 15.1419 34.5265 15.5644 34.0816 15.8617C33.6366 16.159 33.1135 16.3177 32.5784 16.3177L28.6629 20.2332H34.2003C34.5787 19.8548 35.0608 19.5971 35.5856 19.4927C36.1104 19.3883 36.6544 19.4419 37.1488 19.6467C37.6432 19.8515 38.0657 20.1983 38.363 20.6432C38.6603 21.0881 38.819 21.6112 38.819 22.1463H9.26953C9.26954 21.6112 9.42821 21.0881 9.7255 20.6432C10.0228 20.1983 10.4453 19.8515 10.9397 19.6467C11.4341 19.4419 11.9781 19.3883 12.5029 19.4927C13.0277 19.5971 13.5098 19.8548 13.8882 20.2332H19.4255L15.51 16.3177C14.9749 16.3177 14.4518 16.159 14.0069 15.8617C13.562 15.5644 13.2152 15.1419 13.0104 14.6475C12.8056 14.1531 12.7521 13.6091 12.8565 13.0843C12.9608 12.5595 13.2185 12.0774 13.5969 11.699C13.9753 11.3206 14.4574 11.0629 14.9822 10.9586C15.507 10.8542 16.051 10.9077 16.5454 11.1125C17.0398 11.3173 17.4623 11.6641 17.7596 12.109C18.0569 12.5539 18.2156 13.077 18.2156 13.6121L22.1311 17.5277V11.9903C21.7527 11.6119 21.4951 11.1298 21.3907 10.605C21.2863 10.0801 21.3398 9.53614 21.5446 9.04177C21.7494 8.54739 22.0962 8.12484 22.5411 7.82755C22.986 7.53026 23.5091 7.37158 24.0442 7.37158C24.5793 7.37158 25.1024 7.53026 25.5474 7.82755C25.9923 8.12484 26.3391 8.54739 26.5438 9.04177C26.7486 9.53614 26.8022 10.0801 26.6978 10.605Z" fill="#FFB13B"/>
<path d="M12.0909 30.6715C11.2897 29.8706 10.7939 28.7646 10.7939 27.543C10.7939 25.0987 12.7764 23.1174 15.2195 23.1174C17.6637 23.1174 19.6462 25.0987 19.6462 27.543H17.0537C17.0537 26.5306 16.2321 25.7101 15.2195 25.7101C14.2071 25.7101 13.3866 26.5306 13.3866 27.543C13.3866 28.0487 13.5921 28.5068 13.9225 28.8375H13.9237C14.2556 29.1706 14.532 29.2669 15.2195 29.376C16.4423 29.5032 17.5483 29.8718 18.3492 30.6727C19.1504 31.4739 19.6462 32.5799 19.6462 33.8015C19.6462 36.2458 17.6637 38.2283 15.2195 38.2283C12.7764 38.2283 10.7939 36.2458 10.7939 33.8015H13.3866C13.3866 34.8139 14.2071 35.6356 15.2195 35.6356C16.2321 35.6356 17.0537 34.8139 17.0537 33.8015C17.0537 33.2958 16.8483 32.8389 16.5176 32.507H16.5164C16.1845 32.1751 15.7083 32.0607 15.2195 31.9697V31.9685C14.0343 31.7867 12.8918 31.4727 12.0909 30.6715Z" fill="white"/>
<path d="M28.4977 23.1174L25.367 38.2283H22.7745L19.6462 23.1174H22.2387L24.0732 31.9673L25.9053 23.1174H28.4977Z" fill="white"/>
<path d="M32.9247 29.376H37.3502V33.8015H37.3514C37.3514 36.246 35.369 38.2285 32.9247 38.2285C30.4802 38.2285 28.4992 36.246 28.4992 33.8015V27.5432H28.498C28.498 25.0989 30.4802 23.1177 32.9247 23.1177C35.3677 23.1177 37.3502 25.0989 37.3502 27.5432H34.7575C34.7575 26.5318 33.9359 25.7101 32.9247 25.7101C31.9121 25.7101 31.0916 26.5318 31.0916 27.5432V33.8015C31.0916 34.8141 31.9121 35.6346 32.9247 35.6346C33.9359 35.6346 34.7563 34.8141 34.7575 33.8028V31.9699H32.9247V29.376Z" fill="white"/>
</svg>
