<svg width="2400" height="764" viewBox="0 0 2400 764" fill="none" xmlns="http://www.w3.org/2000/svg">
<g clip-path="url(#clip0_1466_9384)">
<g style="mix-blend-mode:soft-light">
<path d="M262.354 30.3106V43.5339M262.354 43.5339V56.7572M262.354 43.5339H249.144M262.354 43.5339H275.565M262.354 382.932V396.155M262.354 396.155V409.379M262.354 396.155H249.144M262.354 396.155H275.565M262.354 735.553V748.777M262.354 748.777V762M262.354 748.777H249.144M262.354 748.777H275.565M614.641 30.3106V43.5339M614.641 43.5339V56.7572M614.641 43.5339H601.431M614.641 43.5339H627.852M614.641 382.932V396.155M614.641 396.155V409.379M614.641 396.155H601.431M614.641 396.155H627.852M614.641 735.553V748.777M614.641 748.777V762M614.641 748.777H601.431M614.641 748.777H627.852M966.928 30.3106V43.5339M966.928 43.5339V56.7572M966.928 43.5339H953.718M966.928 43.5339H980.139M966.928 382.932V396.155M966.928 396.155V409.379M966.928 396.155H953.718M966.928 396.155H980.139M966.928 735.553V748.777M966.928 748.777V762M966.928 748.777H953.718M966.928 748.777H980.139M1319.22 30.3106V43.5339M1319.22 43.5339V56.7572M1319.22 43.5339H1306M1319.22 43.5339H1332.43M1319.22 382.932V396.155M1319.22 396.155V409.379M1319.22 396.155H1306M1319.22 396.155H1332.43M1319.22 735.553V748.777M1319.22 748.777V762M1319.22 748.777H1306M1319.22 748.777H1332.43M1671.5 30.3106V43.5339M1671.5 43.5339V56.7572M1671.5 43.5339H1658.29M1671.5 43.5339H1684.71M1671.5 382.932V396.155M1671.5 396.155V409.379M1671.5 396.155H1658.29M1671.5 396.155H1684.71M1671.5 735.553V748.777M1671.5 748.777V762M1671.5 748.777H1658.29M1671.5 748.777H1684.71M2023.79 30.3106V43.5339M2023.79 43.5339V56.7572M2023.79 43.5339H2010.58M2023.79 43.5339H2037M2023.79 382.932V396.155M2023.79 396.155V409.379M2023.79 396.155H2010.58M2023.79 396.155H2037M2023.79 735.553V748.777M2023.79 748.777V762M2023.79 748.777H2010.58M2023.79 748.777H2037M262.354 -146V-132.777M262.354 -132.777V-119.553M262.354 -132.777H249.144M262.354 -132.777H275.565M262.354 206.621V219.845M262.354 219.845V233.068M262.354 219.845H249.144M262.354 219.845H275.565M262.354 559.243V572.466M262.354 572.466V585.689M262.354 572.466H249.144M262.354 572.466H275.565M614.641 -146V-132.777M614.641 -132.777V-119.553M614.641 -132.777H601.431M614.641 -132.777H627.852M614.641 206.621V219.845M614.641 219.845V233.068M614.641 219.845H601.431M614.641 219.845H627.852M614.641 559.243V572.466M614.641 572.466V585.689M614.641 572.466H601.431M614.641 572.466H627.852M966.928 -146V-132.777M966.928 -132.777V-119.553M966.928 -132.777H953.718M966.928 -132.777H980.139M966.928 206.621V219.845M966.928 219.845V233.068M966.928 219.845H953.718M966.928 219.845H980.139M966.928 559.243V572.466M966.928 572.466V585.689M966.928 572.466H953.718M966.928 572.466H980.139M1319.22 -146V-132.777M1319.22 -132.777V-119.553M1319.22 -132.777H1306M1319.22 -132.777H1332.43M1319.22 206.621V219.845M1319.22 219.845V233.068M1319.22 219.845H1306M1319.22 219.845H1332.43M1319.22 559.243V572.466M1319.22 572.466V585.689M1319.22 572.466H1306M1319.22 572.466H1332.43M1671.5 -146V-132.777M1671.5 -132.777V-119.553M1671.5 -132.777H1658.29M1671.5 -132.777H1684.71M1671.5 206.621V219.845M1671.5 219.845V233.068M1671.5 219.845H1658.29M1671.5 219.845H1684.71M1671.5 559.243V572.466M1671.5 572.466V585.689M1671.5 572.466H1658.29M1671.5 572.466H1684.71M2023.79 -146V-132.777M2023.79 -132.777V-119.553M2023.79 -132.777H2010.58M2023.79 -132.777H2037M2023.79 206.621V219.845M2023.79 219.845V233.068M2023.79 219.845H2010.58M2023.79 219.845H2037M2023.79 559.243V572.466M2023.79 572.466V585.689M2023.79 572.466H2010.58M2023.79 572.466H2037M86.2108 30.3106V43.5339M86.2108 43.5339V56.7572M86.2108 43.5339H73M86.2108 43.5339H99.4215M86.2108 382.932V396.155M86.2108 396.155V409.379M86.2108 396.155H73M86.2108 396.155H99.4215M86.2108 735.553V748.777M86.2108 748.777V762M86.2108 748.777H73M86.2108 748.777H99.4215M438.498 30.3106V43.5339M438.498 43.5339V56.7572M438.498 43.5339H425.287M438.498 43.5339H451.709M438.498 382.932V396.155M438.498 396.155V409.379M438.498 396.155H425.287M438.498 396.155H451.709M438.498 735.553V748.777M438.498 748.777V762M438.498 748.777H425.287M438.498 748.777H451.709M790.785 30.3106V43.5339M790.785 43.5339V56.7572M790.785 43.5339H777.574M790.785 43.5339H803.996M790.785 382.932V396.155M790.785 396.155V409.379M790.785 396.155H777.574M790.785 396.155H803.996M790.785 735.553V748.777M790.785 748.777V762M790.785 748.777H777.574M790.785 748.777H803.996M1143.07 30.3106V43.5339M1143.07 43.5339V56.7572M1143.07 43.5339H1129.86M1143.07 43.5339H1156.28M1143.07 382.932V396.155M1143.07 396.155V409.379M1143.07 396.155H1129.86M1143.07 396.155H1156.28M1143.07 735.553V748.777M1143.07 748.777V762M1143.07 748.777H1129.86M1143.07 748.777H1156.28M1495.36 30.3106V43.5339M1495.36 43.5339V56.7572M1495.36 43.5339H1482.15M1495.36 43.5339H1508.57M1495.36 382.932V396.155M1495.36 396.155V409.379M1495.36 396.155H1482.15M1495.36 396.155H1508.57M1495.36 735.553V748.777M1495.36 748.777V762M1495.36 748.777H1482.15M1495.36 748.777H1508.57M1847.65 30.3106V43.5339M1847.65 43.5339V56.7572M1847.65 43.5339H1834.43M1847.65 43.5339H1860.86M1847.65 382.932V396.155M1847.65 396.155V409.379M1847.65 396.155H1834.43M1847.65 396.155H1860.86M1847.65 735.553V748.777M1847.65 748.777V762M1847.65 748.777H1834.43M1847.65 748.777H1860.86M86.2108 -146V-132.777M86.2108 -132.777V-119.553M86.2108 -132.777H73M86.2108 -132.777H99.4215M86.2108 206.621V219.845M86.2108 219.845V233.068M86.2108 219.845H73M86.2108 219.845H99.4215M86.2108 559.243V572.466M86.2108 572.466V585.689M86.2108 572.466H73M86.2108 572.466H99.4215M438.498 -146V-132.777M438.498 -132.777V-119.553M438.498 -132.777H425.287M438.498 -132.777H451.709M438.498 206.621V219.845M438.498 219.845V233.068M438.498 219.845H425.287M438.498 219.845H451.709M438.498 559.243V572.466M438.498 572.466V585.689M438.498 572.466H425.287M438.498 572.466H451.709M790.785 -146V-132.777M790.785 -132.777V-119.553M790.785 -132.777H777.574M790.785 -132.777H803.996M790.785 206.621V219.845M790.785 219.845V233.068M790.785 219.845H777.574M790.785 219.845H803.996M790.785 559.243V572.466M790.785 572.466V585.689M790.785 572.466H777.574M790.785 572.466H803.996M1143.07 -146V-132.777M1143.07 -132.777V-119.553M1143.07 -132.777H1129.86M1143.07 -132.777H1156.28M1143.07 206.621V219.845M1143.07 219.845V233.068M1143.07 219.845H1129.86M1143.07 219.845H1156.28M1143.07 559.243V572.466M1143.07 572.466V585.689M1143.07 572.466H1129.86M1143.07 572.466H1156.28M1495.36 -146V-132.777M1495.36 -132.777V-119.553M1495.36 -132.777H1482.15M1495.36 -132.777H1508.57M1495.36 206.621V219.845M1495.36 219.845V233.068M1495.36 219.845H1482.15M1495.36 219.845H1508.57M1495.36 559.243V572.466M1495.36 572.466V585.689M1495.36 572.466H1482.15M1495.36 572.466H1508.57M1847.65 -146V-132.777M1847.65 -132.777V-119.553M1847.65 -132.777H1834.43M1847.65 -132.777H1860.86M1847.65 206.621V219.845M1847.65 219.845V233.068M1847.65 219.845H1834.43M1847.65 219.845H1860.86M1847.65 559.243V572.466M1847.65 572.466V585.689M1847.65 572.466H1834.43M1847.65 572.466H1860.86" stroke="url(#paint0_radial_1466_9384)" stroke-width="0.8"/>
</g>
<g style="mix-blend-mode:soft-light" opacity="0.48">
<path d="M130.247 -132.776H86.211V-88.6987M130.247 -132.776V-88.6987M130.247 -132.776H174.283M130.247 -88.6987H86.211M130.247 -88.6987V-44.621M130.247 -88.6987H174.283M86.211 -88.6987V-44.621M130.247 -44.621H86.211M130.247 -44.621V-0.543334M130.247 -44.621H174.283M86.211 -44.621V-0.543334M130.247 -0.543334H86.211M130.247 -0.543334V43.5343M130.247 -0.543334H174.283M86.211 -0.543334V43.5343M130.247 43.5343H86.211M130.247 43.5343V87.612M130.247 43.5343H174.283M86.211 43.5343V87.612M130.247 87.612H86.211M130.247 87.612V131.69M130.247 87.612H174.283M86.211 87.612V131.69M130.247 131.69H86.211M130.247 131.69V175.767M130.247 131.69H174.283M86.211 131.69V175.767M130.247 175.767H86.211M130.247 175.767V219.845M130.247 175.767H174.283M86.211 175.767V219.845M130.247 219.845H86.211M130.247 219.845V263.923M130.247 219.845H174.283M86.211 219.845V263.923M130.247 263.923H86.211M130.247 263.923V308M130.247 263.923H174.283M86.211 263.923V308M130.247 308H86.211M130.247 308V352.078M130.247 308H174.283M86.211 308V352.078M130.247 352.078H86.211M130.247 352.078V396.156M130.247 352.078H174.283M86.211 352.078V396.156M130.247 396.156H86.211M130.247 396.156V440.233M130.247 396.156H174.283M86.211 396.156V440.233M130.247 440.233H86.211M130.247 440.233V484.311M130.247 440.233H174.283M86.211 440.233V484.311M130.247 484.311H86.211M130.247 484.311V528.389M130.247 484.311H174.283M86.211 484.311V528.389M130.247 528.389H86.211M130.247 528.389V572.466M130.247 528.389H174.283M86.211 528.389V572.466M130.247 572.466H86.211M130.247 572.466V616.544M130.247 572.466H174.283M86.211 572.466V616.544M130.247 616.544H86.211M130.247 616.544V660.622M130.247 616.544H174.283M86.211 616.544V660.622M130.247 660.622H86.211M130.247 660.622V704.7M130.247 660.622H174.283M86.211 660.622V704.7M130.247 704.7H86.211M130.247 704.7V748.777M130.247 704.7H174.283M86.211 704.7V748.777H130.247M130.247 748.777H174.283M174.283 -132.776V-88.6987M174.283 -132.776H218.319M174.283 -88.6987V-44.621M174.283 -88.6987H218.319M174.283 -44.621V-0.543334M174.283 -44.621H218.319M174.283 -0.543334V43.5343M174.283 -0.543334H218.319M174.283 43.5343V87.612M174.283 43.5343H218.319M174.283 87.612V131.69M174.283 87.612H218.319M174.283 131.69V175.767M174.283 131.69H218.319M174.283 175.767V219.845M174.283 175.767H218.319M174.283 219.845V263.923M174.283 219.845H218.319M174.283 263.923V308M174.283 263.923H218.319M174.283 308V352.078M174.283 308H218.319M174.283 352.078V396.156M174.283 352.078H218.319M174.283 396.156V440.233M174.283 396.156H218.319M174.283 440.233V484.311M174.283 440.233H218.319M174.283 484.311V528.389M174.283 484.311H218.319M174.283 528.389V572.466M174.283 528.389H218.319M174.283 572.466V616.544M174.283 572.466H218.319M174.283 616.544V660.622M174.283 616.544H218.319M174.283 660.622V704.7M174.283 660.622H218.319M174.283 704.7V748.777M174.283 704.7H218.319M174.283 748.777H218.319M218.319 -132.776V-88.6987M218.319 -132.776H262.354M218.319 -88.6987V-44.621M218.319 -88.6987H262.354M218.319 -44.621V-0.543334M218.319 -44.621H262.354M218.319 -0.543334V43.5343M218.319 -0.543334H262.354M218.319 43.5343V87.612M218.319 43.5343H262.354M218.319 87.612V131.69M218.319 87.612H262.354M218.319 131.69V175.767M218.319 131.69H262.354M218.319 175.767V219.845M218.319 175.767H262.354M218.319 219.845V263.923M218.319 219.845H262.354M218.319 263.923V308M218.319 263.923H262.354M218.319 308V352.078M218.319 308H262.354M218.319 352.078V396.156M218.319 352.078H262.354M218.319 396.156V440.233M218.319 396.156H262.354M218.319 440.233V484.311M218.319 440.233H262.354M218.319 484.311V528.389M218.319 484.311H262.354M218.319 528.389V572.466M218.319 528.389H262.354M218.319 572.466V616.544M218.319 572.466H262.354M218.319 616.544V660.622M218.319 616.544H262.354M218.319 660.622V704.7M218.319 660.622H262.354M218.319 704.7V748.777M218.319 704.7H262.354M218.319 748.777H262.354M262.354 -132.776V-88.6987M262.354 -132.776H306.39M262.354 -88.6987V-44.621M262.354 -88.6987H306.39M262.354 -44.621V-0.543334M262.354 -44.621H306.39M262.354 -0.543334V43.5343M262.354 -0.543334H306.39M262.354 43.5343V87.612M262.354 43.5343H306.39M262.354 87.612V131.69M262.354 87.612H306.39M262.354 131.69V175.767M262.354 131.69H306.39M262.354 175.767V219.845M262.354 175.767H306.39M262.354 219.845V263.923M262.354 219.845H306.39M262.354 263.923V308M262.354 263.923H306.39M262.354 308V352.078M262.354 308H306.39M262.354 352.078V396.156M262.354 352.078H306.39M262.354 396.156V440.233M262.354 396.156H306.39M262.354 440.233V484.311M262.354 440.233H306.39M262.354 484.311V528.389M262.354 484.311H306.39M262.354 528.389V572.466M262.354 528.389H306.39M262.354 572.466V616.544M262.354 572.466H306.39M262.354 616.544V660.622M262.354 616.544H306.39M262.354 660.622V704.7M262.354 660.622H306.39M262.354 704.7V748.777M262.354 704.7H306.39M262.354 748.777H306.39M306.39 -132.776V-88.6987M306.39 -132.776H350.426M306.39 -88.6987V-44.621M306.39 -88.6987H350.426M306.39 -44.621V-0.543334M306.39 -44.621H350.426M306.39 -0.543334V43.5343M306.39 -0.543334H350.426M306.39 43.5343V87.612M306.39 43.5343H350.426M306.39 87.612V131.69M306.39 87.612H350.426M306.39 131.69V175.767M306.39 131.69H350.426M306.39 175.767V219.845M306.39 175.767H350.426M306.39 219.845V263.923M306.39 219.845H350.426M306.39 263.923V308M306.39 263.923H350.426M306.39 308V352.078M306.39 308H350.426M306.39 352.078V396.156M306.39 352.078H350.426M306.39 396.156V440.233M306.39 396.156H350.426M306.39 440.233V484.311M306.39 440.233H350.426M306.39 484.311V528.389M306.39 484.311H350.426M306.39 528.389V572.466M306.39 528.389H350.426M306.39 572.466V616.544M306.39 572.466H350.426M306.39 616.544V660.622M306.39 616.544H350.426M306.39 660.622V704.7M306.39 660.622H350.426M306.39 704.7V748.777M306.39 704.7H350.426M306.39 748.777H350.426M350.426 -132.776V-88.6987M350.426 -132.776H394.462M350.426 -88.6987V-44.621M350.426 -88.6987H394.462M350.426 -44.621V-0.543334M350.426 -44.621H394.462M350.426 -0.543334V43.5343M350.426 -0.543334H394.462M350.426 43.5343V87.612M350.426 43.5343H394.462M350.426 87.612V131.69M350.426 87.612H394.462M350.426 131.69V175.767M350.426 131.69H394.462M350.426 175.767V219.845M350.426 175.767H394.462M350.426 219.845V263.923M350.426 219.845H394.462M350.426 263.923V308M350.426 263.923H394.462M350.426 308V352.078M350.426 308H394.462M350.426 352.078V396.156M350.426 352.078H394.462M350.426 396.156V440.233M350.426 396.156H394.462M350.426 440.233V484.311M350.426 440.233H394.462M350.426 484.311V528.389M350.426 484.311H394.462M350.426 528.389V572.466M350.426 528.389H394.462M350.426 572.466V616.544M350.426 572.466H394.462M350.426 616.544V660.622M350.426 616.544H394.462M350.426 660.622V704.7M350.426 660.622H394.462M350.426 704.7V748.777M350.426 704.7H394.462M350.426 748.777H394.462M394.462 -132.776V-88.6987M394.462 -132.776H438.498M394.462 -88.6987V-44.621M394.462 -88.6987H438.498M394.462 -44.621V-0.543334M394.462 -44.621H438.498M394.462 -0.543334V43.5343M394.462 -0.543334H438.498M394.462 43.5343V87.612M394.462 43.5343H438.498M394.462 87.612V131.69M394.462 87.612H438.498M394.462 131.69V175.767M394.462 131.69H438.498M394.462 175.767V219.845M394.462 175.767H438.498M394.462 219.845V263.923M394.462 219.845H438.498M394.462 263.923V308M394.462 263.923H438.498M394.462 308V352.078M394.462 308H438.498M394.462 352.078V396.156M394.462 352.078H438.498M394.462 396.156V440.233M394.462 396.156H438.498M394.462 440.233V484.311M394.462 440.233H438.498M394.462 484.311V528.389M394.462 484.311H438.498M394.462 528.389V572.466M394.462 528.389H438.498M394.462 572.466V616.544M394.462 572.466H438.498M394.462 616.544V660.622M394.462 616.544H438.498M394.462 660.622V704.7M394.462 660.622H438.498M394.462 704.7V748.777M394.462 704.7H438.498M394.462 748.777H438.498M438.498 -132.776V-88.6987M438.498 -132.776H482.534M438.498 -88.6987V-44.621M438.498 -88.6987H482.534M438.498 -44.621V-0.543334M438.498 -44.621H482.534M438.498 -0.543334V43.5343M438.498 -0.543334H482.534M438.498 43.5343V87.612M438.498 43.5343H482.534M438.498 87.612V131.69M438.498 87.612H482.534M438.498 131.69V175.767M438.498 131.69H482.534M438.498 175.767V219.845M438.498 175.767H482.534M438.498 219.845V263.923M438.498 219.845H482.534M438.498 263.923V308M438.498 263.923H482.534M438.498 308V352.078M438.498 308H482.534M438.498 352.078V396.156M438.498 352.078H482.534M438.498 396.156V440.233M438.498 396.156H482.534M438.498 440.233V484.311M438.498 440.233H482.534M438.498 484.311V528.389M438.498 484.311H482.534M438.498 528.389V572.466M438.498 528.389H482.534M438.498 572.466V616.544M438.498 572.466H482.534M438.498 616.544V660.622M438.498 616.544H482.534M438.498 660.622V704.7M438.498 660.622H482.534M438.498 704.7V748.777M438.498 704.7H482.534M438.498 748.777H482.534M482.534 -132.776V-88.6987M482.534 -132.776H526.57M482.534 -88.6987V-44.621M482.534 -88.6987H526.57M482.534 -44.621V-0.543334M482.534 -44.621H526.57M482.534 -0.543334V43.5343M482.534 -0.543334H526.57M482.534 43.5343V87.612M482.534 43.5343H526.57M482.534 87.612V131.69M482.534 87.612H526.57M482.534 131.69V175.767M482.534 131.69H526.57M482.534 175.767V219.845M482.534 175.767H526.57M482.534 219.845V263.923M482.534 219.845H526.57M482.534 263.923V308M482.534 263.923H526.57M482.534 308V352.078M482.534 308H526.57M482.534 352.078V396.156M482.534 352.078H526.57M482.534 396.156V440.233M482.534 396.156H526.57M482.534 440.233V484.311M482.534 440.233H526.57M482.534 484.311V528.389M482.534 484.311H526.57M482.534 528.389V572.466M482.534 528.389H526.57M482.534 572.466V616.544M482.534 572.466H526.57M482.534 616.544V660.622M482.534 616.544H526.57M482.534 660.622V704.7M482.534 660.622H526.57M482.534 704.7V748.777M482.534 704.7H526.57M482.534 748.777H526.57M526.57 -132.776V-88.6987M526.57 -132.776H570.606M526.57 -88.6987V-44.621M526.57 -88.6987H570.606M526.57 -44.621V-0.543334M526.57 -44.621H570.606M526.57 -0.543334V43.5343M526.57 -0.543334H570.606M526.57 43.5343V87.612M526.57 43.5343H570.606M526.57 87.612V131.69M526.57 87.612H570.606M526.57 131.69V175.767M526.57 131.69H570.606M526.57 175.767V219.845M526.57 175.767H570.606M526.57 219.845V263.923M526.57 219.845H570.606M526.57 263.923V308M526.57 263.923H570.606M526.57 308V352.078M526.57 308H570.606M526.57 352.078V396.156M526.57 352.078H570.606M526.57 396.156V440.233M526.57 396.156H570.606M526.57 440.233V484.311M526.57 440.233H570.606M526.57 484.311V528.389M526.57 484.311H570.606M526.57 528.389V572.466M526.57 528.389H570.606M526.57 572.466V616.544M526.57 572.466H570.606M526.57 616.544V660.622M526.57 616.544H570.606M526.57 660.622V704.7M526.57 660.622H570.606M526.57 704.7V748.777M526.57 704.7H570.606M526.57 748.777H570.606M570.606 -132.776V-88.6987M570.606 -132.776H614.641M570.606 -88.6987V-44.621M570.606 -88.6987H614.641M570.606 -44.621V-0.543334M570.606 -44.621H614.641M570.606 -0.543334V43.5343M570.606 -0.543334H614.641M570.606 43.5343V87.612M570.606 43.5343H614.641M570.606 87.612V131.69M570.606 87.612H614.641M570.606 131.69V175.767M570.606 131.69H614.641M570.606 175.767V219.845M570.606 175.767H614.641M570.606 219.845V263.923M570.606 219.845H614.641M570.606 263.923V308M570.606 263.923H614.641M570.606 308V352.078M570.606 308H614.641M570.606 352.078V396.156M570.606 352.078H614.641M570.606 396.156V440.233M570.606 396.156H614.641M570.606 440.233V484.311M570.606 440.233H614.641M570.606 484.311V528.389M570.606 484.311H614.641M570.606 528.389V572.466M570.606 528.389H614.641M570.606 572.466V616.544M570.606 572.466H614.641M570.606 616.544V660.622M570.606 616.544H614.641M570.606 660.622V704.7M570.606 660.622H614.641M570.606 704.7V748.777M570.606 704.7H614.641M570.606 748.777H614.641M614.641 -132.776V-88.6987M614.641 -132.776H658.677M614.641 -88.6987V-44.621M614.641 -88.6987H658.677M614.641 -44.621V-0.543334M614.641 -44.621H658.677M614.641 -0.543334V43.5343M614.641 -0.543334H658.677M614.641 43.5343V87.612M614.641 43.5343H658.677M614.641 87.612V131.69M614.641 87.612H658.677M614.641 131.69V175.767M614.641 131.69H658.677M614.641 175.767V219.845M614.641 175.767H658.677M614.641 219.845V263.923M614.641 219.845H658.677M614.641 263.923V308M614.641 263.923H658.677M614.641 308V352.078M614.641 308H658.677M614.641 352.078V396.156M614.641 352.078H658.677M614.641 396.156V440.233M614.641 396.156H658.677M614.641 440.233V484.311M614.641 440.233H658.677M614.641 484.311V528.389M614.641 484.311H658.677M614.641 528.389V572.466M614.641 528.389H658.677M614.641 572.466V616.544M614.641 572.466H658.677M614.641 616.544V660.622M614.641 616.544H658.677M614.641 660.622V704.7M614.641 660.622H658.677M614.641 704.7V748.777M614.641 704.7H658.677M614.641 748.777H658.677M658.677 -132.776V-88.6987M658.677 -132.776H702.713M658.677 -88.6987V-44.621M658.677 -88.6987H702.713M658.677 -44.621V-0.543334M658.677 -44.621H702.713M658.677 -0.543334V43.5343M658.677 -0.543334H702.713M658.677 43.5343V87.612M658.677 43.5343H702.713M658.677 87.612V131.69M658.677 87.612H702.713M658.677 131.69V175.767M658.677 131.69H702.713M658.677 175.767V219.845M658.677 175.767H702.713M658.677 219.845V263.923M658.677 219.845H702.713M658.677 263.923V308M658.677 263.923H702.713M658.677 308V352.078M658.677 308H702.713M658.677 352.078V396.156M658.677 352.078H702.713M658.677 396.156V440.233M658.677 396.156H702.713M658.677 440.233V484.311M658.677 440.233H702.713M658.677 484.311V528.389M658.677 484.311H702.713M658.677 528.389V572.466M658.677 528.389H702.713M658.677 572.466V616.544M658.677 572.466H702.713M658.677 616.544V660.622M658.677 616.544H702.713M658.677 660.622V704.7M658.677 660.622H702.713M658.677 704.7V748.777M658.677 704.7H702.713M658.677 748.777H702.713M702.713 -132.776V-88.6987M702.713 -132.776H746.749M702.713 -88.6987V-44.621M702.713 -88.6987H746.749M702.713 -44.621V-0.543334M702.713 -44.621H746.749M702.713 -0.543334V43.5343M702.713 -0.543334H746.749M702.713 43.5343V87.612M702.713 43.5343H746.749M702.713 87.612V131.69M702.713 87.612H746.749M702.713 131.69V175.767M702.713 131.69H746.749M702.713 175.767V219.845M702.713 175.767H746.749M702.713 219.845V263.923M702.713 219.845H746.749M702.713 263.923V308M702.713 263.923H746.749M702.713 308V352.078M702.713 308H746.749M702.713 352.078V396.156M702.713 352.078H746.749M702.713 396.156V440.233M702.713 396.156H746.749M702.713 440.233V484.311M702.713 440.233H746.749M702.713 484.311V528.389M702.713 484.311H746.749M702.713 528.389V572.466M702.713 528.389H746.749M702.713 572.466V616.544M702.713 572.466H746.749M702.713 616.544V660.622M702.713 616.544H746.749M702.713 660.622V704.7M702.713 660.622H746.749M702.713 704.7V748.777M702.713 704.7H746.749M702.713 748.777H746.749M746.749 -132.776V-88.6987M746.749 -132.776H790.785M746.749 -88.6987V-44.621M746.749 -88.6987H790.785M746.749 -44.621V-0.543334M746.749 -44.621H790.785M746.749 -0.543334V43.5343M746.749 -0.543334H790.785M746.749 43.5343V87.612M746.749 43.5343H790.785M746.749 87.612V131.69M746.749 87.612H790.785M746.749 131.69V175.767M746.749 131.69H790.785M746.749 175.767V219.845M746.749 175.767H790.785M746.749 219.845V263.923M746.749 219.845H790.785M746.749 263.923V308M746.749 263.923H790.785M746.749 308V352.078M746.749 308H790.785M746.749 352.078V396.156M746.749 352.078H790.785M746.749 396.156V440.233M746.749 396.156H790.785M746.749 440.233V484.311M746.749 440.233H790.785M746.749 484.311V528.389M746.749 484.311H790.785M746.749 528.389V572.466M746.749 528.389H790.785M746.749 572.466V616.544M746.749 572.466H790.785M746.749 616.544V660.622M746.749 616.544H790.785M746.749 660.622V704.7M746.749 660.622H790.785M746.749 704.7V748.777M746.749 704.7H790.785M746.749 748.777H790.785M790.785 -132.776V-88.6987M790.785 -132.776H834.821M790.785 -88.6987V-44.621M790.785 -88.6987H834.821M790.785 -44.621V-0.543334M790.785 -44.621H834.821M790.785 -0.543334V43.5343M790.785 -0.543334H834.821M790.785 43.5343V87.612M790.785 43.5343H834.821M790.785 87.612V131.69M790.785 87.612H834.821M790.785 131.69V175.767M790.785 131.69H834.821M790.785 175.767V219.845M790.785 175.767H834.821M790.785 219.845V263.923M790.785 219.845H834.821M790.785 263.923V308M790.785 263.923H834.821M790.785 308V352.078M790.785 308H834.821M790.785 352.078V396.156M790.785 352.078H834.821M790.785 396.156V440.233M790.785 396.156H834.821M790.785 440.233V484.311M790.785 440.233H834.821M790.785 484.311V528.389M790.785 484.311H834.821M790.785 528.389V572.466M790.785 528.389H834.821M790.785 572.466V616.544M790.785 572.466H834.821M790.785 616.544V660.622M790.785 616.544H834.821M790.785 660.622V704.7M790.785 660.622H834.821M790.785 704.7V748.777M790.785 704.7H834.821M790.785 748.777H834.821M834.821 -132.776V-88.6987M834.821 -132.776H878.857M834.821 -88.6987V-44.621M834.821 -88.6987H878.857M834.821 -44.621V-0.543334M834.821 -44.621H878.857M834.821 -0.543334V43.5343M834.821 -0.543334H878.857M834.821 43.5343V87.612M834.821 43.5343H878.857M834.821 87.612V131.69M834.821 87.612H878.857M834.821 131.69V175.767M834.821 131.69H878.857M834.821 175.767V219.845M834.821 175.767H878.857M834.821 219.845V263.923M834.821 219.845H878.857M834.821 263.923V308M834.821 263.923H878.857M834.821 308V352.078M834.821 308H878.857M834.821 352.078V396.156M834.821 352.078H878.857M834.821 396.156V440.233M834.821 396.156H878.857M834.821 440.233V484.311M834.821 440.233H878.857M834.821 484.311V528.389M834.821 484.311H878.857M834.821 528.389V572.466M834.821 528.389H878.857M834.821 572.466V616.544M834.821 572.466H878.857M834.821 616.544V660.622M834.821 616.544H878.857M834.821 660.622V704.7M834.821 660.622H878.857M834.821 704.7V748.777M834.821 704.7H878.857M834.821 748.777H878.857M878.857 -132.776V-88.6987M878.857 -132.776H922.893M878.857 -88.6987V-44.621M878.857 -88.6987H922.893M878.857 -44.621V-0.543334M878.857 -44.621H922.893M878.857 -0.543334V43.5343M878.857 -0.543334H922.893M878.857 43.5343V87.612M878.857 43.5343H922.893M878.857 87.612V131.69M878.857 87.612H922.893M878.857 131.69V175.767M878.857 131.69H922.893M878.857 175.767V219.845M878.857 175.767H922.893M878.857 219.845V263.923M878.857 219.845H922.893M878.857 263.923V308M878.857 263.923H922.893M878.857 308V352.078M878.857 308H922.893M878.857 352.078V396.156M878.857 352.078H922.893M878.857 396.156V440.233M878.857 396.156H922.893M878.857 440.233V484.311M878.857 440.233H922.893M878.857 484.311V528.389M878.857 484.311H922.893M878.857 528.389V572.466M878.857 528.389H922.893M878.857 572.466V616.544M878.857 572.466H922.893M878.857 616.544V660.622M878.857 616.544H922.893M878.857 660.622V704.7M878.857 660.622H922.893M878.857 704.7V748.777M878.857 704.7H922.893M878.857 748.777H922.893M922.893 -132.776V-88.6987M922.893 -132.776H966.928M922.893 -88.6987V-44.621M922.893 -88.6987H966.928M922.893 -44.621V-0.543334M922.893 -44.621H966.928M922.893 -0.543334V43.5343M922.893 -0.543334H966.928M922.893 43.5343V87.612M922.893 43.5343H966.928M922.893 87.612V131.69M922.893 87.612H966.928M922.893 131.69V175.767M922.893 131.69H966.928M922.893 175.767V219.845M922.893 175.767H966.928M922.893 219.845V263.923M922.893 219.845H966.928M922.893 263.923V308M922.893 263.923H966.928M922.893 308V352.078M922.893 308H966.928M922.893 352.078V396.156M922.893 352.078H966.928M922.893 396.156V440.233M922.893 396.156H966.928M922.893 440.233V484.311M922.893 440.233H966.928M922.893 484.311V528.389M922.893 484.311H966.928M922.893 528.389V572.466M922.893 528.389H966.928M922.893 572.466V616.544M922.893 572.466H966.928M922.893 616.544V660.622M922.893 616.544H966.928M922.893 660.622V704.7M922.893 660.622H966.928M922.893 704.7V748.777M922.893 704.7H966.928M922.893 748.777H966.928M966.928 -132.776V-88.6987M966.928 -132.776H1010.96M966.928 -88.6987V-44.621M966.928 -88.6987H1010.96M966.928 -44.621V-0.543334M966.928 -44.621H1010.96M966.928 -0.543334V43.5343M966.928 -0.543334H1010.96M966.928 43.5343V87.612M966.928 43.5343H1010.96M966.928 87.612V131.69M966.928 87.612H1010.96M966.928 131.69V175.767M966.928 131.69H1010.96M966.928 175.767V219.845M966.928 175.767H1010.96M966.928 219.845V263.923M966.928 219.845H1010.96M966.928 263.923V308M966.928 263.923H1010.96M966.928 308V352.078M966.928 308H1010.96M966.928 352.078V396.156M966.928 352.078H1010.96M966.928 396.156V440.233M966.928 396.156H1010.96M966.928 440.233V484.311M966.928 440.233H1010.96M966.928 484.311V528.389M966.928 484.311H1010.96M966.928 528.389V572.466M966.928 528.389H1010.96M966.928 572.466V616.544M966.928 572.466H1010.96M966.928 616.544V660.622M966.928 616.544H1010.96M966.928 660.622V704.7M966.928 660.622H1010.96M966.928 704.7V748.777M966.928 704.7H1010.96M966.928 748.777H1010.96M1010.96 -132.776V-88.6987M1010.96 -132.776H1055M1010.96 -88.6987V-44.621M1010.96 -88.6987H1055M1010.96 -44.621V-0.543334M1010.96 -44.621H1055M1010.96 -0.543334V43.5343M1010.96 -0.543334H1055M1010.96 43.5343V87.612M1010.96 43.5343H1055M1010.96 87.612V131.69M1010.96 87.612H1055M1010.96 131.69V175.767M1010.96 131.69H1055M1010.96 175.767V219.845M1010.96 175.767H1055M1010.96 219.845V263.923M1010.96 219.845H1055M1010.96 263.923V308M1010.96 263.923H1055M1010.96 308V352.078M1010.96 308H1055M1010.96 352.078V396.156M1010.96 352.078H1055M1010.96 396.156V440.233M1010.96 396.156H1055M1010.96 440.233V484.311M1010.96 440.233H1055M1010.96 484.311V528.389M1010.96 484.311H1055M1010.96 528.389V572.466M1010.96 528.389H1055M1010.96 572.466V616.544M1010.96 572.466H1055M1010.96 616.544V660.622M1010.96 616.544H1055M1010.96 660.622V704.7M1010.96 660.622H1055M1010.96 704.7V748.777M1010.96 704.7H1055M1010.96 748.777H1055M1055 -132.776V-88.6987M1055 -132.776H1099.04M1055 -88.6987V-44.621M1055 -88.6987H1099.04M1055 -44.621V-0.543334M1055 -44.621H1099.04M1055 -0.543334V43.5343M1055 -0.543334H1099.04M1055 43.5343V87.612M1055 43.5343H1099.04M1055 87.612V131.69M1055 87.612H1099.04M1055 131.69V175.767M1055 131.69H1099.04M1055 175.767V219.845M1055 175.767H1099.04M1055 219.845V263.923M1055 219.845H1099.04M1055 263.923V308M1055 263.923H1099.04M1055 308V352.078M1055 308H1099.04M1055 352.078V396.156M1055 352.078H1099.04M1055 396.156V440.233M1055 396.156H1099.04M1055 440.233V484.311M1055 440.233H1099.04M1055 484.311V528.389M1055 484.311H1099.04M1055 528.389V572.466M1055 528.389H1099.04M1055 572.466V616.544M1055 572.466H1099.04M1055 616.544V660.622M1055 616.544H1099.04M1055 660.622V704.7M1055 660.622H1099.04M1055 704.7V748.777M1055 704.7H1099.04M1055 748.777H1099.04M1099.04 -132.776V-88.6987M1099.04 -132.776H1143.07M1099.04 -88.6987V-44.621M1099.04 -88.6987H1143.07M1099.04 -44.621V-0.543334M1099.04 -44.621H1143.07M1099.04 -0.543334V43.5343M1099.04 -0.543334H1143.07M1099.04 43.5343V87.612M1099.04 43.5343H1143.07M1099.04 87.612V131.69M1099.04 87.612H1143.07M1099.04 131.69V175.767M1099.04 131.69H1143.07M1099.04 175.767V219.845M1099.04 175.767H1143.07M1099.04 219.845V263.923M1099.04 219.845H1143.07M1099.04 263.923V308M1099.04 263.923H1143.07M1099.04 308V352.078M1099.04 308H1143.07M1099.04 352.078V396.156M1099.04 352.078H1143.07M1099.04 396.156V440.233M1099.04 396.156H1143.07M1099.04 440.233V484.311M1099.04 440.233H1143.07M1099.04 484.311V528.389M1099.04 484.311H1143.07M1099.04 528.389V572.466M1099.04 528.389H1143.07M1099.04 572.466V616.544M1099.04 572.466H1143.07M1099.04 616.544V660.622M1099.04 616.544H1143.07M1099.04 660.622V704.7M1099.04 660.622H1143.07M1099.04 704.7V748.777M1099.04 704.7H1143.07M1099.04 748.777H1143.07M1143.07 -132.776V-88.6987M1143.07 -132.776H1187.11M1143.07 -88.6987V-44.621M1143.07 -88.6987H1187.11M1143.07 -44.621V-0.543334M1143.07 -44.621H1187.11M1143.07 -0.543334V43.5343M1143.07 -0.543334H1187.11M1143.07 43.5343V87.612M1143.07 43.5343H1187.11M1143.07 87.612V131.69M1143.07 87.612H1187.11M1143.07 131.69V175.767M1143.07 131.69H1187.11M1143.07 175.767V219.845M1143.07 175.767H1187.11M1143.07 219.845V263.923M1143.07 219.845H1187.11M1143.07 263.923V308M1143.07 263.923H1187.11M1143.07 308V352.078M1143.07 308H1187.11M1143.07 352.078V396.156M1143.07 352.078H1187.11M1143.07 396.156V440.233M1143.07 396.156H1187.11M1143.07 440.233V484.311M1143.07 440.233H1187.11M1143.07 484.311V528.389M1143.07 484.311H1187.11M1143.07 528.389V572.466M1143.07 528.389H1187.11M1143.07 572.466V616.544M1143.07 572.466H1187.11M1143.07 616.544V660.622M1143.07 616.544H1187.11M1143.07 660.622V704.7M1143.07 660.622H1187.11M1143.07 704.7V748.777M1143.07 704.7H1187.11M1143.07 748.777H1187.11M1187.11 -132.776V-88.6987M1187.11 -132.776H1231.14M1187.11 -88.6987V-44.621M1187.11 -88.6987H1231.14M1187.11 -44.621V-0.543334M1187.11 -44.621H1231.14M1187.11 -0.543334V43.5343M1187.11 -0.543334H1231.14M1187.11 43.5343V87.612M1187.11 43.5343H1231.14M1187.11 87.612V131.69M1187.11 87.612H1231.14M1187.11 131.69V175.767M1187.11 131.69H1231.14M1187.11 175.767V219.845M1187.11 175.767H1231.14M1187.11 219.845V263.923M1187.11 219.845H1231.14M1187.11 263.923V308M1187.11 263.923H1231.14M1187.11 308V352.078M1187.11 308H1231.14M1187.11 352.078V396.156M1187.11 352.078H1231.14M1187.11 396.156V440.233M1187.11 396.156H1231.14M1187.11 440.233V484.311M1187.11 440.233H1231.14M1187.11 484.311V528.389M1187.11 484.311H1231.14M1187.11 528.389V572.466M1187.11 528.389H1231.14M1187.11 572.466V616.544M1187.11 572.466H1231.14M1187.11 616.544V660.622M1187.11 616.544H1231.14M1187.11 660.622V704.7M1187.11 660.622H1231.14M1187.11 704.7V748.777M1187.11 704.7H1231.14M1187.11 748.777H1231.14M1231.14 -132.776V-88.6987M1231.14 -132.776H1275.18M1231.14 -88.6987V-44.621M1231.14 -88.6987H1275.18M1231.14 -44.621V-0.543334M1231.14 -44.621H1275.18M1231.14 -0.543334V43.5343M1231.14 -0.543334H1275.18M1231.14 43.5343V87.612M1231.14 43.5343H1275.18M1231.14 87.612V131.69M1231.14 87.612H1275.18M1231.14 131.69V175.767M1231.14 131.69H1275.18M1231.14 175.767V219.845M1231.14 175.767H1275.18M1231.14 219.845V263.923M1231.14 219.845H1275.18M1231.14 263.923V308M1231.14 263.923H1275.18M1231.14 308V352.078M1231.14 308H1275.18M1231.14 352.078V396.156M1231.14 352.078H1275.18M1231.14 396.156V440.233M1231.14 396.156H1275.18M1231.14 440.233V484.311M1231.14 440.233H1275.18M1231.14 484.311V528.389M1231.14 484.311H1275.18M1231.14 528.389V572.466M1231.14 528.389H1275.18M1231.14 572.466V616.544M1231.14 572.466H1275.18M1231.14 616.544V660.622M1231.14 616.544H1275.18M1231.14 660.622V704.7M1231.14 660.622H1275.18M1231.14 704.7V748.777M1231.14 704.7H1275.18M1231.14 748.777H1275.18M1275.18 -132.776V-88.6987M1275.18 -132.776H1319.22M1275.18 -88.6987V-44.621M1275.18 -88.6987H1319.22M1275.18 -44.621V-0.543334M1275.18 -44.621H1319.22M1275.18 -0.543334V43.5343M1275.18 -0.543334H1319.22M1275.18 43.5343V87.612M1275.18 43.5343H1319.22M1275.18 87.612V131.69M1275.18 87.612H1319.22M1275.18 131.69V175.767M1275.18 131.69H1319.22M1275.18 175.767V219.845M1275.18 175.767H1319.22M1275.18 219.845V263.923M1275.18 219.845H1319.22M1275.18 263.923V308M1275.18 263.923H1319.22M1275.18 308V352.078M1275.18 308H1319.22M1275.18 352.078V396.156M1275.18 352.078H1319.22M1275.18 396.156V440.233M1275.18 396.156H1319.22M1275.18 440.233V484.311M1275.18 440.233H1319.22M1275.18 484.311V528.389M1275.18 484.311H1319.22M1275.18 528.389V572.466M1275.18 528.389H1319.22M1275.18 572.466V616.544M1275.18 572.466H1319.22M1275.18 616.544V660.622M1275.18 616.544H1319.22M1275.18 660.622V704.7M1275.18 660.622H1319.22M1275.18 704.7V748.777M1275.18 704.7H1319.22M1275.18 748.777H1319.22M1319.22 -132.776V-88.6987M1319.22 -132.776H1363.25M1319.22 -88.6987V-44.621M1319.22 -88.6987H1363.25M1319.22 -44.621V-0.543334M1319.22 -44.621H1363.25M1319.22 -0.543334V43.5343M1319.22 -0.543334H1363.25M1319.22 43.5343V87.612M1319.22 43.5343H1363.25M1319.22 87.612V131.69M1319.22 87.612H1363.25M1319.22 131.69V175.767M1319.22 131.69H1363.25M1319.22 175.767V219.845M1319.22 175.767H1363.25M1319.22 219.845V263.923M1319.22 219.845H1363.25M1319.22 263.923V308M1319.22 263.923H1363.25M1319.22 308V352.078M1319.22 308H1363.25M1319.22 352.078V396.156M1319.22 352.078H1363.25M1319.22 396.156V440.233M1319.22 396.156H1363.25M1319.22 440.233V484.311M1319.22 440.233H1363.25M1319.22 484.311V528.389M1319.22 484.311H1363.25M1319.22 528.389V572.466M1319.22 528.389H1363.25M1319.22 572.466V616.544M1319.22 572.466H1363.25M1319.22 616.544V660.622M1319.22 616.544H1363.25M1319.22 660.622V704.7M1319.22 660.622H1363.25M1319.22 704.7V748.777M1319.22 704.7H1363.25M1319.22 748.777H1363.25M1363.25 -132.776V-88.6987M1363.25 -132.776H1407.29M1363.25 -88.6987V-44.621M1363.25 -88.6987H1407.29M1363.25 -44.621V-0.543334M1363.25 -44.621H1407.29M1363.25 -0.543334V43.5343M1363.25 -0.543334H1407.29M1363.25 43.5343V87.612M1363.25 43.5343H1407.29M1363.25 87.612V131.69M1363.25 87.612H1407.29M1363.25 131.69V175.767M1363.25 131.69H1407.29M1363.25 175.767V219.845M1363.25 175.767H1407.29M1363.25 219.845V263.923M1363.25 219.845H1407.29M1363.25 263.923V308M1363.25 263.923H1407.29M1363.25 308V352.078M1363.25 308H1407.29M1363.25 352.078V396.156M1363.25 352.078H1407.29M1363.25 396.156V440.233M1363.25 396.156H1407.29M1363.25 440.233V484.311M1363.25 440.233H1407.29M1363.25 484.311V528.389M1363.25 484.311H1407.29M1363.25 528.389V572.466M1363.25 528.389H1407.29M1363.25 572.466V616.544M1363.25 572.466H1407.29M1363.25 616.544V660.622M1363.25 616.544H1407.29M1363.25 660.622V704.7M1363.25 660.622H1407.29M1363.25 704.7V748.777M1363.25 704.7H1407.29M1363.25 748.777H1407.29M1407.29 -132.776V-88.6987M1407.29 -132.776H1451.32M1407.29 -88.6987V-44.621M1407.29 -88.6987H1451.32M1407.29 -44.621V-0.543334M1407.29 -44.621H1451.32M1407.29 -0.543334V43.5343M1407.29 -0.543334H1451.32M1407.29 43.5343V87.612M1407.29 43.5343H1451.32M1407.29 87.612V131.69M1407.29 87.612H1451.32M1407.29 131.69V175.767M1407.29 131.69H1451.32M1407.29 175.767V219.845M1407.29 175.767H1451.32M1407.29 219.845V263.923M1407.29 219.845H1451.32M1407.29 263.923V308M1407.29 263.923H1451.32M1407.29 308V352.078M1407.29 308H1451.32M1407.29 352.078V396.156M1407.29 352.078H1451.32M1407.29 396.156V440.233M1407.29 396.156H1451.32M1407.29 440.233V484.311M1407.29 440.233H1451.32M1407.29 484.311V528.389M1407.29 484.311H1451.32M1407.29 528.389V572.466M1407.29 528.389H1451.32M1407.29 572.466V616.544M1407.29 572.466H1451.32M1407.29 616.544V660.622M1407.29 616.544H1451.32M1407.29 660.622V704.7M1407.29 660.622H1451.32M1407.29 704.7V748.777M1407.29 704.7H1451.32M1407.29 748.777H1451.32M1451.32 -132.776V-88.6987M1451.32 -132.776H1495.36M1451.32 -88.6987V-44.621M1451.32 -88.6987H1495.36M1451.32 -44.621V-0.543334M1451.32 -44.621H1495.36M1451.32 -0.543334V43.5343M1451.32 -0.543334H1495.36M1451.32 43.5343V87.612M1451.32 43.5343H1495.36M1451.32 87.612V131.69M1451.32 87.612H1495.36M1451.32 131.69V175.767M1451.32 131.69H1495.36M1451.32 175.767V219.845M1451.32 175.767H1495.36M1451.32 219.845V263.923M1451.32 219.845H1495.36M1451.32 263.923V308M1451.32 263.923H1495.36M1451.32 308V352.078M1451.32 308H1495.36M1451.32 352.078V396.156M1451.32 352.078H1495.36M1451.32 396.156V440.233M1451.32 396.156H1495.36M1451.32 440.233V484.311M1451.32 440.233H1495.36M1451.32 484.311V528.389M1451.32 484.311H1495.36M1451.32 528.389V572.466M1451.32 528.389H1495.36M1451.32 572.466V616.544M1451.32 572.466H1495.36M1451.32 616.544V660.622M1451.32 616.544H1495.36M1451.32 660.622V704.7M1451.32 660.622H1495.36M1451.32 704.7V748.777M1451.32 704.7H1495.36M1451.32 748.777H1495.36M1495.36 -132.776V-88.6987M1495.36 -132.776H1539.39M1495.36 -88.6987V-44.621M1495.36 -88.6987H1539.39M1495.36 -44.621V-0.543334M1495.36 -44.621H1539.39M1495.36 -0.543334V43.5343M1495.36 -0.543334H1539.39M1495.36 43.5343V87.612M1495.36 43.5343H1539.39M1495.36 87.612V131.69M1495.36 87.612H1539.39M1495.36 131.69V175.767M1495.36 131.69H1539.39M1495.36 175.767V219.845M1495.36 175.767H1539.39M1495.36 219.845V263.923M1495.36 219.845H1539.39M1495.36 263.923V308M1495.36 263.923H1539.39M1495.36 308V352.078M1495.36 308H1539.39M1495.36 352.078V396.156M1495.36 352.078H1539.39M1495.36 396.156V440.233M1495.36 396.156H1539.39M1495.36 440.233V484.311M1495.36 440.233H1539.39M1495.36 484.311V528.389M1495.36 484.311H1539.39M1495.36 528.389V572.466M1495.36 528.389H1539.39M1495.36 572.466V616.544M1495.36 572.466H1539.39M1495.36 616.544V660.622M1495.36 616.544H1539.39M1495.36 660.622V704.7M1495.36 660.622H1539.39M1495.36 704.7V748.777M1495.36 704.7H1539.39M1495.36 748.777H1539.39M1539.39 -132.776V-88.6987M1539.39 -132.776H1583.43M1539.39 -88.6987V-44.621M1539.39 -88.6987H1583.43M1539.39 -44.621V-0.543334M1539.39 -44.621H1583.43M1539.39 -0.543334V43.5343M1539.39 -0.543334H1583.43M1539.39 43.5343V87.612M1539.39 43.5343H1583.43M1539.39 87.612V131.69M1539.39 87.612H1583.43M1539.39 131.69V175.767M1539.39 131.69H1583.43M1539.39 175.767V219.845M1539.39 175.767H1583.43M1539.39 219.845V263.923M1539.39 219.845H1583.43M1539.39 263.923V308M1539.39 263.923H1583.43M1539.39 308V352.078M1539.39 308H1583.43M1539.39 352.078V396.156M1539.39 352.078H1583.43M1539.39 396.156V440.233M1539.39 396.156H1583.43M1539.39 440.233V484.311M1539.39 440.233H1583.43M1539.39 484.311V528.389M1539.39 484.311H1583.43M1539.39 528.389V572.466M1539.39 528.389H1583.43M1539.39 572.466V616.544M1539.39 572.466H1583.43M1539.39 616.544V660.622M1539.39 616.544H1583.43M1539.39 660.622V704.7M1539.39 660.622H1583.43M1539.39 704.7V748.777M1539.39 704.7H1583.43M1539.39 748.777H1583.43M1583.43 -132.776V-88.6987M1583.43 -132.776H1627.47M1583.43 -88.6987V-44.621M1583.43 -88.6987H1627.47M1583.43 -44.621V-0.543334M1583.43 -44.621H1627.47M1583.43 -0.543334V43.5343M1583.43 -0.543334H1627.47M1583.43 43.5343V87.612M1583.43 43.5343H1627.47M1583.43 87.612V131.69M1583.43 87.612H1627.47M1583.43 131.69V175.767M1583.43 131.69H1627.47M1583.43 175.767V219.845M1583.43 175.767H1627.47M1583.43 219.845V263.923M1583.43 219.845H1627.47M1583.43 263.923V308M1583.43 263.923H1627.47M1583.43 308V352.078M1583.43 308H1627.47M1583.43 352.078V396.156M1583.43 352.078H1627.47M1583.43 396.156V440.233M1583.43 396.156H1627.47M1583.43 440.233V484.311M1583.43 440.233H1627.47M1583.43 484.311V528.389M1583.43 484.311H1627.47M1583.43 528.389V572.466M1583.43 528.389H1627.47M1583.43 572.466V616.544M1583.43 572.466H1627.47M1583.43 616.544V660.622M1583.43 616.544H1627.47M1583.43 660.622V704.7M1583.43 660.622H1627.47M1583.43 704.7V748.777M1583.43 704.7H1627.47M1583.43 748.777H1627.47M1627.47 -132.776V-88.6987M1627.47 -132.776H1671.5M1627.47 -88.6987V-44.621M1627.47 -88.6987H1671.5M1627.47 -44.621V-0.543334M1627.47 -44.621H1671.5M1627.47 -0.543334V43.5343M1627.47 -0.543334H1671.5M1627.47 43.5343V87.612M1627.47 43.5343H1671.5M1627.47 87.612V131.69M1627.47 87.612H1671.5M1627.47 131.69V175.767M1627.47 131.69H1671.5M1627.47 175.767V219.845M1627.47 175.767H1671.5M1627.47 219.845V263.923M1627.47 219.845H1671.5M1627.47 263.923V308M1627.47 263.923H1671.5M1627.47 308V352.078M1627.47 308H1671.5M1627.47 352.078V396.156M1627.47 352.078H1671.5M1627.47 396.156V440.233M1627.47 396.156H1671.5M1627.47 440.233V484.311M1627.47 440.233H1671.5M1627.47 484.311V528.389M1627.47 484.311H1671.5M1627.47 528.389V572.466M1627.47 528.389H1671.5M1627.47 572.466V616.544M1627.47 572.466H1671.5M1627.47 616.544V660.622M1627.47 616.544H1671.5M1627.47 660.622V704.7M1627.47 660.622H1671.5M1627.47 704.7V748.777M1627.47 704.7H1671.5M1627.47 748.777H1671.5M1671.5 -132.776V-88.6987M1671.5 -132.776H1715.54M1671.5 -88.6987V-44.621M1671.5 -88.6987H1715.54M1671.5 -44.621V-0.543334M1671.5 -44.621H1715.54M1671.5 -0.543334V43.5343M1671.5 -0.543334H1715.54M1671.5 43.5343V87.612M1671.5 43.5343H1715.54M1671.5 87.612V131.69M1671.5 87.612H1715.54M1671.5 131.69V175.767M1671.5 131.69H1715.54M1671.5 175.767V219.845M1671.5 175.767H1715.54M1671.5 219.845V263.923M1671.5 219.845H1715.54M1671.5 263.923V308M1671.5 263.923H1715.54M1671.5 308V352.078M1671.5 308H1715.54M1671.5 352.078V396.156M1671.5 352.078H1715.54M1671.5 396.156V440.233M1671.5 396.156H1715.54M1671.5 440.233V484.311M1671.5 440.233H1715.54M1671.5 484.311V528.389M1671.5 484.311H1715.54M1671.5 528.389V572.466M1671.5 528.389H1715.54M1671.5 572.466V616.544M1671.5 572.466H1715.54M1671.5 616.544V660.622M1671.5 616.544H1715.54M1671.5 660.622V704.7M1671.5 660.622H1715.54M1671.5 704.7V748.777M1671.5 704.7H1715.54M1671.5 748.777H1715.54M1715.54 -132.776V-88.6987M1715.54 -132.776H1759.57M1715.54 -88.6987V-44.621M1715.54 -88.6987H1759.57M1715.54 -44.621V-0.543334M1715.54 -44.621H1759.57M1715.54 -0.543334V43.5343M1715.54 -0.543334H1759.57M1715.54 43.5343V87.612M1715.54 43.5343H1759.57M1715.54 87.612V131.69M1715.54 87.612H1759.57M1715.54 131.69V175.767M1715.54 131.69H1759.57M1715.54 175.767V219.845M1715.54 175.767H1759.57M1715.54 219.845V263.923M1715.54 219.845H1759.57M1715.54 263.923V308M1715.54 263.923H1759.57M1715.54 308V352.078M1715.54 308H1759.57M1715.54 352.078V396.156M1715.54 352.078H1759.57M1715.54 396.156V440.233M1715.54 396.156H1759.57M1715.54 440.233V484.311M1715.54 440.233H1759.57M1715.54 484.311V528.389M1715.54 484.311H1759.57M1715.54 528.389V572.466M1715.54 528.389H1759.57M1715.54 572.466V616.544M1715.54 572.466H1759.57M1715.54 616.544V660.622M1715.54 616.544H1759.57M1715.54 660.622V704.7M1715.54 660.622H1759.57M1715.54 704.7V748.777M1715.54 704.7H1759.57M1715.54 748.777H1759.57M1759.57 -132.776V-88.6987M1759.57 -132.776H1803.61M1759.57 -88.6987V-44.621M1759.57 -88.6987H1803.61M1759.57 -44.621V-0.543334M1759.57 -44.621H1803.61M1759.57 -0.543334V43.5343M1759.57 -0.543334H1803.61M1759.57 43.5343V87.612M1759.57 43.5343H1803.61M1759.57 87.612V131.69M1759.57 87.612H1803.61M1759.57 131.69V175.767M1759.57 131.69H1803.61M1759.57 175.767V219.845M1759.57 175.767H1803.61M1759.57 219.845V263.923M1759.57 219.845H1803.61M1759.57 263.923V308M1759.57 263.923H1803.61M1759.57 308V352.078M1759.57 308H1803.61M1759.57 352.078V396.156M1759.57 352.078H1803.61M1759.57 396.156V440.233M1759.57 396.156H1803.61M1759.57 440.233V484.311M1759.57 440.233H1803.61M1759.57 484.311V528.389M1759.57 484.311H1803.61M1759.57 528.389V572.466M1759.57 528.389H1803.61M1759.57 572.466V616.544M1759.57 572.466H1803.61M1759.57 616.544V660.622M1759.57 616.544H1803.61M1759.57 660.622V704.7M1759.57 660.622H1803.61M1759.57 704.7V748.777M1759.57 704.7H1803.61M1759.57 748.777H1803.61M1803.61 -132.776V-88.6987M1803.61 -132.776H1847.65M1803.61 -88.6987V-44.621M1803.61 -88.6987H1847.65M1803.61 -44.621V-0.543334M1803.61 -44.621H1847.65M1803.61 -0.543334V43.5343M1803.61 -0.543334H1847.65M1803.61 43.5343V87.612M1803.61 43.5343H1847.65M1803.61 87.612V131.69M1803.61 87.612H1847.65M1803.61 131.69V175.767M1803.61 131.69H1847.65M1803.61 175.767V219.845M1803.61 175.767H1847.65M1803.61 219.845V263.923M1803.61 219.845H1847.65M1803.61 263.923V308M1803.61 263.923H1847.65M1803.61 308V352.078M1803.61 308H1847.65M1803.61 352.078V396.156M1803.61 352.078H1847.65M1803.61 396.156V440.233M1803.61 396.156H1847.65M1803.61 440.233V484.311M1803.61 440.233H1847.65M1803.61 484.311V528.389M1803.61 484.311H1847.65M1803.61 528.389V572.466M1803.61 528.389H1847.65M1803.61 572.466V616.544M1803.61 572.466H1847.65M1803.61 616.544V660.622M1803.61 616.544H1847.65M1803.61 660.622V704.7M1803.61 660.622H1847.65M1803.61 704.7V748.777M1803.61 704.7H1847.65M1803.61 748.777H1847.65M1847.65 -132.776V-88.6987M1847.65 -132.776H1891.68M1847.65 -88.6987V-44.621M1847.65 -88.6987H1891.68M1847.65 -44.621V-0.543334M1847.65 -44.621H1891.68M1847.65 -0.543334V43.5343M1847.65 -0.543334H1891.68M1847.65 43.5343V87.612M1847.65 43.5343H1891.68M1847.65 87.612V131.69M1847.65 87.612H1891.68M1847.65 131.69V175.767M1847.65 131.69H1891.68M1847.65 175.767V219.845M1847.65 175.767H1891.68M1847.65 219.845V263.923M1847.65 219.845H1891.68M1847.65 263.923V308M1847.65 263.923H1891.68M1847.65 308V352.078M1847.65 308H1891.68M1847.65 352.078V396.156M1847.65 352.078H1891.68M1847.65 396.156V440.233M1847.65 396.156H1891.68M1847.65 440.233V484.311M1847.65 440.233H1891.68M1847.65 484.311V528.389M1847.65 484.311H1891.68M1847.65 528.389V572.466M1847.65 528.389H1891.68M1847.65 572.466V616.544M1847.65 572.466H1891.68M1847.65 616.544V660.622M1847.65 616.544H1891.68M1847.65 660.622V704.7M1847.65 660.622H1891.68M1847.65 704.7V748.777M1847.65 704.7H1891.68M1847.65 748.777H1891.68M1891.68 -132.776V-88.6987M1891.68 -132.776H1935.72M1891.68 -88.6987V-44.621M1891.68 -88.6987H1935.72M1891.68 -44.621V-0.543334M1891.68 -44.621H1935.72M1891.68 -0.543334V43.5343M1891.68 -0.543334H1935.72M1891.68 43.5343V87.612M1891.68 43.5343H1935.72M1891.68 87.612V131.69M1891.68 87.612H1935.72M1891.68 131.69V175.767M1891.68 131.69H1935.72M1891.68 175.767V219.845M1891.68 175.767H1935.72M1891.68 219.845V263.923M1891.68 219.845H1935.72M1891.68 263.923V308M1891.68 263.923H1935.72M1891.68 308V352.078M1891.68 308H1935.72M1891.68 352.078V396.156M1891.68 352.078H1935.72M1891.68 396.156V440.233M1891.68 396.156H1935.72M1891.68 440.233V484.311M1891.68 440.233H1935.72M1891.68 484.311V528.389M1891.68 484.311H1935.72M1891.68 528.389V572.466M1891.68 528.389H1935.72M1891.68 572.466V616.544M1891.68 572.466H1935.72M1891.68 616.544V660.622M1891.68 616.544H1935.72M1891.68 660.622V704.7M1891.68 660.622H1935.72M1891.68 704.7V748.777M1891.68 704.7H1935.72M1891.68 748.777H1935.72M1935.72 -132.776V-88.6987M1935.72 -132.776H1979.75M1935.72 -88.6987V-44.621M1935.72 -88.6987H1979.75M1935.72 -44.621V-0.543334M1935.72 -44.621H1979.75M1935.72 -0.543334V43.5343M1935.72 -0.543334H1979.75M1935.72 43.5343V87.612M1935.72 43.5343H1979.75M1935.72 87.612V131.69M1935.72 87.612H1979.75M1935.72 131.69V175.767M1935.72 131.69H1979.75M1935.72 175.767V219.845M1935.72 175.767H1979.75M1935.72 219.845V263.923M1935.72 219.845H1979.75M1935.72 263.923V308M1935.72 263.923H1979.75M1935.72 308V352.078M1935.72 308H1979.75M1935.72 352.078V396.156M1935.72 352.078H1979.75M1935.72 396.156V440.233M1935.72 396.156H1979.75M1935.72 440.233V484.311M1935.72 440.233H1979.75M1935.72 484.311V528.389M1935.72 484.311H1979.75M1935.72 528.389V572.466M1935.72 528.389H1979.75M1935.72 572.466V616.544M1935.72 572.466H1979.75M1935.72 616.544V660.622M1935.72 616.544H1979.75M1935.72 660.622V704.7M1935.72 660.622H1979.75M1935.72 704.7V748.777M1935.72 704.7H1979.75M1935.72 748.777H1979.75M1979.75 -132.776V-88.6987M1979.75 -132.776H2023.79V-88.6987M1979.75 -88.6987V-44.621M1979.75 -88.6987H2023.79M1979.75 -44.621V-0.543334M1979.75 -44.621H2023.79M1979.75 -0.543334V43.5343M1979.75 -0.543334H2023.79M1979.75 43.5343V87.612M1979.75 43.5343H2023.79M1979.75 87.612V131.69M1979.75 87.612H2023.79M1979.75 131.69V175.767M1979.75 131.69H2023.79M1979.75 175.767V219.845M1979.75 175.767H2023.79M1979.75 219.845V263.923M1979.75 219.845H2023.79M1979.75 263.923V308M1979.75 263.923H2023.79M1979.75 308V352.078M1979.75 308H2023.79M1979.75 352.078V396.156M1979.75 352.078H2023.79M1979.75 396.156V440.233M1979.75 396.156H2023.79M1979.75 440.233V484.311M1979.75 440.233H2023.79M1979.75 484.311V528.389M1979.75 484.311H2023.79M1979.75 528.389V572.466M1979.75 528.389H2023.79M1979.75 572.466V616.544M1979.75 572.466H2023.79M1979.75 616.544V660.622M1979.75 616.544H2023.79M1979.75 660.622V704.7M1979.75 660.622H2023.79M1979.75 704.7V748.777M1979.75 704.7H2023.79M1979.75 748.777H2023.79V704.7M2023.79 -88.6987V-44.621M2023.79 -44.621V-0.543334M2023.79 -0.543334V43.5343M2023.79 43.5343V87.612M2023.79 87.612V131.69M2023.79 131.69V175.767M2023.79 175.767V219.845M2023.79 219.845V263.923M2023.79 263.923V308M2023.79 308V352.078M2023.79 352.078V396.156M2023.79 396.156V440.233M2023.79 440.233V484.311M2023.79 484.311V528.389M2023.79 528.389V572.466M2023.79 572.466V616.544M2023.79 616.544V660.622M2023.79 660.622V704.7" stroke="url(#paint1_radial_1466_9384)" stroke-width="0.8"/>
</g>
</g>
<defs>
<radialGradient id="paint0_radial_1466_9384" cx="0" cy="0" r="1" gradientUnits="userSpaceOnUse" gradientTransform="translate(1055 308) rotate(90) scale(454 792.982)">
<stop offset="0.665789" stop-color="white"/>
<stop offset="1" stop-color="white" stop-opacity="0.2"/>
</radialGradient>
<radialGradient id="paint1_radial_1466_9384" cx="0" cy="0" r="1" gradientUnits="userSpaceOnUse" gradientTransform="translate(1055 279.81) rotate(90) scale(497.956 883.799)">
<stop offset="0.665789" stop-color="white"/>
<stop offset="1" stop-color="white" stop-opacity="0.2"/>
</radialGradient>
<clipPath id="clip0_1466_9384">
<rect width="2400" height="764" fill="white"/>
</clipPath>
</defs>
</svg>
