<svg width="132" height="23" viewBox="0 0 132 23" fill="none" xmlns="http://www.w3.org/2000/svg">
<g clip-path="url(#clip0_3446_68964)">
<path d="M31.85 18.2218V4.2218H37.89C39.5 4.2218 40.76 4.5918 41.65 5.3218C42.56 6.0518 43.01 7.1718 43.01 8.6618C43.01 9.2318 42.89 9.7918 42.65 10.3418C42.42 10.8718 42.09 11.3518 41.65 11.7818C41.21 12.2118 40.67 12.5518 40.03 12.8218C39.4 13.0718 38.69 13.2018 37.89 13.2018H33.81V18.2218H31.85ZM33.81 11.5618H37.69C38.12 11.5618 38.53 11.4918 38.93 11.3418C39.34 11.1818 39.7 10.9718 40.01 10.7218C40.32 10.4518 40.56 10.1518 40.75 9.8018C40.94 9.4518 41.03 9.0918 41.03 8.7018C41.03 8.2218 40.94 7.8118 40.75 7.4618C40.56 7.1018 40.32 6.8118 40.01 6.5818C39.7 6.3518 39.35 6.1918 38.95 6.0818C38.55 5.9718 38.13 5.9218 37.69 5.9218H33.81V11.5618Z" fill="white"/>
<path d="M48.3 18.2218V4.2218H54.7C56.3 4.2218 57.55 4.5518 58.46 5.2018C59.37 5.8518 59.82 6.8818 59.82 8.2818C59.82 8.9218 59.71 9.4218 59.5 9.7818C59.29 10.1418 59.05 10.4418 58.78 10.6818C58.65 10.8318 58.49 10.9618 58.3 11.0818C58.11 11.1918 57.91 11.2818 57.7 11.3618C57.49 11.4418 57.27 11.5118 57.04 11.5618C56.83 11.6118 56.62 11.6618 56.42 11.7018V11.7418C56.63 11.7018 56.86 11.6618 57.1 11.6218C57.35 11.5818 57.61 11.5618 57.86 11.5618C58.09 11.5618 58.29 11.5918 58.48 11.6418C58.68 11.6818 58.85 11.7618 59 11.8818C59.27 12.0518 59.49 12.3118 59.68 12.6418C59.87 12.9718 59.96 13.4918 59.96 14.1818L59.98 18.2218H58V14.3018C58 13.9118 57.89 13.6318 57.68 13.4618C57.48 13.2718 57.11 13.1818 56.58 13.1818L50.28 13.2018V18.2218H48.3ZM54.32 11.4618C54.87 11.4618 55.36 11.3918 55.8 11.2618C56.25 11.1118 56.65 10.9118 56.98 10.6618C57.31 10.4118 57.57 10.1118 57.74 9.7818C57.93 9.4518 58.02 9.0818 58.02 8.6818C58.02 7.6418 57.71 6.9218 57.08 6.5218C56.47 6.1218 55.62 5.9218 54.54 5.9218H50.28V11.4618H54.32Z" fill="white"/>
<path d="M72.09 18.3618C71.13 18.3618 70.22 18.2118 69.37 17.9218C68.53 17.6318 67.79 17.1918 67.15 16.6018C66.52 16.0118 66.02 15.2718 65.65 14.3818C65.29 13.4918 65.11 12.4318 65.11 11.2218C65.11 10.0118 65.29 8.9518 65.65 8.0618C66.02 7.1518 66.52 6.4118 67.15 5.8218C67.79 5.2218 68.53 4.7818 69.37 4.5018C70.22 4.2118 71.13 4.0718 72.09 4.0818C73.05 4.0818 73.95 4.2518 74.79 4.5418C75.64 4.8218 76.38 5.2618 77.01 5.8618C77.65 6.4518 78.15 7.1918 78.51 8.0818C78.88 8.9618 79.07 10.0118 79.07 11.2218C79.07 12.4318 78.88 13.4918 78.51 14.3818C78.15 15.2718 77.65 16.0118 77.01 16.6018C76.38 17.1918 75.64 17.6318 74.79 17.9218C73.95 18.2118 73.05 18.3618 72.09 18.3618ZM72.09 5.9218C71.45 5.9218 70.83 6.0418 70.23 6.2818C69.63 6.5118 69.1 6.8518 68.63 7.3018C68.16 7.7518 67.78 8.3118 67.49 8.9818C67.21 9.6318 67.07 10.3818 67.07 11.2218C67.07 12.0618 67.21 12.8118 67.49 13.4618C67.77 14.1118 68.14 14.6718 68.61 15.1218C69.09 15.5718 69.63 15.9218 70.23 16.1618C70.83 16.4018 71.45 16.5218 72.09 16.5218C72.77 16.5218 73.41 16.4018 74.01 16.1618C74.62 15.9218 75.16 15.5718 75.61 15.1218C76.08 14.6718 76.44 14.1118 76.71 13.4618C76.98 12.8118 77.11 12.0618 77.11 11.2218C77.11 10.3818 76.97 9.6318 76.69 8.9818C76.41 8.3318 76.03 7.7718 75.55 7.3218C75.08 6.8718 74.55 6.5318 73.95 6.3018C73.35 6.0618 72.73 5.9318 72.09 5.9218Z" fill="white"/>
<path d="M84.31 18.2218V4.2218H89.93C90.9 4.2218 91.82 4.3618 92.69 4.6418C93.56 4.9218 94.31 5.3518 94.95 5.9418C95.6 6.5118 96.12 7.2418 96.49 8.1218C96.86 9.0018 97.05 10.0318 97.05 11.2218C97.05 12.4118 96.86 13.4418 96.49 14.3218C96.12 15.2018 95.6 15.9318 94.95 16.5218C94.31 17.0918 93.56 17.5218 92.69 17.8018C91.82 18.0818 90.9 18.2218 89.93 18.2218H84.31ZM84.93 6.0618C85.08 6.0618 85.23 6.0618 85.39 6.1018C85.55 6.1018 85.7 6.1518 85.83 6.2018C85.96 6.2418 86.07 6.3018 86.15 6.3818C86.23 6.4618 86.27 6.5618 86.27 6.6818V16.3818H90.03C90.63 16.3818 91.23 16.2918 91.83 16.1218C92.43 15.9318 92.97 15.6318 93.45 15.2218C93.94 14.8118 94.34 14.2718 94.63 13.6218C94.94 12.9718 95.09 12.1718 95.09 11.2218C95.09 10.2718 94.94 9.5118 94.65 8.8618C94.36 8.2118 93.97 7.6718 93.49 7.2618C93.01 6.8518 92.46 6.5518 91.85 6.3618C91.25 6.1618 90.64 6.0618 90.03 6.0618H84.93Z" fill="white"/>
<path d="M102.34 18.2218V4.2218H104.3V11.2618C104.3 11.5018 104.27 11.7618 104.2 12.0418C104.15 12.3118 104.08 12.5518 104 12.7818L104.04 12.8018C104.12 12.5718 104.23 12.3418 104.36 12.1018C104.51 11.8618 104.66 11.6518 104.82 11.4618L111.18 4.2218H113.76L108.36 10.3818L114.26 18.2218H111.72L106.54 11.2818L104.3 14.6418V18.2218H102.34Z" fill="white"/>
<path d="M131.41 4.2218V6.0618H127.05C126.85 6.0618 126.64 6.0118 126.43 5.9218C126.23 5.8318 126.06 5.7118 125.91 5.5618L125.87 5.6018C126.02 5.7518 126.14 5.9318 126.23 6.1418C126.32 6.3418 126.37 6.5418 126.37 6.7418V18.2218H124.41V6.0618H119.37V4.2218H131.41Z" fill="white"/>
<path d="M31.85 18.2218V4.2218H37.89C39.5 4.2218 40.76 4.5918 41.65 5.3218C42.56 6.0518 43.01 7.1718 43.01 8.6618C43.01 9.2318 42.89 9.7918 42.65 10.3418C42.42 10.8718 42.09 11.3518 41.65 11.7818C41.21 12.2118 40.67 12.5518 40.03 12.8218C39.4 13.0718 38.69 13.2018 37.89 13.2018H33.81V18.2218H31.85ZM33.81 11.5618H37.69C38.12 11.5618 38.53 11.4918 38.93 11.3418C39.34 11.1818 39.7 10.9718 40.01 10.7218C40.32 10.4518 40.56 10.1518 40.75 9.8018C40.94 9.4518 41.03 9.0918 41.03 8.7018C41.03 8.2218 40.94 7.8118 40.75 7.4618C40.56 7.1018 40.32 6.8118 40.01 6.5818C39.7 6.3518 39.35 6.1918 38.95 6.0818C38.55 5.9718 38.13 5.9218 37.69 5.9218H33.81V11.5618Z" fill="white"/>
<path d="M33.94 18.3518H31.73V4.10181H37.89C39.53 4.10181 40.82 4.48181 41.73 5.23181C42.66 5.98181 43.14 7.14181 43.14 8.67181C43.14 9.26181 43.02 9.84181 42.77 10.4018C42.54 10.9418 42.19 11.4418 41.74 11.8818C41.29 12.3218 40.73 12.6718 40.08 12.9518C39.44 13.2118 38.7 13.3418 37.89 13.3418H33.94V18.3618V18.3518ZM31.98 18.1018H33.69V13.0818H37.89C38.67 13.0818 39.37 12.9618 39.98 12.7118C40.6 12.4518 41.13 12.1118 41.56 11.7018C41.99 11.2918 42.31 10.8218 42.53 10.3018C42.76 9.77181 42.88 9.22181 42.88 8.67181C42.88 7.22181 42.44 6.13181 41.57 5.43181C40.7 4.72181 39.46 4.36181 37.89 4.36181H31.98V18.1118V18.1018ZM37.69 11.6918H33.69V5.80181H37.69C38.14 5.80181 38.57 5.86181 38.98 5.96181C39.39 6.07181 39.76 6.25181 40.08 6.48181C40.4 6.72181 40.66 7.03181 40.86 7.40181C41.05 7.76181 41.15 8.20181 41.15 8.70181C41.15 9.11181 41.05 9.49181 40.86 9.86181C40.67 10.2218 40.41 10.5418 40.09 10.8218C39.77 11.0818 39.4 11.3018 38.97 11.4618C38.56 11.6118 38.13 11.6918 37.69 11.6918ZM33.94 11.4418H37.69C38.1 11.4418 38.5 11.3718 38.89 11.2318C39.29 11.0818 39.64 10.8718 39.93 10.6318C40.22 10.3818 40.46 10.0818 40.64 9.75181C40.82 9.42181 40.91 9.07181 40.91 8.71181C40.91 8.25181 40.82 7.86181 40.64 7.53181C40.46 7.19181 40.23 6.91181 39.94 6.69181C39.65 6.47181 39.3 6.31181 38.92 6.21181C38.53 6.11181 38.12 6.05181 37.69 6.05181H33.94V11.4418Z" fill="white"/>
<path d="M48.3 18.2218V4.2218H54.7C56.3 4.2218 57.55 4.5518 58.46 5.2018C59.37 5.8518 59.82 6.8818 59.82 8.2818C59.82 8.9218 59.71 9.4218 59.5 9.7818C59.29 10.1418 59.05 10.4418 58.78 10.6818C58.65 10.8318 58.49 10.9618 58.3 11.0818C58.11 11.1918 57.91 11.2818 57.7 11.3618C57.49 11.4418 57.27 11.5118 57.04 11.5618C56.83 11.6118 56.62 11.6618 56.42 11.7018V11.7418C56.63 11.7018 56.86 11.6618 57.1 11.6218C57.35 11.5818 57.61 11.5618 57.86 11.5618C58.09 11.5618 58.29 11.5918 58.48 11.6418C58.68 11.6818 58.85 11.7618 59 11.8818C59.27 12.0518 59.49 12.3118 59.68 12.6418C59.87 12.9718 59.96 13.4918 59.96 14.1818L59.98 18.2218H58V14.3018C58 13.9118 57.89 13.6318 57.68 13.4618C57.48 13.2718 57.11 13.1818 56.58 13.1818L50.28 13.2018V18.2218H48.3ZM54.32 11.4618C54.87 11.4618 55.36 11.3918 55.8 11.2618C56.25 11.1118 56.65 10.9118 56.98 10.6618C57.31 10.4118 57.57 10.1118 57.74 9.7818C57.93 9.4518 58.02 9.0818 58.02 8.6818C58.02 7.6418 57.71 6.9218 57.08 6.5218C56.47 6.1218 55.62 5.9218 54.54 5.9218H50.28V11.4618H54.32Z" fill="white"/>
<path d="M60.1 18.3518H57.87V14.3118C57.87 13.9618 57.78 13.7218 57.6 13.5718C57.42 13.4018 57.08 13.3218 56.58 13.3218L50.41 13.3418V18.3618H48.18V4.10181H54.71C56.33 4.10181 57.62 4.44181 58.54 5.10181C59.48 5.77181 59.95 6.85181 59.95 8.28181C59.95 8.94181 59.84 9.47181 59.61 9.84181C59.39 10.2118 59.14 10.5218 58.87 10.7718C58.74 10.9118 58.57 11.0618 58.37 11.1818C58.21 11.2718 58.03 11.3618 57.86 11.4318C58.11 11.4318 58.32 11.4618 58.52 11.5118C58.73 11.5518 58.92 11.6418 59.08 11.7718C59.35 11.9518 59.59 12.2218 59.79 12.5618C59.99 12.9218 60.09 13.4418 60.09 14.1618L60.11 18.3318V18.3518H60.1ZM58.12 18.1018H59.85L59.83 14.1918C59.83 13.5218 59.74 13.0218 59.57 12.7118C59.4 12.4018 59.18 12.1618 58.93 11.9918C58.79 11.8818 58.63 11.8018 58.45 11.7718C58.05 11.6618 57.58 11.6818 57.11 11.7518C56.87 11.7918 56.65 11.8318 56.43 11.8718L56.28 11.9018V11.6118L56.38 11.5918C56.58 11.5518 56.78 11.5018 56.99 11.4518C57.21 11.4018 57.43 11.3318 57.64 11.2518C57.85 11.1718 58.04 11.0818 58.22 10.9818C58.39 10.8718 58.55 10.7418 58.67 10.6018C58.93 10.3618 59.17 10.0718 59.38 9.72181C59.58 9.38181 59.68 8.90181 59.68 8.28181C59.68 6.93181 59.24 5.93181 58.37 5.30181C57.49 4.67181 56.25 4.34181 54.68 4.34181H48.4V18.0918H50.13V13.0718H50.25L56.55 13.0518C57.12 13.0518 57.51 13.1518 57.73 13.3618C57.97 13.5518 58.09 13.8718 58.09 14.2918V18.0818L58.12 18.1018ZM54.32 11.5918H50.15V5.80181H54.53C55.63 5.80181 56.51 6.01181 57.14 6.42181C57.8 6.84181 58.14 7.60181 58.14 8.68181C58.14 9.10181 58.04 9.49181 57.84 9.84181C57.66 10.1818 57.39 10.5018 57.05 10.7618C56.71 11.0218 56.3 11.2318 55.83 11.3818C55.38 11.5218 54.87 11.5918 54.31 11.5918H54.32ZM50.4 11.3418H54.32C54.85 11.3418 55.34 11.2718 55.76 11.1518C56.19 11.0118 56.58 10.8118 56.9 10.5718C57.22 10.3318 57.46 10.0518 57.62 9.73181C57.8 9.41181 57.89 9.06181 57.89 8.69181C57.89 7.70181 57.59 7.01181 57.01 6.64181C56.42 6.26181 55.59 6.06181 54.54 6.06181H50.41V11.3518L50.4 11.3418Z" fill="white"/>
<path d="M72.09 18.3618C71.13 18.3618 70.22 18.2118 69.37 17.9218C68.53 17.6318 67.79 17.1918 67.15 16.6018C66.52 16.0118 66.02 15.2718 65.65 14.3818C65.29 13.4918 65.11 12.4318 65.11 11.2218C65.11 10.0118 65.29 8.9518 65.65 8.0618C66.02 7.1518 66.52 6.4118 67.15 5.8218C67.79 5.2218 68.53 4.7818 69.37 4.5018C70.22 4.2118 71.13 4.0718 72.09 4.0818C73.05 4.0818 73.95 4.2518 74.79 4.5418C75.64 4.8218 76.38 5.2618 77.01 5.8618C77.65 6.4518 78.15 7.1918 78.51 8.0818C78.88 8.9618 79.07 10.0118 79.07 11.2218C79.07 12.4318 78.88 13.4918 78.51 14.3818C78.15 15.2718 77.65 16.0118 77.01 16.6018C76.38 17.1918 75.64 17.6318 74.79 17.9218C73.95 18.2118 73.05 18.3618 72.09 18.3618ZM72.09 5.9218C71.45 5.9218 70.83 6.0418 70.23 6.2818C69.63 6.5118 69.1 6.8518 68.63 7.3018C68.16 7.7518 67.78 8.3118 67.49 8.9818C67.21 9.6318 67.07 10.3818 67.07 11.2218C67.07 12.0618 67.21 12.8118 67.49 13.4618C67.77 14.1118 68.14 14.6718 68.61 15.1218C69.09 15.5718 69.63 15.9218 70.23 16.1618C70.83 16.4018 71.45 16.5218 72.09 16.5218C72.77 16.5218 73.41 16.4018 74.01 16.1618C74.62 15.9218 75.16 15.5718 75.61 15.1218C76.08 14.6718 76.44 14.1118 76.71 13.4618C76.98 12.8118 77.11 12.0618 77.11 11.2218C77.11 10.3818 76.97 9.6318 76.69 8.9818C76.41 8.3318 76.03 7.7718 75.55 7.3218C75.08 6.8718 74.55 6.5318 73.95 6.3018C73.35 6.0618 72.73 5.9318 72.09 5.9218Z" fill="white"/>
<path d="M72.09 18.4918C71.12 18.4918 70.19 18.3418 69.33 18.0418C68.48 17.7418 67.72 17.2918 67.07 16.6918C66.43 16.0918 65.92 15.3318 65.54 14.4318C65.17 13.5218 64.99 12.4418 64.99 11.2218C64.99 10.0018 65.17 8.92178 65.54 8.01178C65.92 7.09178 66.44 6.32178 67.07 5.73178C67.72 5.12178 68.48 4.67178 69.33 4.38178C70.19 4.08178 71.12 3.93178 72.09 3.95178C73.06 3.95178 73.98 4.12178 74.83 4.42178C75.7 4.71178 76.46 5.16178 77.1 5.77178C77.75 6.36178 78.26 7.13178 78.63 8.03178C79.01 8.92178 79.2 9.99178 79.2 11.2218C79.2 12.4518 79.01 13.5218 78.63 14.4318C78.26 15.3418 77.75 16.1018 77.1 16.6918C76.46 17.2918 75.7 17.7418 74.84 18.0418C73.99 18.3418 73.07 18.4918 72.1 18.4918H72.09ZM71.96 4.21178C71.06 4.21178 70.21 4.35178 69.41 4.62178C68.59 4.89178 67.86 5.33178 67.24 5.91178C66.63 6.48178 66.14 7.22178 65.77 8.11178C65.42 8.99178 65.24 10.0318 65.24 11.2218C65.24 12.4118 65.42 13.4618 65.77 14.3318C66.13 15.2018 66.63 15.9318 67.24 16.5118C67.87 17.0818 68.6 17.5218 69.42 17.8018C70.26 18.0918 71.16 18.2318 72.1 18.2318C73.04 18.2318 73.93 18.0818 74.76 17.8018C75.59 17.5118 76.32 17.0818 76.94 16.5118C77.56 15.9418 78.06 15.2118 78.41 14.3318C78.78 13.4518 78.96 12.4118 78.96 11.2218C78.96 10.0318 78.78 8.99178 78.41 8.13178C78.06 7.25178 77.56 6.52178 76.94 5.95178C76.33 5.37178 75.6 4.93178 74.77 4.66178C73.94 4.37178 73.05 4.22178 72.11 4.21178H71.96ZM72.09 16.6518C71.44 16.6518 70.79 16.5318 70.18 16.2818C69.57 16.0318 69.01 15.6818 68.52 15.2118C68.04 14.7518 67.66 14.1718 67.37 13.5118C67.08 12.8418 66.94 12.0718 66.94 11.2218C66.94 10.3718 67.08 9.60178 67.37 8.93178C67.67 8.25178 68.06 7.67178 68.54 7.21178C69.02 6.75178 69.57 6.39178 70.18 6.16178C70.79 5.92178 71.43 5.79178 72.08 5.79178C72.73 5.79178 73.37 5.93178 73.98 6.18178C74.59 6.41178 75.14 6.76178 75.62 7.23178C76.11 7.69178 76.5 8.26178 76.79 8.93178C77.08 9.60178 77.22 10.3618 77.22 11.2218C77.22 12.0818 77.08 12.8418 76.81 13.5118C76.54 14.1818 76.16 14.7518 75.68 15.2118C75.22 15.6718 74.67 16.0318 74.04 16.2818C73.43 16.5218 72.77 16.6518 72.07 16.6518H72.09ZM72.09 6.05178C71.47 6.05178 70.86 6.17178 70.28 6.40178C69.7 6.62178 69.17 6.95178 68.72 7.39178C68.27 7.83178 67.89 8.38178 67.61 9.03178C67.34 9.66178 67.2 10.4018 67.2 11.2218C67.2 12.0418 67.34 12.7718 67.61 13.4118C67.88 14.0518 68.25 14.5918 68.7 15.0318C69.17 15.4718 69.7 15.8118 70.28 16.0418C71.48 16.5218 72.84 16.4918 73.97 16.0418C74.57 15.8118 75.09 15.4718 75.53 15.0318C75.98 14.5918 76.34 14.0518 76.6 13.4118C76.86 12.7818 76.99 12.0418 76.99 11.2218C76.99 10.4018 76.85 9.66178 76.58 9.03178C76.31 8.40178 75.93 7.85178 75.47 7.41178C75.02 6.97178 74.49 6.63178 73.91 6.42178C73.33 6.19178 72.72 6.06178 72.09 6.05178Z" fill="white"/>
<path d="M84.31 18.2218V4.2218H89.93C90.9 4.2218 91.82 4.3618 92.69 4.6418C93.56 4.9218 94.31 5.3518 94.95 5.9418C95.6 6.5118 96.12 7.2418 96.49 8.1218C96.86 9.0018 97.05 10.0318 97.05 11.2218C97.05 12.4118 96.86 13.4418 96.49 14.3218C96.12 15.2018 95.6 15.9318 94.95 16.5218C94.31 17.0918 93.56 17.5218 92.69 17.8018C91.82 18.0818 90.9 18.2218 89.93 18.2218H84.31ZM84.93 6.0618C85.08 6.0618 85.23 6.0618 85.39 6.1018C85.55 6.1018 85.7 6.1518 85.83 6.2018C85.96 6.2418 86.07 6.3018 86.15 6.3818C86.23 6.4618 86.27 6.5618 86.27 6.6818V16.3818H90.03C90.63 16.3818 91.23 16.2918 91.83 16.1218C92.43 15.9318 92.97 15.6318 93.45 15.2218C93.94 14.8118 94.34 14.2718 94.63 13.6218C94.94 12.9718 95.09 12.1718 95.09 11.2218C95.09 10.2718 94.94 9.5118 94.65 8.8618C94.36 8.2118 93.97 7.6718 93.49 7.2618C93.01 6.8518 92.46 6.5518 91.85 6.3618C91.25 6.1618 90.64 6.0618 90.03 6.0618H84.93Z" fill="white"/>
<path d="M89.93 18.3518H84.18V4.10181H89.93C90.91 4.10181 91.85 4.24181 92.73 4.53181C93.61 4.82181 94.39 5.26181 95.04 5.86181C95.7 6.44181 96.23 7.19181 96.61 8.08181C96.99 8.97181 97.18 10.0318 97.18 11.2318C97.18 12.4318 96.99 13.4918 96.61 14.3818C96.23 15.2718 95.7 16.0318 95.04 16.6218C94.39 17.2018 93.62 17.6418 92.74 17.9318C91.87 18.2118 90.93 18.3618 89.94 18.3618L89.93 18.3518ZM84.44 18.1018H89.94C90.9 18.1018 91.81 17.9618 92.66 17.6918C93.51 17.4218 94.25 16.9918 94.87 16.4418C95.51 15.8718 96.01 15.1418 96.38 14.2818C96.75 13.4218 96.93 12.3918 96.93 11.2318C96.93 10.0718 96.74 9.04181 96.38 8.18181C96.02 7.32181 95.51 6.60181 94.87 6.05181C94.25 5.48181 93.5 5.05181 92.65 4.77181C91.8 4.50181 90.88 4.36181 89.93 4.36181H84.43V18.1118L84.44 18.1018ZM90.03 16.5118H86.15V6.68181C86.15 6.59181 86.12 6.53181 86.07 6.47181C86 6.40181 85.92 6.36181 85.8 6.32181C85.67 6.27181 85.53 6.24181 85.39 6.22181C85.23 6.19181 85.08 6.18181 84.94 6.18181V5.93181H90.04C90.66 5.93181 91.29 6.03181 91.9 6.24181C92.52 6.43181 93.09 6.74181 93.58 7.16181C94.07 7.58181 94.47 8.14181 94.77 8.80181C95.07 9.47181 95.22 10.2818 95.22 11.2118C95.22 12.1418 95.06 13.0018 94.75 13.6618C94.45 14.3318 94.04 14.8818 93.54 15.3018C93.05 15.7218 92.49 16.0318 91.88 16.2218C91.27 16.4018 90.65 16.4918 90.04 16.4918V16.5118H90.03ZM86.4 16.2618H90.03C90.61 16.2618 91.21 16.1718 91.8 16.0118C92.38 15.8318 92.91 15.5418 93.37 15.1318C93.85 14.7318 94.23 14.2118 94.52 13.5718C94.82 12.9418 94.97 12.1518 94.97 11.2218C94.97 10.2918 94.83 9.55181 94.54 8.91181C94.26 8.28181 93.88 7.75181 93.41 7.35181C92.95 6.95181 92.41 6.66181 91.82 6.47181C91.23 6.27181 90.63 6.18181 90.04 6.18181H86.11C86.11 6.18181 86.21 6.25181 86.25 6.29181C86.35 6.39181 86.41 6.53181 86.41 6.68181V16.2618H86.4Z" fill="white"/>
<path d="M102.34 18.2218V4.2218H104.3V11.2618C104.3 11.5018 104.27 11.7618 104.2 12.0418C104.15 12.3118 104.08 12.5518 104 12.7818L104.04 12.8018C104.12 12.5718 104.23 12.3418 104.36 12.1018C104.51 11.8618 104.66 11.6518 104.82 11.4618L111.18 4.2218H113.76L108.36 10.3818L114.26 18.2218H111.72L106.54 11.2818L104.3 14.6418V18.2218H102.34Z" fill="white"/>
<path d="M114.51 18.3518H111.66L111.62 18.3018L106.55 11.5018L104.43 14.6818V18.3518H102.22V4.10181H104.43V11.2718C104.43 11.4618 104.41 11.6618 104.37 11.8718C104.49 11.6918 104.61 11.5318 104.73 11.3918L111.13 4.11181H114.04L108.53 10.4018L114.52 18.3618H114.51V18.3518ZM111.78 18.1018H114.01L108.2 10.3818L108.27 10.3018L113.49 4.35181H111.24L104.92 11.5518C104.77 11.7318 104.62 11.9318 104.47 12.1718C104.34 12.4018 104.24 12.6318 104.16 12.8518L104.11 12.9818L103.85 12.8518L103.89 12.7518C103.97 12.5218 104.03 12.2818 104.08 12.0318C104.15 11.7618 104.18 11.5018 104.18 11.2718V4.35181H102.47V18.1018H104.18V14.6118L104.2 14.5818L106.54 11.0718L106.65 11.2118L111.79 18.1018H111.78Z" fill="white"/>
<path d="M131.41 4.2218V6.0618H127.05C126.85 6.0618 126.64 6.0118 126.43 5.9218C126.23 5.8318 126.06 5.7118 125.91 5.5618L125.87 5.6018C126.02 5.7518 126.14 5.9318 126.23 6.1418C126.32 6.3418 126.37 6.5418 126.37 6.7418V18.2218H124.41V6.0618H119.37V4.2218H131.41Z" fill="white"/>
<path d="M126.49 18.3518H124.28V6.19181H119.24V4.10181H131.53V6.19181H127.05C126.83 6.19181 126.61 6.14181 126.38 6.04181C126.35 6.03181 126.33 6.01181 126.3 6.00181C126.31 6.03181 126.33 6.06181 126.34 6.09181C126.44 6.30181 126.49 6.52181 126.49 6.74181V18.3418V18.3518ZM124.53 18.1018H126.24V6.74181C126.24 6.56181 126.2 6.37181 126.11 6.19181C126.02 5.99181 125.91 5.82181 125.77 5.69181L125.68 5.60181L125.9 5.38181L125.99 5.47181C126.13 5.61181 126.29 5.72181 126.47 5.81181C126.66 5.89181 126.85 5.94181 127.04 5.94181H131.27V4.35181H119.48V5.94181H124.52V18.1018H124.53Z" fill="white"/>
<g clip-path="url(#clip1_3446_68964)">
<path d="M13.84 21.93C13.46 20.65 13.15 19.25 13.22 17.93L9.1 19.01C8.39 15.17 5.11 13.34 1.41 14.64L0 9.5L0.47 9.31C4.04 8.6 5.71 5.2 4.43 1.87L9.64 0.5C10.02 1.79 10.33 3.18 10.26 4.5L14.38 3.42C15.1 7.27 18.36 9.08 22.08 7.79L23.48 12.93L23.01 13.12C19.45 13.84 17.77 17.23 19.05 20.56L13.84 21.93ZM14.23 17.67C14.17 18.68 14.27 19.71 14.55 20.72L17.82 19.86C16.88 16.65 19.02 13.07 22.27 12.29L21.39 9.08L21.83 8.9L21.37 9.02C18.02 9.9 14.57 7.94 13.67 4.65L10.4 5.51C11.21 8.57 13.55 10.95 16.55 12.04C15.26 13.6 14.4 15.49 14.25 17.45L14.3 17.65L14.23 17.67ZM3.72 13.22C6.49 13.22 9.04 15.04 9.79 17.8L13.06 16.94C12.25 13.88 9.91 11.5 6.91 10.41C8.2 8.86 9.06 6.96 9.21 5L9.15 4.8L9.22 4.78C9.28 3.77 9.18 2.74 8.91 1.73L5.64 2.59C6.58 5.8 4.45 9.37 1.2 10.16L2.09 13.44C2.63 13.3 3.18 13.23 3.72 13.23V13.22ZM8.47 9.99C10.82 11.14 12.63 13.06 13.6 15.42C13.9 14.38 14.36 13.38 14.99 12.45C12.64 11.31 10.83 9.38 9.86 7.02C9.56 8.06 9.1 9.06 8.47 9.99Z" fill="white"/>
</g>
</g>
<defs>
<clipPath id="clip0_3446_68964">
<rect width="132" height="22" fill="white" transform="translate(0 0.5)"/>
</clipPath>
<clipPath id="clip1_3446_68964">
<rect width="23.48" height="21.43" fill="white" transform="translate(0 0.5)"/>
</clipPath>
</defs>
</svg>
