<svg xmlns="http://www.w3.org/2000/svg" width="3175" height="2440" fill="none"><g clip-path="url(#a)"><g filter="url(#b)"><path fill="#ADCFD8" d="M2734.03 1467.56c0 608.12-513.32 1101.1-1146.53 1101.1-633.211 0-1146.53-492.98-1146.53-1101.1 0-361.98 40.435-240.69 501.123-412.45 196.377-73.224 510.197-58.592 754.317-334.442 122.52-138.452 457.7-233.867 655.44-129.32 219.58 116.091 382.18 556.242 382.18 876.212z"/></g><g filter="url(#c)" opacity=".7"><path fill="#ADCFD8" d="M2734.03 1467.56c0 608.12-513.32 1101.1-1146.53 1101.1-633.211 0-1146.531-492.98-1146.531-1101.1 0-361.98 177.141-357.86 637.831-529.63 196.38-73.219 280.37-247.154 536.66-247.154 300.05 0 538.65-203.975 736.39-99.428 219.58 116.09 382.18 556.242 382.18 876.212z"/></g><g filter="url(#d)"><path fill="url(#e)" d="M2734.03 1467.56c0 608.12-513.32 1101.1-1146.53 1101.1-633.212 0-1146.531-492.98-1146.531-1101.1 0-361.98-3.504-367.63 457.183-539.393 196.378-73.22 537.078-190.41 793.378-190.41 300.04 0 468.69 5.305 666.43 109.852 219.58 116.091 376.07 299.981 376.07 619.951z"/></g><g filter="url(#f)"><path fill="#181C1F" d="M2325.44 1849.74c0 436.72-368.64 790.76-823.39 790.76-454.74 0-823.385-354.04-823.385-790.76 0-436.73 368.645-790.77 823.385-790.77 249.84 0 580.73 22.37 731.73 191.09 123.86 138.38 91.66 402.88 91.66 599.68z"/></g></g><defs><filter id="b" width="2448.42" height="2177.02" x="363.292" y="469.322" color-interpolation-filters="sRGB" filterUnits="userSpaceOnUse"><feFlood flood-opacity="0" result="BackgroundImageFix"/><feBlend in="SourceGraphic" in2="BackgroundImageFix" result="shape"/><feGaussianBlur result="effect1_foregroundBlur_317_2228" stdDeviation="38.839"/></filter><filter id="c" width="2914.49" height="2628.55" x="130.256" y="250.819" color-interpolation-filters="sRGB" filterUnits="userSpaceOnUse"><feFlood flood-opacity="0" result="BackgroundImageFix"/><feBlend in="SourceGraphic" in2="BackgroundImageFix" result="shape"/><feGaussianBlur result="effect1_foregroundBlur_317_2228" stdDeviation="155.356"/></filter><filter id="d" width="3318.42" height="2856.26" x="-71.708" y="225.08" color-interpolation-filters="sRGB" filterUnits="userSpaceOnUse"><feFlood flood-opacity="0" result="BackgroundImageFix"/><feBlend in="SourceGraphic" in2="BackgroundImageFix" result="shape"/><feGaussianBlur result="effect1_foregroundBlur_317_2228" stdDeviation="256.338"/></filter><filter id="f" width="2427.33" height="2358.31" x="290.274" y="670.579" color-interpolation-filters="sRGB" filterUnits="userSpaceOnUse"><feFlood flood-opacity="0" result="BackgroundImageFix"/><feBlend in="SourceGraphic" in2="BackgroundImageFix" result="shape"/><feGaussianBlur result="effect1_foregroundBlur_317_2228" stdDeviation="194.196"/></filter><linearGradient id="e" x1="1587.2" x2="1609.25" y1="561.533" y2="1343.27" gradientUnits="userSpaceOnUse"><stop stop-color="#F4E28D"/><stop offset=".24" stop-color="#F4E28D"/><stop offset=".734" stop-color="#4B8396"/><stop offset="1" stop-color="#1C6983"/></linearGradient><clipPath id="a"><path fill="#fff" d="M0 0h3175v2440H0z"/></clipPath></defs></svg>