<svg xmlns="http://www.w3.org/2000/svg" width="2059" height="949" fill="none"><g clip-path="url(#a)"><g filter="url(#b)"><path fill="#ADCFD8" d="M1722.81 1371.31c0 366.97-309.76 664.46-691.87 664.46-382.114 0-691.877-297.49-691.877-664.46 0-218.43-21.128-425.095 256.875-528.748 118.505-44.184 297.212 60 451.872 60 181.06 0 325.05-123.089 444.38-60 132.5 70.055 230.62 335.668 230.62 528.748z"/></g><g filter="url(#c)" opacity=".7"><path fill="#ADCFD8" d="M1722.81 1371.31c0 366.97-309.76 664.46-691.87 664.46-382.115 0-691.878-297.49-691.878-664.46 0-218.43-21.127-425.095 256.875-528.748 118.505-44.184 297.213 60 451.873 60 181.06 0 325.05-123.089 444.38-60 132.5 70.055 230.62 335.668 230.62 528.748z"/></g><g filter="url(#d)"><path fill="url(#e)" d="M1722.81 1371.31c0 366.97-309.76 664.46-691.87 664.46-382.115 0-691.878-297.49-691.878-664.46 0-218.43-21.127-425.095 256.875-528.748 118.505-44.184 297.213 60 451.873 60 181.06 0 325.05-123.089 444.38-60 132.5 70.055 230.62 335.668 230.62 528.748z"/></g><path fill="url(#f)" d="M1462.32 1180.06c0 366.97 33.94-150-403.95-150-437.882 0-507.084 464.47-507.084 97.5 0-218.435-193.956-149.47 124.623-253.123 135.802-44.184 181.591 60 358.831 60 207.48 0 308.03-123.089 444.77-60 151.84 70.055-17.19 112.54-17.19 305.623z" opacity=".6"/><g filter="url(#g)"><path fill="#181C1F" d="M1476.25 1601.94c0 263.54-222.46 477.18-496.875 477.18-274.416 0-496.875-213.64-496.875-477.18 0-263.55 222.459-477.19 496.875-477.19 150.765 0 350.435 13.5 441.565 115.31 74.74 83.51 55.31 243.12 55.31 361.88z"/></g><g filter="url(#h)" opacity=".8"><ellipse cx="515.613" cy="916.625" fill="#CBF4FF" rx="176.919" ry="253.125"/></g></g><defs><filter id="b" width="1477.87" height="1304.95" x="291.82" y="777.695" color-interpolation-filters="sRGB" filterUnits="userSpaceOnUse"><feFlood flood-opacity="0" result="BackgroundImageFix"/><feBlend in="SourceGraphic" in2="BackgroundImageFix" result="shape"/><feGaussianBlur result="effect1_foregroundBlur_308_21222" stdDeviation="23.438"/></filter><filter id="c" width="1759.12" height="1586.2" x="151.194" y="637.07" color-interpolation-filters="sRGB" filterUnits="userSpaceOnUse"><feFlood flood-opacity="0" result="BackgroundImageFix"/><feBlend in="SourceGraphic" in2="BackgroundImageFix" result="shape"/><feGaussianBlur result="effect1_foregroundBlur_308_21222" stdDeviation="93.75"/></filter><filter id="d" width="2002.87" height="1829.95" x="29.32" y="515.195" color-interpolation-filters="sRGB" filterUnits="userSpaceOnUse"><feFlood flood-opacity="0" result="BackgroundImageFix"/><feBlend in="SourceGraphic" in2="BackgroundImageFix" result="shape"/><feGaussianBlur result="effect1_foregroundBlur_308_21222" stdDeviation="154.688"/></filter><filter id="g" width="1464.77" height="1423.13" x="248.125" y="890.375" color-interpolation-filters="sRGB" filterUnits="userSpaceOnUse"><feFlood flood-opacity="0" result="BackgroundImageFix"/><feBlend in="SourceGraphic" in2="BackgroundImageFix" result="shape"/><feGaussianBlur result="effect1_foregroundBlur_308_21222" stdDeviation="117.188"/></filter><filter id="h" width="916.338" height="1068.75" x="57.444" y="382.25" color-interpolation-filters="sRGB" filterUnits="userSpaceOnUse"><feFlood flood-opacity="0" result="BackgroundImageFix"/><feBlend in="SourceGraphic" in2="BackgroundImageFix" result="shape"/><feGaussianBlur result="effect1_foregroundBlur_308_21222" stdDeviation="140.625"/></filter><linearGradient id="e" x1="1030.75" x2="1044.06" y1="824.57" y2="1296.31" gradientUnits="userSpaceOnUse"><stop stop-color="#D2F6FF"/><stop offset=".24" stop-color="#ADCFD8"/><stop offset=".734" stop-color="#4B8396"/><stop offset="1" stop-color="#1C6983"/></linearGradient><linearGradient id="f" x1="1017.81" x2="1037.26" y1="856.445" y2="1210.4" gradientUnits="userSpaceOnUse"><stop stop-color="#ADCFD8"/><stop offset=".233" stop-color="#ADCFD8" stop-opacity="0"/></linearGradient><clipPath id="a"><path fill="#fff" d="M0 0h2059v949H0z"/></clipPath></defs></svg>