<svg width="49" height="49" viewBox="0 0 49 49" fill="none" xmlns="http://www.w3.org/2000/svg">
<rect width="48.0117" height="48.036" rx="24.0058" fill="white"/>
<path d="M9.04727 6.99583C9.83927 5.84383 10.6433 4.66783 11.4953 3.52783C7.06727 6.23983 3.58727 10.3438 1.65527 15.2398C4.65527 13.4278 6.79127 10.2958 9.04727 6.99583Z" fill="#FEC21D"/>
<path d="M2.01544 24.684C3.98344 24.684 5.65144 23.292 7.18744 21.168C5.66344 22.56 3.87544 23.508 1.78744 23.508C1.19944 23.508 0.611438 23.424 0.0234375 23.28C0.0234375 23.532 0.0234375 23.772 0.0234375 24.024C0.0234375 24.12 0.0234375 24.228 0.0234375 24.324C0.0954375 24.336 0.167438 24.36 0.227438 24.372C0.863438 24.576 1.47544 24.684 2.02744 24.684H2.01544Z" fill="#C07CE4"/>
<path d="M7.72823 10.536C8.32823 9.61196 8.94023 8.63996 9.51623 7.69196C10.3202 6.38396 11.1482 5.02796 12.0482 3.74396L12.2162 3.50396C12.3722 3.27596 12.5282 3.05996 12.6962 2.85596C12.2882 3.07196 11.9042 3.29996 11.5082 3.52796C10.6562 4.66796 9.85223 5.84396 9.06023 6.99596C6.80423 10.296 4.65623 13.428 1.65623 15.24C1.42823 15.828 1.22423 16.416 1.03223 17.028C3.98423 15.72 6.00023 13.164 7.72823 10.536Z" fill="#FE8089"/>
<path d="M18.3725 45.9841C23.7845 44.7961 24.7685 37.2361 25.6445 30.5641C25.8245 29.1361 26.0045 27.7801 26.2205 26.5201C26.3045 25.9921 26.4005 25.4161 26.5085 24.7921C27.4445 19.0201 28.8605 10.3201 32.7365 5.43609C33.5645 4.39209 34.4885 3.56409 35.4725 2.94009C33.9845 2.13609 32.4125 1.47609 30.7565 0.996094C30.5885 1.30809 30.3365 1.57209 30.0245 1.76409C29.8085 1.89609 29.5805 2.06409 29.3525 2.25609C26.0645 5.01609 23.7845 12.3001 21.5765 19.3441C20.0885 24.0841 18.5525 28.9801 16.6445 32.6641C15.7445 34.3921 13.0205 39.6481 7.89652 39.6481C7.10452 39.6481 6.27652 39.5161 5.43652 39.2521C8.41252 42.8641 12.4205 45.6001 17.0045 46.9921C17.2925 46.4881 17.7725 46.1161 18.3605 45.9841H18.3725Z" fill="#4380FE"/>
<path d="M7.90813 39.6362C13.0321 39.6362 15.7561 34.3803 16.6561 32.6523C18.5641 28.9683 20.1001 24.0723 21.5881 19.3323C23.7961 12.2883 26.0761 5.01625 29.3641 2.24425C29.5921 2.05225 29.8201 1.88425 30.0361 1.75225C30.3481 1.56025 30.6001 1.29625 30.7681 0.984252C30.4201 0.888252 30.0721 0.792252 29.7241 0.708252C29.5561 1.05625 29.2801 1.36825 28.9201 1.57225C28.5841 1.76425 28.2601 2.01625 27.9241 2.31625C24.8041 5.16025 22.5001 11.8683 20.2681 18.3483C19.8241 19.6443 19.3561 21.0003 18.9001 22.2963C17.6281 25.8483 16.0681 29.8563 14.1241 32.7603C11.9881 35.9283 9.48013 37.5243 6.68413 37.5243C5.74813 37.5243 4.80013 37.3442 3.82812 36.9842C4.33213 37.7642 4.88412 38.5203 5.47212 39.2403C6.30012 39.5043 7.12813 39.6362 7.93213 39.6362H7.90813Z" fill="#3F91F5"/>
<path d="M20.2806 46.404C20.8566 46.212 21.8166 45.876 22.1406 45.588C22.2006 45.54 22.2726 45.48 22.3326 45.432C25.5126 43.272 26.5686 35.232 27.5886 27.444C28.9086 17.364 30.2886 6.94802 36.6606 3.61202C36.2766 3.37202 35.8806 3.13202 35.4726 2.91602C34.4886 3.52802 33.5646 4.35602 32.7366 5.41202C28.8606 10.296 27.4446 19.008 26.5086 24.768C26.4126 25.392 26.3166 25.968 26.2206 26.496C26.0046 27.756 25.8246 29.112 25.6446 30.54C24.7686 37.212 23.7846 44.772 18.3726 45.96C17.7846 46.092 17.2926 46.464 17.0166 46.968C17.6886 47.172 18.3726 47.352 19.0686 47.496C19.2966 46.992 19.7286 46.584 20.2806 46.392V46.404Z" fill="#6374FC"/>
<path d="M7.40414 28.7161C6.73214 29.1361 6.01214 29.4721 5.24414 29.7121C6.01214 29.5441 6.73214 29.2201 7.40414 28.7161Z" fill="#3BF7C6"/>
<path d="M1.812 25.8119C1.992 25.8359 2.184 25.8479 2.364 25.8479C3.144 25.8479 3.876 25.6319 4.596 25.1999C6.636 23.9639 8.412 21.0719 10.068 17.7119C9.228 18.9719 8.268 20.1839 7.188 21.1679C5.652 23.2919 3.996 24.6839 2.016 24.6839C1.452 24.6839 0.852 24.5759 0.204 24.3719C0.132 24.3479 0.072 24.3359 0 24.3239C0 24.6719 0.012 25.0199 0.036 25.3679C0.156 25.3919 0.288 25.4159 0.408 25.4639C0.888 25.6439 1.368 25.7519 1.812 25.8119Z" fill="#4AEDC8"/>
<path d="M3.67144 29.8319C3.79144 29.8319 3.91144 29.8319 4.03144 29.8319C4.45144 29.8319 4.85944 29.7839 5.25544 29.6999C6.02344 29.4719 6.74344 29.1359 7.41544 28.7039C7.43944 28.6799 7.46344 28.6679 7.48744 28.6559C9.11944 27.4199 10.5954 25.1879 12.1074 21.6359C12.9954 19.5599 13.8234 17.2079 14.6274 14.9399C16.5714 9.38391 18.5874 3.65991 21.9954 0.10791C21.7554 0.13191 21.5154 0.15591 21.2754 0.17991C21.2274 0.59991 21.0594 1.00791 20.7714 1.33191L20.1234 2.05191C19.4994 2.74791 18.8394 3.47991 18.2394 4.21191C17.3514 5.27991 16.7394 6.14391 16.2834 6.95991C16.2354 7.05591 16.1754 7.13991 16.1154 7.22391C15.3114 8.26791 14.3874 10.0199 13.4034 11.8799C12.7674 13.0919 12.0954 14.3519 11.3754 15.5879C10.9674 16.2839 10.5234 17.0039 10.0554 17.7119C8.39944 21.0719 6.62344 23.9639 4.58344 25.1999C3.86344 25.6319 3.13144 25.8479 2.35144 25.8479C2.17144 25.8479 1.99144 25.8479 1.79944 25.8119C1.35544 25.7639 0.875438 25.6439 0.395438 25.4639C0.275438 25.4159 0.155438 25.3919 0.0234375 25.3679C0.0954375 26.6879 0.275438 27.9719 0.551438 29.2319C0.767438 29.2319 0.983438 29.2679 1.19944 29.3399C2.07544 29.6279 2.90344 29.7959 3.64744 29.8319H3.67144Z" fill="#3BF7C6"/>
<path d="M3.34741 16.1399C4.65541 15.1679 5.89141 13.8119 7.22341 11.8919C8.13541 10.5839 8.99941 9.11989 9.83941 7.71589C10.6314 6.39589 11.4474 5.02789 12.3114 3.74389C12.5754 3.35989 12.8274 2.98789 13.0914 2.63989C12.9594 2.71189 12.8274 2.78389 12.6834 2.85589C12.5274 3.07189 12.3714 3.28789 12.2154 3.50389L12.0474 3.74389C11.1474 5.03989 10.3194 6.38389 9.51541 7.69189C8.93941 8.63989 8.32741 9.61189 7.72741 10.5359C5.99941 13.1519 3.99541 15.7199 1.04341 17.0279C0.995414 17.1839 0.947414 17.3399 0.899414 17.4959C1.76341 17.1719 2.56741 16.7279 3.35941 16.1399H3.34741Z" fill="#FD3AF2"/>
<path d="M1.776 23.5079C3.876 23.5079 5.652 22.5599 7.176 21.1679C8.256 20.1719 9.216 18.9599 10.056 17.7119C10.536 17.0039 10.968 16.2839 11.376 15.5879C12.096 14.3519 12.756 13.0919 13.392 11.8799C14.376 10.0199 15.3 8.26793 16.104 7.22393C16.164 7.13993 16.224 7.05593 16.272 6.95993C16.728 6.14393 17.34 5.27993 18.228 4.21193C18.84 3.47993 19.488 2.74793 20.112 2.05193L20.76 1.33193C21.048 0.995932 21.228 0.599932 21.264 0.179932C20.544 0.263932 19.848 0.371932 19.152 0.515932C19.344 1.21193 19.152 1.99193 18.6 2.53193C16.74 4.35593 15.204 6.97193 13.584 9.73193C11.064 14.0159 8.472 18.4559 4.164 20.6879C2.916 21.3359 1.584 21.7679 0.204 21.9719C0.156 21.9719 0.12 21.9719 0.072 21.9719C0.036 22.4039 0.012 22.8359 0 23.2679C0.588 23.4239 1.176 23.4959 1.764 23.4959L1.776 23.5079Z" fill="#EF3FF3"/>
<path d="M0.21557 21.9719C1.60757 21.7679 2.93957 21.3359 4.17557 20.6879C8.48357 18.4439 11.0876 14.0159 13.5956 9.73187C15.2156 6.97187 16.7516 4.35587 18.6116 2.53187C19.1636 1.99187 19.3436 1.21187 19.1636 0.515869C17.0156 0.959869 14.9876 1.67987 13.0916 2.63987C12.8396 2.98787 12.5756 3.35987 12.3116 3.74387C11.4476 5.02787 10.6316 6.39587 9.83957 7.71587C8.99957 9.11987 8.12357 10.5839 7.21157 11.8919C5.87957 13.8119 4.64357 15.1679 3.33557 16.1399C2.55557 16.7279 1.73957 17.1719 0.87557 17.4959C0.46757 18.9359 0.19157 20.4479 0.0595703 21.9839C0.10757 21.9839 0.14357 21.9839 0.19157 21.9839L0.21557 21.9719Z" fill="#EF3FF3"/>
<path d="M47.9992 24.0238C47.9992 19.1278 46.5352 14.5798 44.0272 10.7878C38.3632 14.8438 38.1832 23.0038 38.0152 30.8878C37.9072 35.9518 37.7992 40.7398 36.3232 44.6158C43.3192 40.4278 48.0112 32.7718 48.0112 24.0118L47.9992 24.0238Z" fill="#FD3AF2"/>
<path d="M44.0154 10.7877C43.5354 10.0557 43.0074 9.35974 42.4554 8.68774C42.4554 8.68774 42.4554 8.68774 42.4434 8.68774C41.9274 8.93974 41.4474 9.25174 41.0034 9.59974C36.3714 13.2357 35.8314 21.5637 35.3034 29.6157C34.8714 36.2037 34.4634 42.5038 31.8594 46.7038C33.4314 46.1638 34.9194 45.4557 36.3234 44.6157C37.7994 40.7397 37.9074 35.9517 38.0154 30.8877C38.1834 22.9917 38.3634 14.8317 44.0274 10.7877H44.0154Z" fill="#EF3FF3"/>
<path d="M24.8514 47.028C25.1394 46.716 25.4274 46.38 25.7274 45.984C27.7194 43.332 28.8834 39.66 29.0034 35.652C29.0034 35.556 29.0034 35.46 29.0274 35.364C29.2914 33.78 29.4834 31.608 29.6754 29.304C30.4194 20.556 31.4394 8.62799 38.6634 5.02799C38.0154 4.52399 37.3554 4.06799 36.6594 3.63599C30.2874 6.97199 28.9194 17.388 27.5874 27.468C26.5674 35.256 25.5114 43.296 22.3314 45.456C22.2594 45.504 22.1994 45.552 22.1394 45.612C21.8154 45.9 20.8554 46.224 20.2794 46.428C19.7274 46.62 19.2954 47.028 19.0674 47.532C20.6634 47.868 22.3074 48.036 23.9994 48.036C24.1074 48.036 24.2154 48.036 24.3354 48.036C24.4074 47.676 24.5874 47.328 24.8514 47.04V47.028Z" fill="#7D6AFA"/>
<path d="M35.3039 29.6278C35.8319 21.5758 36.3719 13.2478 41.0039 9.6118C41.4479 9.2638 41.9279 8.9518 42.4439 8.6998C42.4439 8.6998 42.4439 8.6998 42.4559 8.6998C41.3279 7.3438 40.0559 6.11979 38.6639 5.03979C31.4279 8.6398 30.4079 20.5798 29.6759 29.3158C29.4839 31.6198 29.2919 33.7918 29.0279 35.3758C29.0159 35.4718 29.0039 35.5678 29.0039 35.6638C28.8839 39.6718 27.7199 43.3318 25.7279 45.9958C25.4279 46.3918 25.1399 46.7278 24.8519 47.0398C24.5879 47.3278 24.4079 47.6638 24.3359 48.0358C26.9639 47.9998 29.4959 47.5438 31.8599 46.7278C34.4639 42.5278 34.8839 36.2398 35.3159 29.6398L35.3039 29.6278Z" fill="#B455F7"/>
<path d="M6.65998 37.5358C9.45598 37.5358 11.964 35.9278 14.1 32.7718C16.056 29.8798 17.616 25.8598 18.876 22.3078C19.344 21.0118 19.8 19.6678 20.244 18.3598C22.464 11.8678 24.768 5.17177 27.9 2.32777C28.236 2.02777 28.572 1.77577 28.896 1.58377C29.256 1.37977 29.52 1.06777 29.7 0.719773C29.328 0.623773 28.956 0.551773 28.572 0.467773C28.464 0.731773 28.296 0.959773 28.08 1.16377C27.756 1.45177 27.432 1.78777 27.084 2.17177C23.568 5.97577 21.396 11.5318 19.632 16.4518C19.332 17.2918 19.032 18.1438 18.732 18.9838C17.688 21.9478 16.608 25.0078 15.36 27.8038L15.312 27.9118C15.252 28.0558 15.192 28.1878 15.12 28.3318C13.404 32.8678 9.20398 36.0358 4.88398 36.0358C4.27198 36.0358 3.67198 35.9638 3.08398 35.8438C3.31198 36.2398 3.55198 36.6358 3.79198 37.0198C4.76398 37.3798 5.72398 37.5598 6.64798 37.5598L6.65998 37.5358Z" fill="#3DB0E7"/>
<path d="M4.88515 36.012C9.21715 36.012 13.4052 32.844 15.1212 28.308C15.1812 28.164 15.2411 28.032 15.3131 27.888L15.3611 27.78C16.6091 24.996 17.6891 21.936 18.7331 18.96C19.0331 18.12 19.3212 17.268 19.6332 16.428C21.3972 11.508 23.5691 5.952 27.0851 2.148C27.4331 1.764 27.7691 1.44 28.0811 1.14C28.2971 0.936 28.4651 0.708 28.5731 0.444C27.0851 0.156 25.5611 0 23.9891 0C23.3171 0 22.6451 0.024 21.9851 0.084C18.5771 3.636 16.5611 9.36 14.6051 14.928C13.8011 17.196 12.9851 19.548 12.0971 21.624C10.5851 25.176 9.10915 27.408 7.47715 28.644C7.45315 28.668 7.42915 28.68 7.40515 28.692C6.73315 29.196 6.01315 29.52 5.24515 29.688C4.84915 29.772 4.45315 29.82 4.03315 29.82C3.91315 29.82 3.79315 29.82 3.67315 29.82C2.91715 29.784 2.08915 29.616 1.22515 29.328C1.00915 29.256 0.793148 29.22 0.577148 29.22C1.09315 31.56 1.95715 33.78 3.10915 35.808C3.69715 35.94 4.29715 36 4.90915 36L4.88515 36.012Z" fill="#3CD0D9"/>
</svg>
